{"glyphs":{"0":{"ha":821,"x_min":124,"x_max":1061,"o":"m 342 -22 q 181 51 238 -22 q 124 247 124 124 q 194 551 124 388 q 375 839 264 707 q 611 1048 486 971 q 843 1125 736 1125 q 1004 1053 947 1125 q 1061 858 1061 981 q 988 551 1061 717 q 809 263 919 394 q 574 54 699 131 q 342 -22 450 -22 m 303 3 q 458 77 365 3 q 649 277 550 151 q 825 551 747 403 q 929 788 893 676 q 965 978 965 900 q 944 1068 965 1036 q 882 1100 924 1100 q 726 1026 818 1100 q 536 826 633 951 q 360 551 439 700 q 256 313 292 425 q 221 125 221 201 q 242 35 221 67 q 303 3 263 3 z "},"1":{"ha":493,"x_min":175,"x_max":1025,"o":"m 1025 1111 l 331 0 l 175 0 l 725 860 l 717 863 q 522 778 643 821 q 301 713 401 736 l 296 733 q 697 873 528 782 q 986 1111 865 964 l 1025 1111 z "},"2":{"ha":1044,"x_min":11,"x_max":1190,"o":"m 206 146 q 376 188 294 188 q 480 172 432 188 q 592 124 528 156 q 694 79 651 94 q 783 64 736 64 q 953 134 890 64 q 1047 296 1017 204 l 1069 292 q 913 59 1011 139 q 679 -21 814 -21 q 553 -2 613 -21 q 413 53 493 17 q 308 94 349 81 q 229 108 268 108 q 135 83 178 108 q 33 0 93 58 l 11 15 q 215 189 103 113 q 417 313 326 265 q 639 422 507 360 q 887 567 797 499 q 1015 707 976 635 q 1054 874 1054 779 q 1026 994 1054 940 q 944 1080 997 1049 q 819 1111 890 1111 q 665 1068 733 1111 q 556 958 597 1025 q 506 822 515 892 q 501 778 501 800 q 530 690 501 721 q 610 660 558 660 q 711 690 658 660 q 814 783 764 719 l 819 768 q 716 666 785 714 q 565 618 647 618 q 446 664 494 618 q 397 789 397 710 q 448 947 397 867 q 597 1080 499 1026 q 829 1133 696 1133 q 1022 1090 940 1133 q 1147 978 1104 1047 q 1190 831 1190 908 q 1103 601 1190 700 q 817 435 1017 503 q 201 150 408 299 l 206 146 z "},"3":{"ha":1007,"x_min":121,"x_max":1190,"o":"m 451 585 q 563 607 501 597 q 933 769 821 669 q 1044 972 1044 868 q 1001 1072 1044 1032 q 871 1111 957 1111 q 679 1069 769 1111 q 535 960 589 1026 q 481 824 481 893 q 510 743 481 769 q 589 717 540 717 q 701 751 640 717 q 818 840 763 785 l 832 829 q 715 724 789 769 q 540 678 640 678 q 431 713 479 678 q 382 815 382 747 q 456 974 382 900 q 644 1090 531 1047 q 864 1133 757 1133 q 1051 1106 978 1133 q 1158 1036 1125 1078 q 1190 950 1190 994 q 1063 764 1190 844 q 728 628 935 683 l 728 610 q 957 559 872 614 q 1042 408 1042 504 q 956 204 1042 304 q 722 41 871 104 q 396 -22 574 -22 l 389 6 q 638 60 521 6 q 826 211 754 115 q 897 422 897 307 q 840 548 897 514 q 671 582 782 582 q 449 563 588 582 l 451 585 m 407 -22 q 197 31 274 -22 q 121 174 121 85 q 152 264 121 228 q 224 300 183 300 q 262 286 247 300 q 276 253 276 272 q 264 224 276 233 q 225 204 251 214 q 176 178 193 192 q 160 135 160 164 q 194 68 160 97 q 283 22 229 39 q 389 6 336 6 l 407 -22 z "},"4":{"ha":907,"x_min":44,"x_max":1086,"o":"m 953 357 l 939 321 l 44 315 l 769 1111 l 919 1111 l 88 333 l 953 357 m 521 0 l 363 0 l 928 938 l 1086 938 l 521 0 z "},"5":{"ha":933,"x_min":78,"x_max":1264,"o":"m 571 1128 q 924 974 725 974 q 1094 1015 1010 974 q 1251 1132 1179 1057 l 1264 1115 q 1116 933 1204 1004 q 908 861 1028 861 q 720 915 807 861 q 572 1046 633 968 q 546 915 575 990 q 463 766 517 839 q 342 644 410 693 l 346 636 q 649 719 507 719 q 800 689 728 719 q 919 594 872 658 q 965 432 965 529 q 905 210 965 314 q 731 42 844 106 q 463 -22 617 -22 q 263 17 350 -22 q 126 126 175 57 q 78 282 78 196 q 107 373 78 336 q 175 410 136 410 q 215 395 200 410 q 229 360 229 381 q 220 333 229 343 q 190 310 211 324 q 149 274 164 292 q 135 221 135 256 q 172 118 135 168 q 278 36 210 68 q 436 4 347 4 q 621 51 538 4 q 755 183 704 97 q 815 381 806 268 q 817 417 817 393 q 753 601 817 538 q 571 665 690 665 q 440 649 507 665 q 299 592 374 633 l 268 611 q 399 719 336 650 q 501 868 463 789 q 540 1015 540 947 q 532 1072 540 1046 l 571 1128 z "},"6":{"ha":868,"x_min":94,"x_max":1128,"o":"m 357 0 q 549 94 447 0 q 721 320 651 188 q 790 558 790 453 q 753 660 790 629 q 671 690 715 690 q 461 603 565 690 q 290 389 357 517 q 224 149 224 261 q 259 39 224 78 q 357 0 294 0 m 94 233 q 229 608 94 414 q 601 947 364 801 q 1128 1140 839 1093 l 1128 1126 q 650 909 832 1069 q 347 542 468 749 l 354 536 q 697 718 514 718 q 803 697 751 718 q 890 626 856 675 q 925 500 925 578 q 849 252 925 374 q 646 54 774 131 q 371 -22 518 -22 q 170 47 246 -22 q 94 233 94 117 z "},"7":{"ha":856,"x_min":268,"x_max":1260,"o":"m 464 0 l 268 0 l 1185 919 l 1178 926 q 1028 874 1110 874 q 942 888 983 874 q 835 933 900 903 q 706 986 761 968 q 588 1004 651 1004 q 458 956 507 1004 q 396 850 408 908 l 372 850 q 463 1049 390 969 q 651 1129 535 1129 q 771 1101 718 1129 q 899 1015 824 1072 q 997 946 958 968 q 1079 924 1036 924 q 1150 938 1117 924 q 1240 994 1183 951 l 1260 976 l 464 0 z "},"8":{"ha":876,"x_min":60,"x_max":1099,"o":"m 806 1133 q 969 1107 903 1133 q 1067 1040 1035 1081 q 1099 957 1099 999 q 994 794 1099 868 q 665 644 890 719 l 654 674 q 928 812 835 739 q 1022 972 1022 885 q 1001 1035 1022 1003 q 930 1089 981 1067 q 797 1111 879 1111 q 686 1091 743 1111 q 590 1026 629 1071 q 550 917 550 982 q 583 804 550 863 q 688 647 617 746 l 708 618 q 832 434 797 497 q 867 303 867 371 q 813 142 867 217 q 657 23 758 68 q 421 -22 556 -22 q 240 10 322 -22 q 108 104 157 42 q 60 251 60 167 q 177 488 60 390 q 517 667 294 586 l 528 639 q 247 480 349 571 q 144 247 144 389 q 183 110 144 167 q 286 27 222 54 q 424 0 350 0 q 592 33 519 0 q 703 119 664 65 q 742 238 742 174 q 701 374 742 303 q 585 547 660 446 l 556 586 q 447 758 475 696 q 419 875 419 819 q 467 1001 419 942 q 602 1097 514 1060 q 806 1133 690 1133 z "},"9":{"ha":869,"x_min":101,"x_max":1135,"o":"m 872 1118 q 680 1024 782 1118 q 508 798 578 931 q 439 560 439 665 q 476 458 439 489 q 558 428 514 428 q 768 515 664 428 q 939 729 872 601 q 1006 969 1006 857 q 970 1079 1006 1040 q 872 1118 935 1118 m 1135 885 q 1000 510 1135 704 q 628 171 865 317 q 101 -22 390 25 l 101 -8 q 579 209 397 49 q 882 576 761 369 l 875 582 q 532 400 715 400 q 426 422 478 400 q 339 492 374 443 q 304 618 304 540 q 380 866 304 744 q 583 1064 456 988 q 858 1140 711 1140 q 1059 1071 983 1140 q 1135 885 1135 1001 z "}," ":{"ha":417,"x_min":0,"x_max":0,"o":""},"A":{"ha":1904,"x_min":-19,"x_max":2424,"o":"m 2424 1092 q 2146 1037 2257 1092 q 1944 869 2035 982 q 1711 529 1853 757 q 1495 237 1600 356 q 1261 48 1390 118 q 974 -22 1132 -22 l 961 -3 q 1176 57 1086 -1 q 1329 205 1267 115 q 1479 453 1392 294 q 1588 640 1561 596 q 1832 926 1692 810 q 2138 1081 1972 1043 l 2138 1090 q 1731 1021 1914 1085 q 1399 847 1549 957 q 1100 574 1249 736 q 768 229 894 349 q 515 44 642 110 q 247 -22 389 -22 q 110 5 171 -22 q 15 80 50 32 q -19 188 -19 128 q 8 272 -19 239 q 69 304 35 304 q 104 292 90 304 q 118 261 118 279 q 107 233 118 243 q 72 211 96 224 q 31 185 44 197 q 18 149 18 172 q 46 76 18 111 q 123 19 74 40 q 232 -3 172 -3 q 474 59 357 -3 q 715 243 590 121 q 1014 574 840 365 q 1522 974 1232 838 q 2213 1111 1811 1111 l 2424 1111 l 2424 1092 m 1967 569 q 1848 519 1926 542 q 1657 497 1769 497 q 1518 504 1589 497 q 1326 526 1447 511 q 1151 547 1215 540 q 1026 554 1086 554 q 842 539 924 554 q 718 503 760 524 l 708 521 q 1026 572 842 572 q 1164 565 1097 572 q 1349 543 1231 558 q 1657 514 1547 514 q 1839 534 1763 514 q 1958 582 1915 554 l 1967 569 z "},"Á":{"ha":1904,"x_min":-19,"x_max":2424,"o":"m 2424 1092 q 2146 1037 2257 1092 q 1944 869 2035 982 q 1711 529 1853 757 q 1495 237 1600 356 q 1261 48 1390 118 q 974 -22 1132 -22 l 961 -3 q 1176 57 1086 -1 q 1329 205 1267 115 q 1479 453 1392 294 q 1588 640 1561 596 q 1832 926 1692 810 q 2138 1081 1972 1043 l 2138 1090 q 1731 1021 1914 1085 q 1399 847 1549 957 q 1100 574 1249 736 q 768 229 894 349 q 515 44 642 110 q 247 -22 389 -22 q 110 5 171 -22 q 15 80 50 32 q -19 188 -19 128 q 8 272 -19 239 q 69 304 35 304 q 104 292 90 304 q 118 261 118 279 q 107 233 118 243 q 72 211 96 224 q 31 185 44 197 q 18 149 18 172 q 46 76 18 111 q 123 19 74 40 q 232 -3 172 -3 q 474 59 357 -3 q 715 243 590 121 q 1014 574 840 365 q 1522 974 1232 838 q 2213 1111 1811 1111 l 2424 1111 l 2424 1092 m 1967 569 q 1848 519 1926 542 q 1657 497 1769 497 q 1518 504 1589 497 q 1326 526 1447 511 q 1151 547 1215 540 q 1026 554 1086 554 q 842 539 924 554 q 718 503 760 524 l 708 521 q 1026 572 842 572 q 1164 565 1097 572 q 1349 543 1231 558 q 1657 514 1547 514 q 1839 534 1763 514 q 1958 582 1915 554 l 1967 569 m 2411 1325 q 2275 1232 2357 1278 q 2131 1165 2193 1186 l 2122 1169 q 2274 1261 2199 1203 q 2385 1369 2349 1319 l 2411 1325 z "},"Ă":{"ha":1904,"x_min":-19,"x_max":2444,"o":"m 2424 1092 q 2146 1037 2257 1092 q 1944 869 2035 982 q 1711 529 1853 757 q 1495 237 1600 356 q 1261 48 1390 118 q 974 -22 1132 -22 l 961 -3 q 1176 57 1086 -1 q 1329 205 1267 115 q 1479 453 1392 294 q 1588 640 1561 596 q 1832 926 1692 810 q 2138 1081 1972 1043 l 2138 1090 q 1731 1021 1914 1085 q 1399 847 1549 957 q 1100 574 1249 736 q 768 229 894 349 q 515 44 642 110 q 247 -22 389 -22 q 110 5 171 -22 q 15 80 50 32 q -19 188 -19 128 q 8 272 -19 239 q 69 304 35 304 q 104 292 90 304 q 118 261 118 279 q 107 233 118 243 q 72 211 96 224 q 31 185 44 197 q 18 149 18 172 q 46 76 18 111 q 123 19 74 40 q 232 -3 172 -3 q 474 59 357 -3 q 715 243 590 121 q 1014 574 840 365 q 1522 974 1232 838 q 2213 1111 1811 1111 l 2424 1111 l 2424 1092 m 1967 569 q 1848 519 1926 542 q 1657 497 1769 497 q 1518 504 1589 497 q 1326 526 1447 511 q 1151 547 1215 540 q 1026 554 1086 554 q 842 539 924 554 q 718 503 760 524 l 708 521 q 1026 572 842 572 q 1164 565 1097 572 q 1349 543 1231 558 q 1657 514 1547 514 q 1839 534 1763 514 q 1958 582 1915 554 l 1967 569 m 2444 1286 q 2369 1207 2414 1235 q 2271 1179 2325 1179 q 2194 1207 2224 1179 q 2165 1275 2165 1235 l 2174 1286 q 2202 1237 2176 1256 q 2276 1218 2228 1218 q 2435 1297 2388 1218 l 2444 1286 z "},"Â":{"ha":1904,"x_min":-19,"x_max":2424,"o":"m 2424 1092 q 2146 1037 2257 1092 q 1944 869 2035 982 q 1711 529 1853 757 q 1495 237 1600 356 q 1261 48 1390 118 q 974 -22 1132 -22 l 961 -3 q 1176 57 1086 -1 q 1329 205 1267 115 q 1479 453 1392 294 q 1588 640 1561 596 q 1832 926 1692 810 q 2138 1081 1972 1043 l 2138 1090 q 1731 1021 1914 1085 q 1399 847 1549 957 q 1100 574 1249 736 q 768 229 894 349 q 515 44 642 110 q 247 -22 389 -22 q 110 5 171 -22 q 15 80 50 32 q -19 188 -19 128 q 8 272 -19 239 q 69 304 35 304 q 104 292 90 304 q 118 261 118 279 q 107 233 118 243 q 72 211 96 224 q 31 185 44 197 q 18 149 18 172 q 46 76 18 111 q 123 19 74 40 q 232 -3 172 -3 q 474 59 357 -3 q 715 243 590 121 q 1014 574 840 365 q 1522 974 1232 838 q 2213 1111 1811 1111 l 2424 1111 l 2424 1092 m 1967 569 q 1848 519 1926 542 q 1657 497 1769 497 q 1518 504 1589 497 q 1326 526 1447 511 q 1151 547 1215 540 q 1026 554 1086 554 q 842 539 924 554 q 718 503 760 524 l 708 521 q 1026 572 842 572 q 1164 565 1097 572 q 1349 543 1231 558 q 1657 514 1547 514 q 1839 534 1763 514 q 1958 582 1915 554 l 1967 569 m 2381 1157 q 2348 1215 2363 1179 q 2328 1281 2333 1250 q 2209 1206 2292 1246 q 2075 1157 2126 1167 l 2042 1157 q 2353 1363 2233 1217 l 2365 1353 q 2364 1335 2365 1349 q 2363 1299 2363 1322 q 2392 1157 2363 1217 l 2381 1157 z "},"Ä":{"ha":1904,"x_min":-19,"x_max":2476,"o":"m 2424 1092 q 2146 1037 2257 1092 q 1944 869 2035 982 q 1711 529 1853 757 q 1495 237 1600 356 q 1261 48 1390 118 q 974 -22 1132 -22 l 961 -3 q 1176 57 1086 -1 q 1329 205 1267 115 q 1479 453 1392 294 q 1588 640 1561 596 q 1832 926 1692 810 q 2138 1081 1972 1043 l 2138 1090 q 1731 1021 1914 1085 q 1399 847 1549 957 q 1100 574 1249 736 q 768 229 894 349 q 515 44 642 110 q 247 -22 389 -22 q 110 5 171 -22 q 15 80 50 32 q -19 188 -19 128 q 8 272 -19 239 q 69 304 35 304 q 104 292 90 304 q 118 261 118 279 q 107 233 118 243 q 72 211 96 224 q 31 185 44 197 q 18 149 18 172 q 46 76 18 111 q 123 19 74 40 q 232 -3 172 -3 q 474 59 357 -3 q 715 243 590 121 q 1014 574 840 365 q 1522 974 1232 838 q 2213 1111 1811 1111 l 2424 1111 l 2424 1092 m 1967 569 q 1848 519 1926 542 q 1657 497 1769 497 q 1518 504 1589 497 q 1326 526 1447 511 q 1151 547 1215 540 q 1026 554 1086 554 q 842 539 924 554 q 718 503 760 524 l 708 521 q 1026 572 842 572 q 1164 565 1097 572 q 1349 543 1231 558 q 1657 514 1547 514 q 1839 534 1763 514 q 1958 582 1915 554 l 1967 569 m 2256 1343 q 2272 1328 2272 1343 q 2264 1301 2272 1318 q 2190 1222 2242 1261 q 2107 1182 2138 1182 q 2090 1200 2090 1182 q 2097 1224 2090 1207 q 2172 1303 2119 1263 q 2256 1343 2225 1343 m 2457 1343 q 2476 1328 2476 1343 q 2467 1301 2476 1321 q 2391 1222 2444 1263 q 2307 1182 2338 1182 q 2289 1200 2289 1182 q 2294 1222 2289 1211 q 2372 1303 2318 1263 q 2457 1343 2426 1343 z "},"À":{"ha":1904,"x_min":-19,"x_max":2424,"o":"m 2424 1092 q 2146 1037 2257 1092 q 1944 869 2035 982 q 1711 529 1853 757 q 1495 237 1600 356 q 1261 48 1390 118 q 974 -22 1132 -22 l 961 -3 q 1176 57 1086 -1 q 1329 205 1267 115 q 1479 453 1392 294 q 1588 640 1561 596 q 1832 926 1692 810 q 2138 1081 1972 1043 l 2138 1090 q 1731 1021 1914 1085 q 1399 847 1549 957 q 1100 574 1249 736 q 768 229 894 349 q 515 44 642 110 q 247 -22 389 -22 q 110 5 171 -22 q 15 80 50 32 q -19 188 -19 128 q 8 272 -19 239 q 69 304 35 304 q 104 292 90 304 q 118 261 118 279 q 107 233 118 243 q 72 211 96 224 q 31 185 44 197 q 18 149 18 172 q 46 76 18 111 q 123 19 74 40 q 232 -3 172 -3 q 474 59 357 -3 q 715 243 590 121 q 1014 574 840 365 q 1522 974 1232 838 q 2213 1111 1811 1111 l 2424 1111 l 2424 1092 m 1967 569 q 1848 519 1926 542 q 1657 497 1769 497 q 1518 504 1589 497 q 1326 526 1447 511 q 1151 547 1215 540 q 1026 554 1086 554 q 842 539 924 554 q 718 503 760 524 l 708 521 q 1026 572 842 572 q 1164 565 1097 572 q 1349 543 1231 558 q 1657 514 1547 514 q 1839 534 1763 514 q 1958 582 1915 554 l 1967 569 m 2154 1369 q 2265 1261 2190 1319 q 2417 1169 2340 1203 l 2408 1165 q 2264 1232 2346 1186 q 2128 1325 2182 1278 l 2154 1369 z "},"Ā":{"ha":1904,"x_min":-19,"x_max":2432,"o":"m 2424 1092 q 2146 1037 2257 1092 q 1944 869 2035 982 q 1711 529 1853 757 q 1495 237 1600 356 q 1261 48 1390 118 q 974 -22 1132 -22 l 961 -3 q 1176 57 1086 -1 q 1329 205 1267 115 q 1479 453 1392 294 q 1588 640 1561 596 q 1832 926 1692 810 q 2138 1081 1972 1043 l 2138 1090 q 1731 1021 1914 1085 q 1399 847 1549 957 q 1100 574 1249 736 q 768 229 894 349 q 515 44 642 110 q 247 -22 389 -22 q 110 5 171 -22 q 15 80 50 32 q -19 188 -19 128 q 8 272 -19 239 q 69 304 35 304 q 104 292 90 304 q 118 261 118 279 q 107 233 118 243 q 72 211 96 224 q 31 185 44 197 q 18 149 18 172 q 46 76 18 111 q 123 19 74 40 q 232 -3 172 -3 q 474 59 357 -3 q 715 243 590 121 q 1014 574 840 365 q 1522 974 1232 838 q 2213 1111 1811 1111 l 2424 1111 l 2424 1092 m 1967 569 q 1848 519 1926 542 q 1657 497 1769 497 q 1518 504 1589 497 q 1326 526 1447 511 q 1151 547 1215 540 q 1026 554 1086 554 q 842 539 924 554 q 718 503 760 524 l 708 521 q 1026 572 842 572 q 1164 565 1097 572 q 1349 543 1231 558 q 1657 514 1547 514 q 1839 534 1763 514 q 1958 582 1915 554 l 1967 569 m 2418 1189 l 2110 1189 l 2144 1224 l 2432 1224 l 2418 1189 z "},"Ą":{"ha":1904,"x_min":-19,"x_max":2424,"o":"m 2424 1092 q 2146 1037 2257 1092 q 1944 869 2035 982 q 1711 529 1853 757 q 1495 237 1600 356 q 1261 48 1390 118 q 974 -22 1132 -22 l 961 -3 q 1176 57 1086 -1 q 1329 205 1267 115 q 1479 453 1392 294 q 1588 640 1561 596 q 1832 926 1692 810 q 2138 1081 1972 1043 l 2138 1090 q 1731 1021 1914 1085 q 1399 847 1549 957 q 1100 574 1249 736 q 768 229 894 349 q 515 44 642 110 q 247 -22 389 -22 q 110 5 171 -22 q 15 80 50 32 q -19 188 -19 128 q 8 272 -19 239 q 69 304 35 304 q 104 292 90 304 q 118 261 118 279 q 107 233 118 243 q 72 211 96 224 q 31 185 44 197 q 18 149 18 172 q 46 76 18 111 q 123 19 74 40 q 232 -3 172 -3 q 474 59 357 -3 q 715 243 590 121 q 1014 574 840 365 q 1522 974 1232 838 q 2213 1111 1811 1111 l 2424 1111 l 2424 1092 m 1967 569 q 1848 519 1926 542 q 1657 497 1769 497 q 1518 504 1589 497 q 1326 526 1447 511 q 1151 547 1215 540 q 1026 554 1086 554 q 842 539 924 554 q 718 503 760 524 l 708 521 q 1026 572 842 572 q 1164 565 1097 572 q 1349 543 1231 558 q 1657 514 1547 514 q 1839 534 1763 514 q 1958 582 1915 554 l 1967 569 m 885 -167 q 901 -105 885 -132 q 953 -40 918 -78 q 986 -10 964 -29 l 999 -10 q 964 -56 992 -17 q 925 -153 925 -110 q 945 -202 925 -185 q 994 -219 965 -219 q 1054 -199 1021 -219 l 1057 -206 q 1032 -244 1054 -226 q 975 -262 1010 -262 q 913 -239 942 -262 q 885 -167 885 -215 z "},"Å":{"ha":1904,"x_min":-19,"x_max":2424,"o":"m 2424 1092 q 2146 1037 2257 1092 q 1944 869 2035 982 q 1711 529 1853 757 q 1495 237 1600 356 q 1261 48 1390 118 q 974 -22 1132 -22 l 961 -3 q 1176 57 1086 -1 q 1329 205 1267 115 q 1479 453 1392 294 q 1588 640 1561 596 q 1832 926 1692 810 q 2138 1081 1972 1043 l 2138 1090 q 1731 1021 1914 1085 q 1399 847 1549 957 q 1100 574 1249 736 q 768 229 894 349 q 515 44 642 110 q 247 -22 389 -22 q 110 5 171 -22 q 15 80 50 32 q -19 188 -19 128 q 8 272 -19 239 q 69 304 35 304 q 104 292 90 304 q 118 261 118 279 q 107 233 118 243 q 72 211 96 224 q 31 185 44 197 q 18 149 18 172 q 46 76 18 111 q 123 19 74 40 q 232 -3 172 -3 q 474 59 357 -3 q 715 243 590 121 q 1014 574 840 365 q 1522 974 1232 838 q 2213 1111 1811 1111 l 2424 1111 l 2424 1092 m 1967 569 q 1848 519 1926 542 q 1657 497 1769 497 q 1518 504 1589 497 q 1326 526 1447 511 q 1151 547 1215 540 q 1026 554 1086 554 q 842 539 924 554 q 718 503 760 524 l 708 521 q 1026 572 842 572 q 1164 565 1097 572 q 1349 543 1231 558 q 1657 514 1547 514 q 1839 534 1763 514 q 1958 582 1915 554 l 1967 569 m 2351 1354 q 2392 1322 2392 1354 q 2363 1258 2392 1293 q 2294 1200 2335 1224 q 2219 1176 2253 1176 q 2185 1189 2197 1176 q 2178 1221 2174 1201 q 2215 1281 2185 1249 q 2283 1333 2244 1313 q 2351 1354 2321 1354 m 2360 1344 q 2307 1322 2340 1344 q 2243 1268 2274 1300 q 2203 1211 2213 1236 q 2201 1200 2201 1207 q 2213 1186 2201 1186 q 2265 1208 2232 1186 q 2328 1262 2299 1231 q 2368 1317 2358 1293 q 2371 1332 2371 1328 q 2360 1344 2371 1344 z "},"Ã":{"ha":1904,"x_min":-19,"x_max":2456,"o":"m 2424 1092 q 2146 1037 2257 1092 q 1944 869 2035 982 q 1711 529 1853 757 q 1495 237 1600 356 q 1261 48 1390 118 q 974 -22 1132 -22 l 961 -3 q 1176 57 1086 -1 q 1329 205 1267 115 q 1479 453 1392 294 q 1588 640 1561 596 q 1832 926 1692 810 q 2138 1081 1972 1043 l 2138 1090 q 1731 1021 1914 1085 q 1399 847 1549 957 q 1100 574 1249 736 q 768 229 894 349 q 515 44 642 110 q 247 -22 389 -22 q 110 5 171 -22 q 15 80 50 32 q -19 188 -19 128 q 8 272 -19 239 q 69 304 35 304 q 104 292 90 304 q 118 261 118 279 q 107 233 118 243 q 72 211 96 224 q 31 185 44 197 q 18 149 18 172 q 46 76 18 111 q 123 19 74 40 q 232 -3 172 -3 q 474 59 357 -3 q 715 243 590 121 q 1014 574 840 365 q 1522 974 1232 838 q 2213 1111 1811 1111 l 2424 1111 l 2424 1092 m 1967 569 q 1848 519 1926 542 q 1657 497 1769 497 q 1518 504 1589 497 q 1326 526 1447 511 q 1151 547 1215 540 q 1026 554 1086 554 q 842 539 924 554 q 718 503 760 524 l 708 521 q 1026 572 842 572 q 1164 565 1097 572 q 1349 543 1231 558 q 1657 514 1547 514 q 1839 534 1763 514 q 1958 582 1915 554 l 1967 569 m 2228 1250 q 2269 1242 2242 1250 q 2301 1232 2296 1233 q 2369 1214 2353 1214 q 2406 1222 2383 1214 q 2449 1240 2429 1231 l 2456 1236 q 2406 1208 2417 1214 q 2324 1183 2357 1183 q 2257 1201 2299 1183 q 2222 1213 2239 1208 q 2189 1218 2204 1218 q 2148 1210 2172 1218 q 2100 1193 2124 1203 l 2093 1197 q 2148 1225 2097 1200 q 2228 1250 2199 1250 z "},"Æ":{"ha":2497,"x_min":-19,"x_max":2608,"o":"m 2404 1114 q 2147 1053 2254 1111 q 1944 878 2039 996 q 1711 538 1849 760 q 1494 242 1599 363 q 1260 50 1390 122 q 974 -22 1131 -22 l 961 -3 q 1176 57 1086 -1 q 1329 205 1267 115 q 1479 453 1392 294 q 1588 640 1561 596 q 1835 938 1696 815 q 2138 1096 1975 1060 l 2138 1106 q 1733 1033 1915 1100 q 1402 853 1551 967 q 1100 574 1253 739 q 768 229 894 349 q 515 44 642 110 q 247 -22 389 -22 q 110 5 171 -22 q 15 80 50 32 q -19 188 -19 128 q 8 272 -19 239 q 69 304 35 304 q 104 292 90 304 q 118 261 118 279 q 107 233 118 243 q 72 211 96 224 q 31 185 44 197 q 18 149 18 172 q 46 76 18 111 q 123 19 74 40 q 232 -3 172 -3 q 474 59 357 -3 q 715 243 590 121 q 1014 574 840 365 q 1413 924 1203 801 q 1819 1089 1624 1047 q 2217 1132 2014 1131 l 2404 1133 l 2404 1114 m 1908 567 q 1792 510 1864 536 q 1629 483 1719 483 q 1491 492 1560 483 q 1313 518 1422 500 q 1147 543 1210 535 q 1025 551 1085 551 q 840 536 922 551 q 717 500 758 521 l 707 517 q 1025 569 843 569 q 1160 561 1096 569 q 1333 535 1225 553 q 1494 509 1426 518 q 1629 500 1561 500 q 1782 524 1711 500 q 1900 579 1853 549 l 1908 567 m 2282 619 q 1941 554 2124 617 q 1633 381 1758 492 q 1507 132 1507 269 q 1553 28 1507 60 q 1676 -3 1600 -3 q 1930 55 1793 -3 q 2161 208 2067 113 q 2256 413 2256 304 q 2239 463 2256 446 q 2186 479 2222 479 q 2025 420 2101 479 q 1902 275 1949 361 q 1856 117 1856 189 q 1885 29 1856 61 q 1972 -3 1914 -3 q 2226 82 2092 -3 q 2513 321 2361 167 l 2535 321 q 2238 66 2378 154 q 1972 -22 2097 -22 q 1865 16 1900 -22 q 1829 118 1829 54 q 1883 297 1829 201 q 2031 456 1938 392 q 2235 521 2125 521 q 2331 493 2299 521 q 2364 421 2364 465 q 2244 218 2364 322 q 1954 46 2125 114 q 1647 -22 1783 -22 q 1447 26 1528 -22 q 1365 171 1365 74 q 1474 401 1365 301 q 1756 558 1583 501 q 2114 621 1929 614 l 2115 632 q 1924 669 2000 632 q 1847 793 1847 707 q 1938 971 1847 893 q 2163 1091 2028 1049 q 2424 1133 2297 1133 q 2565 1101 2522 1133 q 2608 1019 2608 1068 q 2483 843 2608 928 q 2174 706 2357 758 q 1832 654 1990 654 q 1628 708 1713 654 q 1544 893 1544 763 l 1565 901 q 1624 739 1565 807 q 1832 671 1683 671 q 2168 731 2014 671 q 2413 881 2322 792 q 2503 1050 2503 971 q 2413 1114 2503 1114 q 2204 1066 2318 1114 q 2013 944 2090 1018 q 1935 793 1935 869 q 1982 687 1935 721 q 2099 644 2029 653 q 2285 636 2169 636 l 2282 619 z "},"B":{"ha":1558,"x_min":-28,"x_max":1663,"o":"m 1135 606 q 1357 644 1274 606 q 1474 741 1440 683 q 1508 858 1508 799 q 1428 1040 1508 974 q 1140 1106 1349 1106 q 896 1053 1007 1106 q 710 924 785 1000 q 601 775 635 847 l 579 775 q 690 933 613 853 q 888 1069 768 1014 q 1157 1125 1008 1125 q 1449 1085 1340 1125 q 1602 987 1558 1046 q 1646 864 1646 928 q 1601 740 1646 797 q 1483 645 1557 682 q 1324 599 1410 608 l 1324 590 q 1474 501 1414 561 q 1533 325 1533 440 q 1486 159 1533 239 q 1347 28 1439 79 q 1132 -22 1256 -22 q 910 35 1011 -22 q 746 172 808 92 l 764 190 q 918 63 829 111 q 1107 14 1007 14 q 1316 98 1238 14 q 1394 326 1394 182 q 1325 518 1394 450 q 1140 586 1256 586 l 1135 606 m 1663 1094 q 1386 1032 1500 1093 q 1179 861 1272 971 q 924 518 1086 751 q 660 194 778 313 q 437 27 543 76 q 213 -22 331 -22 q 76 7 129 -22 q -3 83 22 36 q -28 182 -28 129 q -1 269 -28 235 q 60 304 26 304 q 96 292 82 304 q 110 261 110 279 q 99 235 110 244 q 65 213 88 225 q 22 181 36 196 q 8 139 8 167 q 33 70 8 103 q 102 17 58 38 q 200 -3 146 -3 q 374 56 293 -3 q 521 202 454 114 q 688 446 588 290 q 779 586 739 526 q 1007 865 890 753 q 1285 1044 1124 978 q 1663 1111 1446 1111 l 1663 1094 z "},"C":{"ha":1194,"x_min":96,"x_max":1310,"o":"m 424 -22 q 245 17 319 -22 q 133 124 171 57 q 96 271 96 190 q 262 658 96 456 q 667 997 428 861 q 1100 1133 906 1133 q 1258 1097 1207 1133 q 1310 1001 1310 1060 q 1260 894 1310 946 q 1117 810 1210 842 q 907 778 1025 778 q 733 804 818 778 q 584 887 649 831 q 494 1029 519 943 l 514 1036 q 653 857 547 917 q 906 797 760 797 q 1065 827 996 797 q 1173 906 1135 857 q 1211 1013 1211 956 q 1179 1086 1211 1058 q 1083 1114 1147 1114 q 726 963 922 1114 q 392 593 529 813 q 256 185 256 374 q 313 41 256 85 q 439 -3 371 -3 q 660 63 544 -3 q 851 224 775 128 q 928 407 928 321 q 860 479 928 479 q 697 421 774 479 q 575 278 621 363 q 529 122 529 193 q 564 26 529 56 q 664 -3 599 -3 q 924 82 789 -3 q 1210 321 1060 167 l 1232 321 q 931 67 1076 156 q 660 -22 786 -22 q 548 12 590 -22 q 506 122 506 46 q 560 301 506 207 q 706 458 614 394 q 903 521 797 521 q 998 495 960 521 q 1036 418 1036 469 q 939 219 1036 322 q 697 47 842 115 q 424 -22 553 -22 z "},"Ć":{"ha":1194,"x_min":96,"x_max":1439,"o":"m 424 -22 q 245 17 319 -22 q 133 124 171 57 q 96 271 96 190 q 262 658 96 456 q 667 997 428 861 q 1100 1133 906 1133 q 1258 1097 1207 1133 q 1310 1001 1310 1060 q 1260 894 1310 946 q 1117 810 1210 842 q 907 778 1025 778 q 733 804 818 778 q 584 887 649 831 q 494 1029 519 943 l 514 1036 q 653 857 547 917 q 906 797 760 797 q 1065 827 996 797 q 1173 906 1135 857 q 1211 1013 1211 956 q 1179 1086 1211 1058 q 1083 1114 1147 1114 q 726 963 922 1114 q 392 593 529 813 q 256 185 256 374 q 313 41 256 85 q 439 -3 371 -3 q 660 63 544 -3 q 851 224 775 128 q 928 407 928 321 q 860 479 928 479 q 697 421 774 479 q 575 278 621 363 q 529 122 529 193 q 564 26 529 56 q 664 -3 599 -3 q 924 82 789 -3 q 1210 321 1060 167 l 1232 321 q 931 67 1076 156 q 660 -22 786 -22 q 548 12 590 -22 q 506 122 506 46 q 560 301 506 207 q 706 458 614 394 q 903 521 797 521 q 998 495 960 521 q 1036 418 1036 469 q 939 219 1036 322 q 697 47 842 115 q 424 -22 553 -22 m 1439 1325 q 1303 1232 1385 1278 q 1158 1165 1221 1186 l 1150 1169 q 1301 1261 1226 1203 q 1413 1369 1376 1319 l 1439 1325 z "},"Č":{"ha":1194,"x_min":96,"x_max":1547,"o":"m 424 -22 q 245 17 319 -22 q 133 124 171 57 q 96 271 96 190 q 262 658 96 456 q 667 997 428 861 q 1100 1133 906 1133 q 1258 1097 1207 1133 q 1310 1001 1310 1060 q 1260 894 1310 946 q 1117 810 1210 842 q 907 778 1025 778 q 733 804 818 778 q 584 887 649 831 q 494 1029 519 943 l 514 1036 q 653 857 547 917 q 906 797 760 797 q 1065 827 996 797 q 1173 906 1135 857 q 1211 1013 1211 956 q 1179 1086 1211 1058 q 1083 1114 1147 1114 q 726 963 922 1114 q 392 593 529 813 q 256 185 256 374 q 313 41 256 85 q 439 -3 371 -3 q 660 63 544 -3 q 851 224 775 128 q 928 407 928 321 q 860 479 928 479 q 697 421 774 479 q 575 278 621 363 q 529 122 529 193 q 564 26 529 56 q 664 -3 599 -3 q 924 82 789 -3 q 1210 321 1060 167 l 1232 321 q 931 67 1076 156 q 660 -22 786 -22 q 548 12 590 -22 q 506 122 506 46 q 560 301 506 207 q 706 458 614 394 q 903 521 797 521 q 998 495 960 521 q 1036 418 1036 469 q 939 219 1036 322 q 697 47 842 115 q 424 -22 553 -22 m 1208 1378 q 1241 1320 1226 1356 q 1261 1254 1256 1285 q 1381 1328 1297 1289 q 1514 1378 1464 1368 l 1547 1378 q 1236 1172 1356 1318 l 1224 1182 q 1225 1199 1224 1186 q 1226 1236 1226 1213 q 1197 1378 1226 1318 l 1208 1378 z "},"Ç":{"ha":1194,"x_min":96,"x_max":1310,"o":"m 424 -22 q 245 17 319 -22 q 133 124 171 57 q 96 271 96 190 q 262 658 96 456 q 667 997 428 861 q 1100 1133 906 1133 q 1258 1097 1207 1133 q 1310 1001 1310 1060 q 1260 894 1310 946 q 1117 810 1210 842 q 907 778 1025 778 q 733 804 818 778 q 584 887 649 831 q 494 1029 519 943 l 514 1036 q 653 857 547 917 q 906 797 760 797 q 1065 827 996 797 q 1173 906 1135 857 q 1211 1013 1211 956 q 1179 1086 1211 1058 q 1083 1114 1147 1114 q 726 963 922 1114 q 392 593 529 813 q 256 185 256 374 q 313 41 256 85 q 439 -3 371 -3 q 660 63 544 -3 q 851 224 775 128 q 928 407 928 321 q 860 479 928 479 q 697 421 774 479 q 575 278 621 363 q 529 122 529 193 q 564 26 529 56 q 664 -3 599 -3 q 924 82 789 -3 q 1210 321 1060 167 l 1232 321 q 931 67 1076 156 q 660 -22 786 -22 q 548 12 590 -22 q 506 122 506 46 q 560 301 506 207 q 706 458 614 394 q 903 521 797 521 q 998 495 960 521 q 1036 418 1036 469 q 939 219 1036 322 q 697 47 842 115 q 424 -22 553 -22 m 300 -103 q 349 -135 331 -119 q 390 -212 390 -172 q 373 -253 390 -237 q 324 -269 356 -269 q 265 -254 299 -269 q 213 -224 232 -239 l 219 -217 q 254 -235 240 -229 q 285 -242 268 -242 q 332 -224 314 -242 q 350 -182 350 -207 q 336 -143 350 -160 q 285 -103 322 -126 l 300 -103 m 368 0 l 300 -103 l 285 -103 l 336 0 l 368 0 z "},"Ĉ":{"ha":1194,"x_min":96,"x_max":1419,"o":"m 424 -22 q 245 17 319 -22 q 133 124 171 57 q 96 271 96 190 q 262 658 96 456 q 667 997 428 861 q 1100 1133 906 1133 q 1258 1097 1207 1133 q 1310 1001 1310 1060 q 1260 894 1310 946 q 1117 810 1210 842 q 907 778 1025 778 q 733 804 818 778 q 584 887 649 831 q 494 1029 519 943 l 514 1036 q 653 857 547 917 q 906 797 760 797 q 1065 827 996 797 q 1173 906 1135 857 q 1211 1013 1211 956 q 1179 1086 1211 1058 q 1083 1114 1147 1114 q 726 963 922 1114 q 392 593 529 813 q 256 185 256 374 q 313 41 256 85 q 439 -3 371 -3 q 660 63 544 -3 q 851 224 775 128 q 928 407 928 321 q 860 479 928 479 q 697 421 774 479 q 575 278 621 363 q 529 122 529 193 q 564 26 529 56 q 664 -3 599 -3 q 924 82 789 -3 q 1210 321 1060 167 l 1232 321 q 931 67 1076 156 q 660 -22 786 -22 q 548 12 590 -22 q 506 122 506 46 q 560 301 506 207 q 706 458 614 394 q 903 521 797 521 q 998 495 960 521 q 1036 418 1036 469 q 939 219 1036 322 q 697 47 842 115 q 424 -22 553 -22 m 1408 1157 q 1376 1215 1390 1179 q 1356 1281 1361 1250 q 1237 1206 1319 1246 q 1103 1157 1154 1167 l 1069 1157 q 1381 1363 1261 1217 l 1393 1353 q 1392 1335 1393 1349 q 1390 1299 1390 1322 q 1419 1157 1390 1217 l 1408 1157 z "},"Ċ":{"ha":1194,"x_min":96,"x_max":1404,"o":"m 424 -22 q 245 17 319 -22 q 133 124 171 57 q 96 271 96 190 q 262 658 96 456 q 667 997 428 861 q 1100 1133 906 1133 q 1258 1097 1207 1133 q 1310 1001 1310 1060 q 1260 894 1310 946 q 1117 810 1210 842 q 907 778 1025 778 q 733 804 818 778 q 584 887 649 831 q 494 1029 519 943 l 514 1036 q 653 857 547 917 q 906 797 760 797 q 1065 827 996 797 q 1173 906 1135 857 q 1211 1013 1211 956 q 1179 1086 1211 1058 q 1083 1114 1147 1114 q 726 963 922 1114 q 392 593 529 813 q 256 185 256 374 q 313 41 256 85 q 439 -3 371 -3 q 660 63 544 -3 q 851 224 775 128 q 928 407 928 321 q 860 479 928 479 q 697 421 774 479 q 575 278 621 363 q 529 122 529 193 q 564 26 529 56 q 664 -3 599 -3 q 924 82 789 -3 q 1210 321 1060 167 l 1232 321 q 931 67 1076 156 q 660 -22 786 -22 q 548 12 590 -22 q 506 122 506 46 q 560 301 506 207 q 706 458 614 394 q 903 521 797 521 q 998 495 960 521 q 1036 418 1036 469 q 939 219 1036 322 q 697 47 842 115 q 424 -22 553 -22 m 1386 1343 q 1404 1328 1404 1343 q 1396 1301 1404 1318 q 1319 1222 1372 1261 q 1235 1182 1265 1182 q 1217 1200 1217 1182 q 1224 1222 1217 1208 q 1301 1303 1247 1263 q 1386 1343 1356 1343 z "},"D":{"ha":1510,"x_min":-22,"x_max":1857,"o":"m 1857 1115 q 1501 1035 1654 1117 q 1242 833 1347 953 q 997 515 1138 714 q 778 228 869 333 q 562 50 688 122 q 275 -22 436 -22 q 117 6 185 -22 q 14 78 50 33 q -22 172 -22 122 q 23 277 -22 233 q 157 321 68 321 q 296 299 232 321 q 410 246 360 278 q 533 160 460 214 q 657 74 606 106 q 774 19 708 42 q 917 -3 840 -3 q 1190 71 1069 -3 q 1379 274 1311 144 q 1447 560 1447 403 q 1375 860 1447 735 q 1181 1049 1303 985 q 911 1114 1060 1114 q 669 1064 779 1114 q 484 935 558 1014 q 375 771 410 856 l 353 771 q 465 947 388 864 q 660 1081 543 1029 q 921 1133 776 1133 q 1261 1065 1106 1133 q 1509 867 1417 996 q 1601 567 1601 739 q 1505 255 1601 389 q 1249 49 1408 121 q 908 -22 1090 -22 q 636 14 753 -22 q 446 98 519 50 q 292 215 372 146 q 206 281 236 261 q 144 301 175 301 q 81 260 100 301 q 61 168 61 219 q 115 42 61 88 q 257 -3 169 -3 q 451 52 365 -3 q 601 190 536 107 q 760 422 665 274 q 1024 786 901 644 q 1352 1031 1146 928 q 1857 1133 1558 1133 l 1857 1115 z "},"Ð":{"ha":1510,"x_min":-22,"x_max":1857,"o":"m 1857 1114 q 1508 1032 1658 1114 q 1254 833 1358 950 q 1010 518 1150 715 q 788 230 881 336 q 567 51 694 124 q 275 -22 439 -22 q 117 6 185 -22 q 14 78 50 33 q -22 172 -22 122 q 23 277 -22 233 q 157 321 68 321 q 296 299 232 321 q 410 246 360 278 q 533 160 460 214 q 657 74 606 106 q 774 19 708 42 q 917 -3 840 -3 q 1190 71 1069 -3 q 1379 274 1311 144 q 1447 560 1447 403 q 1375 860 1447 735 q 1181 1049 1303 985 q 911 1114 1060 1114 q 669 1064 779 1114 q 484 935 558 1014 q 375 771 410 856 l 353 771 q 465 947 388 864 q 660 1081 543 1029 q 921 1133 776 1133 q 1261 1065 1106 1133 q 1509 867 1417 996 q 1601 567 1601 739 q 1505 255 1601 389 q 1249 49 1408 121 q 908 -22 1090 -22 q 626 16 749 -22 q 427 105 504 54 q 268 225 350 156 q 194 283 221 265 q 144 301 168 301 q 83 259 100 301 q 65 168 65 217 q 118 42 65 86 q 257 -3 171 -3 q 451 52 365 -3 q 601 190 536 107 q 760 422 665 274 q 1024 786 901 644 q 1352 1031 1146 928 q 1857 1133 1558 1133 l 1857 1114 m 1097 478 q 1005 485 1049 478 q 906 507 961 493 q 804 528 846 521 q 715 535 763 535 l 715 554 q 814 547 772 554 q 925 524 856 540 q 1017 503 981 510 q 1097 496 1053 496 l 1097 478 z "},"Ď":{"ha":1510,"x_min":-22,"x_max":1857,"o":"m 1857 1115 q 1501 1035 1654 1117 q 1242 833 1347 953 q 997 515 1138 714 q 778 228 869 333 q 562 50 688 122 q 275 -22 436 -22 q 117 6 185 -22 q 14 78 50 33 q -22 172 -22 122 q 23 277 -22 233 q 157 321 68 321 q 296 299 232 321 q 410 246 360 278 q 533 160 460 214 q 657 74 606 106 q 774 19 708 42 q 917 -3 840 -3 q 1190 71 1069 -3 q 1379 274 1311 144 q 1447 560 1447 403 q 1375 860 1447 735 q 1181 1049 1303 985 q 911 1114 1060 1114 q 669 1064 779 1114 q 484 935 558 1014 q 375 771 410 856 l 353 771 q 465 947 388 864 q 660 1081 543 1029 q 921 1133 776 1133 q 1261 1065 1106 1133 q 1509 867 1417 996 q 1601 567 1601 739 q 1505 255 1601 389 q 1249 49 1408 121 q 908 -22 1090 -22 q 636 14 753 -22 q 446 98 519 50 q 292 215 372 146 q 206 281 236 261 q 144 301 175 301 q 81 260 100 301 q 61 168 61 219 q 115 42 61 88 q 257 -3 169 -3 q 451 52 365 -3 q 601 190 536 107 q 760 422 665 274 q 1024 786 901 644 q 1352 1031 1146 928 q 1857 1133 1558 1133 l 1857 1115 m 1389 1378 q 1422 1320 1407 1356 q 1442 1254 1436 1285 q 1561 1328 1478 1289 q 1694 1378 1644 1368 l 1728 1378 q 1417 1172 1536 1318 l 1404 1182 q 1406 1199 1404 1186 q 1407 1236 1407 1213 q 1378 1378 1407 1318 l 1389 1378 z "},"Đ":{"ha":1510,"x_min":-22,"x_max":1857,"o":"m 1857 1115 q 1508 1033 1658 1115 q 1254 834 1358 951 q 1010 519 1150 717 q 788 231 881 338 q 567 51 694 124 q 275 -22 439 -22 q 117 6 185 -22 q 14 78 50 33 q -22 172 -22 122 q 23 277 -22 233 q 157 321 68 321 q 296 299 232 321 q 410 246 360 278 q 533 160 460 214 q 657 74 606 106 q 774 19 708 42 q 917 -3 840 -3 q 1190 71 1069 -3 q 1379 274 1311 144 q 1447 560 1447 403 q 1375 860 1447 735 q 1181 1049 1303 985 q 911 1114 1060 1114 q 669 1064 779 1114 q 484 935 558 1014 q 375 771 410 856 l 353 771 q 465 947 388 864 q 660 1081 543 1029 q 921 1133 776 1133 q 1261 1065 1106 1133 q 1509 867 1417 996 q 1601 567 1601 739 q 1505 255 1601 389 q 1249 49 1408 121 q 908 -22 1090 -22 q 626 16 749 -22 q 427 105 504 54 q 268 225 350 156 q 194 283 221 265 q 144 301 168 301 q 83 259 100 301 q 65 168 65 217 q 118 42 65 86 q 257 -3 171 -3 q 451 52 365 -3 q 601 190 536 107 q 760 422 665 274 q 1024 786 901 644 q 1352 1031 1146 928 q 1857 1133 1558 1133 l 1857 1115 m 1097 457 q 1007 469 1049 457 q 906 507 965 482 q 803 544 843 532 q 715 556 763 556 l 715 575 q 819 561 774 575 q 925 521 864 547 q 1017 485 981 496 q 1097 474 1053 474 l 1097 457 z "},"E":{"ha":1260,"x_min":128,"x_max":1457,"o":"m 1129 619 q 767 554 967 617 q 427 379 568 492 q 286 125 286 267 q 439 -3 286 -3 q 692 55 556 -3 q 924 208 829 113 q 1018 413 1018 304 q 1001 463 1018 446 q 949 479 985 479 q 788 420 864 479 q 665 275 711 361 q 618 117 618 189 q 647 29 618 61 q 735 -3 676 -3 q 989 82 854 -3 q 1275 321 1124 167 l 1297 321 q 1000 66 1140 154 q 735 -22 860 -22 q 627 16 663 -22 q 592 118 592 54 q 646 297 592 201 q 794 456 700 392 q 997 521 888 521 q 1094 493 1061 521 q 1126 421 1126 465 q 1007 218 1126 322 q 717 46 888 114 q 410 -22 546 -22 q 209 26 290 -22 q 128 172 128 75 q 256 401 128 301 q 578 558 385 501 q 961 621 772 614 l 963 632 q 772 669 849 632 q 694 793 694 707 q 785 971 694 893 q 1010 1091 875 1049 q 1271 1133 1144 1133 q 1413 1101 1369 1133 q 1457 1019 1457 1068 q 1337 850 1457 928 q 1038 727 1217 772 q 700 682 860 682 q 497 736 581 682 q 413 921 413 790 l 433 929 q 492 767 433 835 q 700 699 551 699 q 1032 753 883 699 q 1265 889 1181 807 q 1350 1050 1350 971 q 1260 1114 1350 1114 q 1071 1059 1168 1114 q 910 923 974 1004 q 846 771 846 842 q 917 666 846 696 q 1132 636 989 636 l 1129 619 z "},"É":{"ha":1260,"x_min":128,"x_max":1494,"o":"m 1129 619 q 767 554 967 617 q 427 379 568 492 q 286 125 286 267 q 439 -3 286 -3 q 692 55 556 -3 q 924 208 829 113 q 1018 413 1018 304 q 1001 463 1018 446 q 949 479 985 479 q 788 420 864 479 q 665 275 711 361 q 618 117 618 189 q 647 29 618 61 q 735 -3 676 -3 q 989 82 854 -3 q 1275 321 1124 167 l 1297 321 q 1000 66 1140 154 q 735 -22 860 -22 q 627 16 663 -22 q 592 118 592 54 q 646 297 592 201 q 794 456 700 392 q 997 521 888 521 q 1094 493 1061 521 q 1126 421 1126 465 q 1007 218 1126 322 q 717 46 888 114 q 410 -22 546 -22 q 209 26 290 -22 q 128 172 128 75 q 256 401 128 301 q 578 558 385 501 q 961 621 772 614 l 963 632 q 772 669 849 632 q 694 793 694 707 q 785 971 694 893 q 1010 1091 875 1049 q 1271 1133 1144 1133 q 1413 1101 1369 1133 q 1457 1019 1457 1068 q 1337 850 1457 928 q 1038 727 1217 772 q 700 682 860 682 q 497 736 581 682 q 413 921 413 790 l 433 929 q 492 767 433 835 q 700 699 551 699 q 1032 753 883 699 q 1265 889 1181 807 q 1350 1050 1350 971 q 1260 1114 1350 1114 q 1071 1059 1168 1114 q 910 923 974 1004 q 846 771 846 842 q 917 666 846 696 q 1132 636 989 636 l 1129 619 m 1494 1325 q 1358 1232 1440 1278 q 1214 1165 1276 1186 l 1206 1169 q 1357 1261 1282 1203 q 1468 1369 1432 1319 l 1494 1325 z "},"Ě":{"ha":1260,"x_min":128,"x_max":1603,"o":"m 1129 619 q 767 554 967 617 q 427 379 568 492 q 286 125 286 267 q 439 -3 286 -3 q 692 55 556 -3 q 924 208 829 113 q 1018 413 1018 304 q 1001 463 1018 446 q 949 479 985 479 q 788 420 864 479 q 665 275 711 361 q 618 117 618 189 q 647 29 618 61 q 735 -3 676 -3 q 989 82 854 -3 q 1275 321 1124 167 l 1297 321 q 1000 66 1140 154 q 735 -22 860 -22 q 627 16 663 -22 q 592 118 592 54 q 646 297 592 201 q 794 456 700 392 q 997 521 888 521 q 1094 493 1061 521 q 1126 421 1126 465 q 1007 218 1126 322 q 717 46 888 114 q 410 -22 546 -22 q 209 26 290 -22 q 128 172 128 75 q 256 401 128 301 q 578 558 385 501 q 961 621 772 614 l 963 632 q 772 669 849 632 q 694 793 694 707 q 785 971 694 893 q 1010 1091 875 1049 q 1271 1133 1144 1133 q 1413 1101 1369 1133 q 1457 1019 1457 1068 q 1337 850 1457 928 q 1038 727 1217 772 q 700 682 860 682 q 497 736 581 682 q 413 921 413 790 l 433 929 q 492 767 433 835 q 700 699 551 699 q 1032 753 883 699 q 1265 889 1181 807 q 1350 1050 1350 971 q 1260 1114 1350 1114 q 1071 1059 1168 1114 q 910 923 974 1004 q 846 771 846 842 q 917 666 846 696 q 1132 636 989 636 l 1129 619 m 1264 1378 q 1297 1320 1282 1356 q 1317 1254 1311 1285 q 1436 1328 1353 1289 q 1569 1378 1519 1368 l 1603 1378 q 1292 1172 1411 1318 l 1279 1182 q 1281 1199 1279 1186 q 1282 1236 1282 1213 q 1253 1378 1282 1318 l 1264 1378 z "},"Ê":{"ha":1260,"x_min":128,"x_max":1475,"o":"m 1129 619 q 767 554 967 617 q 427 379 568 492 q 286 125 286 267 q 439 -3 286 -3 q 692 55 556 -3 q 924 208 829 113 q 1018 413 1018 304 q 1001 463 1018 446 q 949 479 985 479 q 788 420 864 479 q 665 275 711 361 q 618 117 618 189 q 647 29 618 61 q 735 -3 676 -3 q 989 82 854 -3 q 1275 321 1124 167 l 1297 321 q 1000 66 1140 154 q 735 -22 860 -22 q 627 16 663 -22 q 592 118 592 54 q 646 297 592 201 q 794 456 700 392 q 997 521 888 521 q 1094 493 1061 521 q 1126 421 1126 465 q 1007 218 1126 322 q 717 46 888 114 q 410 -22 546 -22 q 209 26 290 -22 q 128 172 128 75 q 256 401 128 301 q 578 558 385 501 q 961 621 772 614 l 963 632 q 772 669 849 632 q 694 793 694 707 q 785 971 694 893 q 1010 1091 875 1049 q 1271 1133 1144 1133 q 1413 1101 1369 1133 q 1457 1019 1457 1068 q 1337 850 1457 928 q 1038 727 1217 772 q 700 682 860 682 q 497 736 581 682 q 413 921 413 790 l 433 929 q 492 767 433 835 q 700 699 551 699 q 1032 753 883 699 q 1265 889 1181 807 q 1350 1050 1350 971 q 1260 1114 1350 1114 q 1071 1059 1168 1114 q 910 923 974 1004 q 846 771 846 842 q 917 666 846 696 q 1132 636 989 636 l 1129 619 m 1464 1157 q 1431 1215 1446 1179 q 1411 1281 1417 1250 q 1292 1206 1375 1246 q 1158 1157 1210 1167 l 1125 1157 q 1436 1363 1317 1217 l 1449 1353 q 1447 1335 1449 1349 q 1446 1299 1446 1322 q 1475 1157 1446 1217 l 1464 1157 z "},"Ë":{"ha":1260,"x_min":128,"x_max":1560,"o":"m 1129 619 q 767 554 967 617 q 427 379 568 492 q 286 125 286 267 q 439 -3 286 -3 q 692 55 556 -3 q 924 208 829 113 q 1018 413 1018 304 q 1001 463 1018 446 q 949 479 985 479 q 788 420 864 479 q 665 275 711 361 q 618 117 618 189 q 647 29 618 61 q 735 -3 676 -3 q 989 82 854 -3 q 1275 321 1124 167 l 1297 321 q 1000 66 1140 154 q 735 -22 860 -22 q 627 16 663 -22 q 592 118 592 54 q 646 297 592 201 q 794 456 700 392 q 997 521 888 521 q 1094 493 1061 521 q 1126 421 1126 465 q 1007 218 1126 322 q 717 46 888 114 q 410 -22 546 -22 q 209 26 290 -22 q 128 172 128 75 q 256 401 128 301 q 578 558 385 501 q 961 621 772 614 l 963 632 q 772 669 849 632 q 694 793 694 707 q 785 971 694 893 q 1010 1091 875 1049 q 1271 1133 1144 1133 q 1413 1101 1369 1133 q 1457 1019 1457 1068 q 1337 850 1457 928 q 1038 727 1217 772 q 700 682 860 682 q 497 736 581 682 q 413 921 413 790 l 433 929 q 492 767 433 835 q 700 699 551 699 q 1032 753 883 699 q 1265 889 1181 807 q 1350 1050 1350 971 q 1260 1114 1350 1114 q 1071 1059 1168 1114 q 910 923 974 1004 q 846 771 846 842 q 917 666 846 696 q 1132 636 989 636 l 1129 619 m 1339 1343 q 1356 1328 1356 1343 q 1347 1301 1356 1318 q 1273 1222 1325 1261 q 1190 1182 1221 1182 q 1174 1200 1174 1182 q 1181 1224 1174 1207 q 1256 1303 1203 1263 q 1339 1343 1308 1343 m 1540 1343 q 1560 1328 1560 1343 q 1550 1301 1560 1321 q 1474 1222 1528 1263 q 1390 1182 1421 1182 q 1372 1200 1372 1182 q 1378 1222 1372 1211 q 1456 1303 1401 1263 q 1540 1343 1510 1343 z "},"Ė":{"ha":1260,"x_min":128,"x_max":1460,"o":"m 1129 619 q 767 554 967 617 q 427 379 568 492 q 286 125 286 267 q 439 -3 286 -3 q 692 55 556 -3 q 924 208 829 113 q 1018 413 1018 304 q 1001 463 1018 446 q 949 479 985 479 q 788 420 864 479 q 665 275 711 361 q 618 117 618 189 q 647 29 618 61 q 735 -3 676 -3 q 989 82 854 -3 q 1275 321 1124 167 l 1297 321 q 1000 66 1140 154 q 735 -22 860 -22 q 627 16 663 -22 q 592 118 592 54 q 646 297 592 201 q 794 456 700 392 q 997 521 888 521 q 1094 493 1061 521 q 1126 421 1126 465 q 1007 218 1126 322 q 717 46 888 114 q 410 -22 546 -22 q 209 26 290 -22 q 128 172 128 75 q 256 401 128 301 q 578 558 385 501 q 961 621 772 614 l 963 632 q 772 669 849 632 q 694 793 694 707 q 785 971 694 893 q 1010 1091 875 1049 q 1271 1133 1144 1133 q 1413 1101 1369 1133 q 1457 1019 1457 1068 q 1337 850 1457 928 q 1038 727 1217 772 q 700 682 860 682 q 497 736 581 682 q 413 921 413 790 l 433 929 q 492 767 433 835 q 700 699 551 699 q 1032 753 883 699 q 1265 889 1181 807 q 1350 1050 1350 971 q 1260 1114 1350 1114 q 1071 1059 1168 1114 q 910 923 974 1004 q 846 771 846 842 q 917 666 846 696 q 1132 636 989 636 l 1129 619 m 1442 1343 q 1460 1328 1460 1343 q 1451 1301 1460 1318 q 1374 1222 1428 1261 q 1290 1182 1321 1182 q 1272 1200 1272 1182 q 1279 1222 1272 1208 q 1357 1303 1303 1263 q 1442 1343 1411 1343 z "},"È":{"ha":1260,"x_min":128,"x_max":1500,"o":"m 1129 619 q 767 554 967 617 q 427 379 568 492 q 286 125 286 267 q 439 -3 286 -3 q 692 55 556 -3 q 924 208 829 113 q 1018 413 1018 304 q 1001 463 1018 446 q 949 479 985 479 q 788 420 864 479 q 665 275 711 361 q 618 117 618 189 q 647 29 618 61 q 735 -3 676 -3 q 989 82 854 -3 q 1275 321 1124 167 l 1297 321 q 1000 66 1140 154 q 735 -22 860 -22 q 627 16 663 -22 q 592 118 592 54 q 646 297 592 201 q 794 456 700 392 q 997 521 888 521 q 1094 493 1061 521 q 1126 421 1126 465 q 1007 218 1126 322 q 717 46 888 114 q 410 -22 546 -22 q 209 26 290 -22 q 128 172 128 75 q 256 401 128 301 q 578 558 385 501 q 961 621 772 614 l 963 632 q 772 669 849 632 q 694 793 694 707 q 785 971 694 893 q 1010 1091 875 1049 q 1271 1133 1144 1133 q 1413 1101 1369 1133 q 1457 1019 1457 1068 q 1337 850 1457 928 q 1038 727 1217 772 q 700 682 860 682 q 497 736 581 682 q 413 921 413 790 l 433 929 q 492 767 433 835 q 700 699 551 699 q 1032 753 883 699 q 1265 889 1181 807 q 1350 1050 1350 971 q 1260 1114 1350 1114 q 1071 1059 1168 1114 q 910 923 974 1004 q 846 771 846 842 q 917 666 846 696 q 1132 636 989 636 l 1129 619 m 1238 1369 q 1349 1261 1274 1319 q 1500 1169 1424 1203 l 1492 1165 q 1347 1232 1429 1186 q 1211 1325 1265 1278 l 1238 1369 z "},"Ē":{"ha":1260,"x_min":128,"x_max":1515,"o":"m 1129 619 q 767 554 967 617 q 427 379 568 492 q 286 125 286 267 q 439 -3 286 -3 q 692 55 556 -3 q 924 208 829 113 q 1018 413 1018 304 q 1001 463 1018 446 q 949 479 985 479 q 788 420 864 479 q 665 275 711 361 q 618 117 618 189 q 647 29 618 61 q 735 -3 676 -3 q 989 82 854 -3 q 1275 321 1124 167 l 1297 321 q 1000 66 1140 154 q 735 -22 860 -22 q 627 16 663 -22 q 592 118 592 54 q 646 297 592 201 q 794 456 700 392 q 997 521 888 521 q 1094 493 1061 521 q 1126 421 1126 465 q 1007 218 1126 322 q 717 46 888 114 q 410 -22 546 -22 q 209 26 290 -22 q 128 172 128 75 q 256 401 128 301 q 578 558 385 501 q 961 621 772 614 l 963 632 q 772 669 849 632 q 694 793 694 707 q 785 971 694 893 q 1010 1091 875 1049 q 1271 1133 1144 1133 q 1413 1101 1369 1133 q 1457 1019 1457 1068 q 1337 850 1457 928 q 1038 727 1217 772 q 700 682 860 682 q 497 736 581 682 q 413 921 413 790 l 433 929 q 492 767 433 835 q 700 699 551 699 q 1032 753 883 699 q 1265 889 1181 807 q 1350 1050 1350 971 q 1260 1114 1350 1114 q 1071 1059 1168 1114 q 910 923 974 1004 q 846 771 846 842 q 917 666 846 696 q 1132 636 989 636 l 1129 619 m 1501 1189 l 1193 1189 l 1228 1224 l 1515 1224 l 1501 1189 z "},"Ę":{"ha":1260,"x_min":128,"x_max":1457,"o":"m 1129 619 q 767 554 967 617 q 427 379 568 492 q 286 125 286 267 q 439 -3 286 -3 q 692 55 556 -3 q 924 208 829 113 q 1018 413 1018 304 q 1001 463 1018 446 q 949 479 985 479 q 788 420 864 479 q 665 275 711 361 q 618 117 618 189 q 647 29 618 61 q 735 -3 676 -3 q 989 82 854 -3 q 1275 321 1124 167 l 1297 321 q 1000 66 1140 154 q 735 -22 860 -22 q 627 16 663 -22 q 592 118 592 54 q 646 297 592 201 q 794 456 700 392 q 997 521 888 521 q 1094 493 1061 521 q 1126 421 1126 465 q 1007 218 1126 322 q 717 46 888 114 q 410 -22 546 -22 q 209 26 290 -22 q 128 172 128 75 q 256 401 128 301 q 578 558 385 501 q 961 621 772 614 l 963 632 q 772 669 849 632 q 694 793 694 707 q 785 971 694 893 q 1010 1091 875 1049 q 1271 1133 1144 1133 q 1413 1101 1369 1133 q 1457 1019 1457 1068 q 1337 850 1457 928 q 1038 727 1217 772 q 700 682 860 682 q 497 736 581 682 q 413 921 413 790 l 433 929 q 492 767 433 835 q 700 699 551 699 q 1032 753 883 699 q 1265 889 1181 807 q 1350 1050 1350 971 q 1260 1114 1350 1114 q 1071 1059 1168 1114 q 910 923 974 1004 q 846 771 846 842 q 917 666 846 696 q 1132 636 989 636 l 1129 619 m 292 -161 q 308 -99 292 -126 q 360 -35 325 -72 q 393 -4 371 -24 l 406 -4 q 371 -50 399 -11 q 332 -147 332 -104 q 352 -197 332 -179 q 401 -214 372 -214 q 461 -193 428 -214 l 464 -200 q 439 -239 461 -221 q 382 -257 417 -257 q 320 -233 349 -257 q 292 -161 292 -210 z "},"Ẽ":{"ha":1260,"x_min":128,"x_max":1539,"o":"m 1129 619 q 767 554 967 617 q 427 379 568 492 q 286 125 286 267 q 439 -3 286 -3 q 692 55 556 -3 q 924 208 829 113 q 1018 413 1018 304 q 1001 463 1018 446 q 949 479 985 479 q 788 420 864 479 q 665 275 711 361 q 618 117 618 189 q 647 29 618 61 q 735 -3 676 -3 q 989 82 854 -3 q 1275 321 1124 167 l 1297 321 q 1000 66 1140 154 q 735 -22 860 -22 q 627 16 663 -22 q 592 118 592 54 q 646 297 592 201 q 794 456 700 392 q 997 521 888 521 q 1094 493 1061 521 q 1126 421 1126 465 q 1007 218 1126 322 q 717 46 888 114 q 410 -22 546 -22 q 209 26 290 -22 q 128 172 128 75 q 256 401 128 301 q 578 558 385 501 q 961 621 772 614 l 963 632 q 772 669 849 632 q 694 793 694 707 q 785 971 694 893 q 1010 1091 875 1049 q 1271 1133 1144 1133 q 1413 1101 1369 1133 q 1457 1019 1457 1068 q 1337 850 1457 928 q 1038 727 1217 772 q 700 682 860 682 q 497 736 581 682 q 413 921 413 790 l 433 929 q 492 767 433 835 q 700 699 551 699 q 1032 753 883 699 q 1265 889 1181 807 q 1350 1050 1350 971 q 1260 1114 1350 1114 q 1071 1059 1168 1114 q 910 923 974 1004 q 846 771 846 842 q 917 666 846 696 q 1132 636 989 636 l 1129 619 m 1311 1250 q 1352 1242 1325 1250 q 1385 1232 1379 1233 q 1453 1214 1436 1214 q 1490 1222 1467 1214 q 1532 1240 1513 1231 l 1539 1236 q 1489 1208 1500 1214 q 1407 1183 1440 1183 q 1340 1201 1382 1183 q 1305 1213 1322 1208 q 1272 1218 1288 1218 q 1231 1210 1256 1218 q 1183 1193 1207 1203 l 1176 1197 q 1231 1225 1181 1200 q 1311 1250 1282 1250 z "},"F":{"ha":1425,"x_min":-8,"x_max":1925,"o":"m 1336 546 q 1242 499 1293 517 q 1106 482 1190 482 q 1013 490 1057 482 q 913 511 968 497 q 810 532 853 525 q 719 539 768 539 q 588 523 661 539 q 475 488 514 507 l 465 503 q 581 539 503 522 q 719 556 658 556 q 824 548 781 556 q 932 524 868 540 q 974 514 940 522 q 1041 501 1008 506 q 1106 497 1074 497 q 1234 513 1182 497 q 1328 557 1286 529 l 1336 546 m 1586 950 q 1413 960 1490 950 q 1222 993 1335 971 q 1049 1023 1122 1013 q 892 1033 975 1033 q 564 967 675 1033 q 390 803 453 901 l 368 803 q 476 951 403 875 q 662 1081 549 1028 q 915 1133 775 1133 q 1106 1111 1021 1133 q 1307 1044 1190 1089 q 1479 987 1410 1006 q 1628 968 1549 968 q 1915 1072 1776 968 l 1925 1060 q 1766 975 1849 1000 q 1586 950 1683 950 m 1413 914 q 1272 863 1335 901 q 1126 733 1208 825 q 918 461 1044 640 q 577 97 746 217 q 238 -22 408 -22 q 52 38 113 -22 q -8 182 -8 99 q 19 269 -8 235 q 79 304 46 304 q 115 292 101 304 q 129 261 129 279 q 118 235 129 244 q 85 213 107 225 q 42 181 56 196 q 28 139 28 167 q 53 69 28 101 q 123 17 78 36 q 225 -3 168 -3 q 376 41 307 -3 q 500 153 444 85 q 642 346 556 222 q 790 551 732 479 q 1063 813 915 711 q 1413 933 1210 914 l 1413 914 z "},"G":{"ha":1096,"x_min":-101,"x_max":1476,"o":"m 1267 567 q 916 36 1106 229 q 552 -228 726 -157 q 225 -300 378 -300 q 43 -265 117 -300 q -66 -173 -31 -229 q -101 -53 -101 -117 q -74 40 -101 4 q -1 75 -46 75 q 33 63 19 75 q 47 32 47 50 q 37 4 47 17 q 4 -26 26 -8 q -38 -67 -24 -49 q -53 -114 -53 -85 q -18 -197 -53 -158 q 77 -258 17 -235 q 214 -281 138 -281 q 493 -216 361 -281 q 760 5 625 -151 q 1042 429 896 161 l 1032 429 q 847 271 954 332 q 597 210 739 210 q 367 281 453 210 q 281 471 281 351 q 441 803 281 651 q 833 1044 601 956 q 1258 1133 1064 1133 q 1422 1093 1368 1133 q 1476 996 1476 1053 q 1426 876 1476 932 q 1287 788 1375 821 q 1092 756 1199 756 q 756 835 922 756 q 488 1042 589 914 l 504 1054 q 769 851 607 928 q 1094 775 932 775 q 1262 803 1189 775 q 1374 881 1335 832 q 1414 989 1414 929 q 1372 1077 1414 1040 q 1246 1114 1329 1114 q 878 1017 1067 1114 q 564 761 689 919 q 439 431 439 603 q 497 285 439 335 q 643 235 556 235 q 835 285 744 235 q 992 410 925 335 q 1096 567 1058 486 l 1267 567 z "},"Ğ":{"ha":1096,"x_min":-101,"x_max":1476,"o":"m 1267 567 q 916 36 1106 229 q 552 -228 726 -157 q 225 -300 378 -300 q 43 -265 117 -300 q -66 -173 -31 -229 q -101 -53 -101 -117 q -74 40 -101 4 q -1 75 -46 75 q 33 63 19 75 q 47 32 47 50 q 37 4 47 17 q 4 -26 26 -8 q -38 -67 -24 -49 q -53 -114 -53 -85 q -18 -197 -53 -158 q 77 -258 17 -235 q 214 -281 138 -281 q 493 -216 361 -281 q 760 5 625 -151 q 1042 429 896 161 l 1032 429 q 847 271 954 332 q 597 210 739 210 q 367 281 453 210 q 281 471 281 351 q 441 803 281 651 q 833 1044 601 956 q 1258 1133 1064 1133 q 1422 1093 1368 1133 q 1476 996 1476 1053 q 1426 876 1476 932 q 1287 788 1375 821 q 1092 756 1199 756 q 756 835 922 756 q 488 1042 589 914 l 504 1054 q 769 851 607 928 q 1094 775 932 775 q 1262 803 1189 775 q 1374 881 1335 832 q 1414 989 1414 929 q 1372 1077 1414 1040 q 1246 1114 1329 1114 q 878 1017 1067 1114 q 564 761 689 919 q 439 431 439 603 q 497 285 439 335 q 643 235 556 235 q 835 285 744 235 q 992 410 925 335 q 1096 567 1058 486 l 1267 567 m 1446 1286 q 1371 1207 1415 1235 q 1272 1179 1326 1179 q 1196 1207 1225 1179 q 1167 1275 1167 1235 l 1175 1286 q 1203 1237 1178 1256 q 1278 1218 1229 1218 q 1436 1297 1389 1218 l 1446 1286 z "},"Ĝ":{"ha":1096,"x_min":-101,"x_max":1476,"o":"m 1267 567 q 916 36 1106 229 q 552 -228 726 -157 q 225 -300 378 -300 q 43 -265 117 -300 q -66 -173 -31 -229 q -101 -53 -101 -117 q -74 40 -101 4 q -1 75 -46 75 q 33 63 19 75 q 47 32 47 50 q 37 4 47 17 q 4 -26 26 -8 q -38 -67 -24 -49 q -53 -114 -53 -85 q -18 -197 -53 -158 q 77 -258 17 -235 q 214 -281 138 -281 q 493 -216 361 -281 q 760 5 625 -151 q 1042 429 896 161 l 1032 429 q 847 271 954 332 q 597 210 739 210 q 367 281 453 210 q 281 471 281 351 q 441 803 281 651 q 833 1044 601 956 q 1258 1133 1064 1133 q 1422 1093 1368 1133 q 1476 996 1476 1053 q 1426 876 1476 932 q 1287 788 1375 821 q 1092 756 1199 756 q 756 835 922 756 q 488 1042 589 914 l 504 1054 q 769 851 607 928 q 1094 775 932 775 q 1262 803 1189 775 q 1374 881 1335 832 q 1414 989 1414 929 q 1372 1077 1414 1040 q 1246 1114 1329 1114 q 878 1017 1067 1114 q 564 761 689 919 q 439 431 439 603 q 497 285 439 335 q 643 235 556 235 q 835 285 744 235 q 992 410 925 335 q 1096 567 1058 486 l 1267 567 m 1382 1157 q 1349 1215 1364 1179 q 1329 1281 1335 1250 q 1210 1206 1293 1246 q 1076 1157 1128 1167 l 1043 1157 q 1354 1363 1235 1217 l 1367 1353 q 1365 1335 1367 1349 q 1364 1299 1364 1322 q 1393 1157 1364 1217 l 1382 1157 z "},"Ģ":{"ha":1096,"x_min":-101,"x_max":1476,"o":"m 1267 567 q 916 36 1106 229 q 552 -228 726 -157 q 225 -300 378 -300 q 43 -265 117 -300 q -66 -173 -31 -229 q -101 -53 -101 -117 q -74 40 -101 4 q -1 75 -46 75 q 33 63 19 75 q 47 32 47 50 q 37 4 47 17 q 4 -26 26 -8 q -38 -67 -24 -49 q -53 -114 -53 -85 q -18 -197 -53 -158 q 77 -258 17 -235 q 214 -281 138 -281 q 493 -216 361 -281 q 760 5 625 -151 q 1042 429 896 161 l 1032 429 q 847 271 954 332 q 597 210 739 210 q 367 281 453 210 q 281 471 281 351 q 441 803 281 651 q 833 1044 601 956 q 1258 1133 1064 1133 q 1422 1093 1368 1133 q 1476 996 1476 1053 q 1426 876 1476 932 q 1287 788 1375 821 q 1092 756 1199 756 q 756 835 922 756 q 488 1042 589 914 l 504 1054 q 769 851 607 928 q 1094 775 932 775 q 1262 803 1189 775 q 1374 881 1335 832 q 1414 989 1414 929 q 1372 1077 1414 1040 q 1246 1114 1329 1114 q 878 1017 1067 1114 q 564 761 689 919 q 439 431 439 603 q 497 285 439 335 q 643 235 556 235 q 835 285 744 235 q 992 410 925 335 q 1096 567 1058 486 l 1267 567 m 872 -179 q 850 -151 850 -179 q 863 -102 850 -131 q 898 -53 876 -74 q 942 -33 919 -33 q 972 -68 972 -33 q 918 -188 972 -132 q 790 -269 864 -244 l 783 -257 q 863 -215 836 -236 q 901 -165 890 -193 l 896 -165 q 872 -179 885 -179 z "},"Ġ":{"ha":1096,"x_min":-101,"x_max":1476,"o":"m 1267 567 q 916 36 1106 229 q 552 -228 726 -157 q 225 -300 378 -300 q 43 -265 117 -300 q -66 -173 -31 -229 q -101 -53 -101 -117 q -74 40 -101 4 q -1 75 -46 75 q 33 63 19 75 q 47 32 47 50 q 37 4 47 17 q 4 -26 26 -8 q -38 -67 -24 -49 q -53 -114 -53 -85 q -18 -197 -53 -158 q 77 -258 17 -235 q 214 -281 138 -281 q 493 -216 361 -281 q 760 5 625 -151 q 1042 429 896 161 l 1032 429 q 847 271 954 332 q 597 210 739 210 q 367 281 453 210 q 281 471 281 351 q 441 803 281 651 q 833 1044 601 956 q 1258 1133 1064 1133 q 1422 1093 1368 1133 q 1476 996 1476 1053 q 1426 876 1476 932 q 1287 788 1375 821 q 1092 756 1199 756 q 756 835 922 756 q 488 1042 589 914 l 504 1054 q 769 851 607 928 q 1094 775 932 775 q 1262 803 1189 775 q 1374 881 1335 832 q 1414 989 1414 929 q 1372 1077 1414 1040 q 1246 1114 1329 1114 q 878 1017 1067 1114 q 564 761 689 919 q 439 431 439 603 q 497 285 439 335 q 643 235 556 235 q 835 285 744 235 q 992 410 925 335 q 1096 567 1058 486 l 1267 567 m 1360 1343 q 1378 1328 1378 1343 q 1369 1301 1378 1318 q 1292 1222 1346 1261 q 1208 1182 1239 1182 q 1190 1200 1190 1182 q 1197 1222 1190 1208 q 1275 1303 1221 1263 q 1360 1343 1329 1343 z "},"Ḡ":{"ha":1096,"x_min":-101,"x_max":1476,"o":"m 1267 567 q 916 36 1106 229 q 552 -228 726 -157 q 225 -300 378 -300 q 43 -265 117 -300 q -66 -173 -31 -229 q -101 -53 -101 -117 q -74 40 -101 4 q -1 75 -46 75 q 33 63 19 75 q 47 32 47 50 q 37 4 47 17 q 4 -26 26 -8 q -38 -67 -24 -49 q -53 -114 -53 -85 q -18 -197 -53 -158 q 77 -258 17 -235 q 214 -281 138 -281 q 493 -216 361 -281 q 760 5 625 -151 q 1042 429 896 161 l 1032 429 q 847 271 954 332 q 597 210 739 210 q 367 281 453 210 q 281 471 281 351 q 441 803 281 651 q 833 1044 601 956 q 1258 1133 1064 1133 q 1422 1093 1368 1133 q 1476 996 1476 1053 q 1426 876 1476 932 q 1287 788 1375 821 q 1092 756 1199 756 q 756 835 922 756 q 488 1042 589 914 l 504 1054 q 769 851 607 928 q 1094 775 932 775 q 1262 803 1189 775 q 1374 881 1335 832 q 1414 989 1414 929 q 1372 1077 1414 1040 q 1246 1114 1329 1114 q 878 1017 1067 1114 q 564 761 689 919 q 439 431 439 603 q 497 285 439 335 q 643 235 556 235 q 835 285 744 235 q 992 410 925 335 q 1096 567 1058 486 l 1267 567 m 1419 1189 l 1111 1189 l 1146 1224 l 1433 1224 l 1419 1189 z "},"H":{"ha":1786,"x_min":-19,"x_max":2167,"o":"m 2044 994 q 2167 913 2167 994 q 2074 772 2167 844 q 1762 647 1981 699 q 1190 594 1543 594 q 824 562 981 594 q 561 481 667 529 q 353 368 456 433 l 339 382 q 549 496 442 447 q 816 578 656 544 q 1190 611 976 611 q 1752 662 1538 611 q 2056 782 1967 713 q 2146 914 2146 851 q 2123 958 2146 942 q 2054 975 2100 975 q 1754 855 1925 975 q 1462 549 1583 735 q 1340 178 1340 364 q 1372 67 1340 106 q 1458 29 1403 29 q 1602 105 1519 29 q 1771 321 1685 181 l 1793 321 q 1592 64 1686 150 q 1390 -22 1499 -22 q 1243 36 1303 -22 q 1183 199 1183 94 q 1333 576 1183 392 q 1689 878 1482 761 q 2044 994 1896 994 m 1544 936 q 1356 863 1435 906 q 1187 728 1278 821 q 971 461 1096 635 q 606 87 778 196 q 260 -22 433 -22 q 114 5 178 -22 q 15 80 50 32 q -19 188 -19 128 q 8 272 -19 239 q 69 304 35 304 q 104 292 90 304 q 118 261 118 279 q 107 233 118 243 q 72 211 96 224 q 31 185 44 197 q 18 149 18 172 q 44 78 18 111 q 117 26 71 46 q 217 7 163 7 q 416 66 324 7 q 586 217 508 125 q 789 482 664 310 l 838 549 q 1015 753 929 672 q 1213 881 1101 833 q 1471 935 1324 929 l 1471 943 q 1301 956 1374 943 q 1133 992 1228 968 q 999 1023 1057 1013 q 871 1033 940 1033 q 580 977 692 1033 q 396 803 468 921 l 374 803 q 488 963 414 888 q 665 1086 563 1039 q 885 1133 768 1133 q 1031 1113 967 1133 q 1189 1050 1096 1092 q 1351 986 1285 1007 q 1501 965 1418 965 q 1644 995 1575 965 q 1788 1071 1714 1025 l 1797 1060 q 1661 982 1732 1014 q 1544 936 1590 950 z "},"Ħ":{"ha":1786,"x_min":-19,"x_max":2167,"o":"m 2044 994 q 2167 913 2167 994 q 2074 772 2167 844 q 1762 647 1981 699 q 1190 594 1543 594 q 824 562 981 594 q 561 481 667 529 q 353 368 456 433 l 339 382 q 549 496 442 447 q 816 578 656 544 q 1190 613 976 613 q 1753 663 1539 613 q 2056 782 1967 713 q 2146 914 2146 851 q 2123 958 2146 942 q 2054 975 2100 975 q 1756 853 1926 975 q 1463 544 1585 731 q 1340 178 1340 358 q 1372 67 1340 106 q 1458 29 1403 29 q 1602 105 1519 29 q 1771 321 1685 181 l 1793 321 q 1592 64 1686 150 q 1390 -22 1499 -22 q 1240 34 1301 -22 q 1179 193 1179 90 q 1329 572 1179 386 q 1688 876 1479 758 q 2044 994 1896 994 m 1544 936 q 1356 863 1435 906 q 1187 728 1278 821 q 971 461 1096 635 q 606 88 779 199 q 260 -22 432 -22 q 114 5 178 -22 q 15 80 50 32 q -19 188 -19 128 q 8 272 -19 239 q 69 304 35 304 q 104 292 90 304 q 118 261 118 279 q 107 233 118 243 q 72 211 96 224 q 31 185 44 197 q 18 149 18 172 q 44 78 18 111 q 117 26 71 46 q 217 7 163 7 q 401 59 317 7 q 556 192 485 111 q 744 428 626 272 q 838 551 783 481 q 1018 753 932 675 q 1214 880 1104 832 q 1468 933 1324 928 l 1468 943 q 1288 954 1363 942 q 1118 990 1213 967 q 986 1019 1040 1010 q 865 1028 932 1028 q 577 974 686 1028 q 396 803 468 919 l 374 803 q 488 963 414 888 q 665 1086 563 1039 q 885 1133 768 1133 q 1031 1113 967 1133 q 1189 1050 1096 1092 q 1351 986 1285 1007 q 1501 965 1418 965 q 1644 995 1575 965 q 1788 1071 1714 1025 l 1797 1060 q 1661 982 1732 1014 q 1544 936 1590 950 m 2000 840 q 1884 792 1961 813 q 1697 771 1807 771 q 1565 778 1631 771 q 1378 800 1499 785 q 1207 821 1269 814 q 1086 828 1144 828 q 906 813 986 828 q 786 776 826 797 l 775 792 q 1086 844 908 844 q 1219 838 1154 844 q 1399 815 1283 831 q 1563 794 1493 801 q 1697 786 1632 786 q 1875 806 1800 786 q 1990 853 1950 825 l 2000 840 z "},"Ĥ":{"ha":1786,"x_min":-19,"x_max":2167,"o":"m 2044 994 q 2167 913 2167 994 q 2074 772 2167 844 q 1762 647 1981 699 q 1190 594 1543 594 q 824 562 981 594 q 561 481 667 529 q 353 368 456 433 l 339 382 q 549 496 442 447 q 816 578 656 544 q 1190 611 976 611 q 1752 662 1538 611 q 2056 782 1967 713 q 2146 914 2146 851 q 2123 958 2146 942 q 2054 975 2100 975 q 1754 855 1925 975 q 1462 549 1583 735 q 1340 178 1340 364 q 1372 67 1340 106 q 1458 29 1403 29 q 1602 105 1519 29 q 1771 321 1685 181 l 1793 321 q 1592 64 1686 150 q 1390 -22 1499 -22 q 1243 36 1303 -22 q 1183 199 1183 94 q 1333 576 1183 392 q 1689 878 1482 761 q 2044 994 1896 994 m 1544 936 q 1356 863 1435 906 q 1187 728 1278 821 q 971 461 1096 635 q 606 87 778 196 q 260 -22 433 -22 q 114 5 178 -22 q 15 80 50 32 q -19 188 -19 128 q 8 272 -19 239 q 69 304 35 304 q 104 292 90 304 q 118 261 118 279 q 107 233 118 243 q 72 211 96 224 q 31 185 44 197 q 18 149 18 172 q 44 78 18 111 q 117 26 71 46 q 217 7 163 7 q 416 66 324 7 q 586 217 508 125 q 789 482 664 310 l 838 549 q 1015 753 929 672 q 1213 881 1101 833 q 1471 935 1324 929 l 1471 943 q 1301 956 1374 943 q 1133 992 1228 968 q 999 1023 1057 1013 q 871 1033 940 1033 q 580 977 692 1033 q 396 803 468 921 l 374 803 q 488 963 414 888 q 665 1086 563 1039 q 885 1133 768 1133 q 1031 1113 967 1133 q 1189 1050 1096 1092 q 1351 986 1285 1007 q 1501 965 1418 965 q 1644 995 1575 965 q 1788 1071 1714 1025 l 1797 1060 q 1661 982 1732 1014 q 1544 936 1590 950 m 1726 1163 q 1694 1220 1708 1185 q 1674 1286 1679 1256 q 1555 1212 1638 1251 q 1421 1163 1472 1172 l 1388 1163 q 1699 1368 1579 1222 l 1711 1358 q 1710 1341 1711 1354 q 1708 1304 1708 1328 q 1738 1163 1708 1222 l 1726 1163 z "},"I":{"ha":1300,"x_min":-19,"x_max":1799,"o":"m 1544 936 q 1355 863 1433 906 q 1185 728 1276 821 q 971 461 1094 635 q 607 86 779 194 q 260 -22 435 -22 q 114 5 178 -22 q 15 80 50 32 q -19 188 -19 128 q 8 272 -19 239 q 69 304 35 304 q 104 292 90 304 q 118 261 118 279 q 107 233 118 243 q 72 211 96 224 q 31 185 44 197 q 18 149 18 172 q 44 78 18 111 q 117 26 71 46 q 217 7 163 7 q 418 67 325 7 q 590 222 511 128 q 797 490 669 315 l 842 551 q 1017 753 932 674 q 1213 881 1103 833 q 1468 933 1324 928 l 1468 943 q 1291 956 1364 942 q 1121 999 1218 971 q 994 1032 1049 1021 q 874 1043 940 1043 q 574 978 679 1043 q 403 803 469 913 l 381 803 q 483 952 415 876 q 658 1081 551 1028 q 900 1133 764 1133 q 1048 1113 982 1133 q 1200 1050 1114 1092 q 1351 987 1285 1008 q 1501 965 1418 965 q 1644 995 1575 965 q 1788 1071 1714 1025 l 1799 1060 q 1662 982 1733 1014 q 1544 936 1590 950 z "},"Í":{"ha":1300,"x_min":-19,"x_max":1799,"o":"m 1544 936 q 1355 863 1433 906 q 1185 728 1276 821 q 971 461 1094 635 q 607 86 779 194 q 260 -22 435 -22 q 114 5 178 -22 q 15 80 50 32 q -19 188 -19 128 q 8 272 -19 239 q 69 304 35 304 q 104 292 90 304 q 118 261 118 279 q 107 233 118 243 q 72 211 96 224 q 31 185 44 197 q 18 149 18 172 q 44 78 18 111 q 117 26 71 46 q 217 7 163 7 q 418 67 325 7 q 590 222 511 128 q 797 490 669 315 l 842 551 q 1017 753 932 674 q 1213 881 1103 833 q 1468 933 1324 928 l 1468 943 q 1291 956 1364 942 q 1121 999 1218 971 q 994 1032 1049 1021 q 874 1043 940 1043 q 574 978 679 1043 q 403 803 469 913 l 381 803 q 483 952 415 876 q 658 1081 551 1028 q 900 1133 764 1133 q 1048 1113 982 1133 q 1200 1050 1114 1092 q 1351 987 1285 1008 q 1501 965 1418 965 q 1644 995 1575 965 q 1788 1071 1714 1025 l 1799 1060 q 1662 982 1733 1014 q 1544 936 1590 950 m 1514 1325 q 1378 1232 1460 1278 q 1233 1165 1296 1186 l 1225 1169 q 1376 1261 1301 1203 q 1488 1369 1451 1319 l 1514 1325 z "},"Î":{"ha":1300,"x_min":-19,"x_max":1799,"o":"m 1544 936 q 1355 863 1433 906 q 1185 728 1276 821 q 971 461 1094 635 q 607 86 779 194 q 260 -22 435 -22 q 114 5 178 -22 q 15 80 50 32 q -19 188 -19 128 q 8 272 -19 239 q 69 304 35 304 q 104 292 90 304 q 118 261 118 279 q 107 233 118 243 q 72 211 96 224 q 31 185 44 197 q 18 149 18 172 q 44 78 18 111 q 117 26 71 46 q 217 7 163 7 q 418 67 325 7 q 590 222 511 128 q 797 490 669 315 l 842 551 q 1017 753 932 674 q 1213 881 1103 833 q 1468 933 1324 928 l 1468 943 q 1291 956 1364 942 q 1121 999 1218 971 q 994 1032 1049 1021 q 874 1043 940 1043 q 574 978 679 1043 q 403 803 469 913 l 381 803 q 483 952 415 876 q 658 1081 551 1028 q 900 1133 764 1133 q 1048 1113 982 1133 q 1200 1050 1114 1092 q 1351 987 1285 1008 q 1501 965 1418 965 q 1644 995 1575 965 q 1788 1071 1714 1025 l 1799 1060 q 1662 982 1733 1014 q 1544 936 1590 950 m 1483 1157 q 1451 1215 1465 1179 q 1431 1281 1436 1250 q 1312 1206 1394 1246 q 1178 1157 1229 1167 l 1144 1157 q 1456 1363 1336 1217 l 1468 1353 q 1467 1335 1468 1349 q 1465 1299 1465 1322 q 1494 1157 1465 1217 l 1483 1157 z "},"Ï":{"ha":1300,"x_min":-19,"x_max":1799,"o":"m 1544 936 q 1355 863 1433 906 q 1185 728 1276 821 q 971 461 1094 635 q 607 86 779 194 q 260 -22 435 -22 q 114 5 178 -22 q 15 80 50 32 q -19 188 -19 128 q 8 272 -19 239 q 69 304 35 304 q 104 292 90 304 q 118 261 118 279 q 107 233 118 243 q 72 211 96 224 q 31 185 44 197 q 18 149 18 172 q 44 78 18 111 q 117 26 71 46 q 217 7 163 7 q 418 67 325 7 q 590 222 511 128 q 797 490 669 315 l 842 551 q 1017 753 932 674 q 1213 881 1103 833 q 1468 933 1324 928 l 1468 943 q 1291 956 1364 942 q 1121 999 1218 971 q 994 1032 1049 1021 q 874 1043 940 1043 q 574 978 679 1043 q 403 803 469 913 l 381 803 q 483 952 415 876 q 658 1081 551 1028 q 900 1133 764 1133 q 1048 1113 982 1133 q 1200 1050 1114 1092 q 1351 987 1285 1008 q 1501 965 1418 965 q 1644 995 1575 965 q 1788 1071 1714 1025 l 1799 1060 q 1662 982 1733 1014 q 1544 936 1590 950 m 1358 1343 q 1375 1328 1375 1343 q 1367 1301 1375 1318 q 1292 1222 1344 1261 q 1210 1182 1240 1182 q 1193 1200 1193 1182 q 1200 1224 1193 1207 q 1275 1303 1222 1263 q 1358 1343 1328 1343 m 1560 1343 q 1579 1328 1579 1343 q 1569 1301 1579 1321 q 1494 1222 1547 1263 q 1410 1182 1440 1182 q 1392 1200 1392 1182 q 1397 1222 1392 1211 q 1475 1303 1421 1263 q 1560 1343 1529 1343 z "},"İ":{"ha":1300,"x_min":-19,"x_max":1799,"o":"m 1544 936 q 1355 863 1433 906 q 1185 728 1276 821 q 971 461 1094 635 q 607 86 779 194 q 260 -22 435 -22 q 114 5 178 -22 q 15 80 50 32 q -19 188 -19 128 q 8 272 -19 239 q 69 304 35 304 q 104 292 90 304 q 118 261 118 279 q 107 233 118 243 q 72 211 96 224 q 31 185 44 197 q 18 149 18 172 q 44 78 18 111 q 117 26 71 46 q 217 7 163 7 q 418 67 325 7 q 590 222 511 128 q 797 490 669 315 l 842 551 q 1017 753 932 674 q 1213 881 1103 833 q 1468 933 1324 928 l 1468 943 q 1291 956 1364 942 q 1121 999 1218 971 q 994 1032 1049 1021 q 874 1043 940 1043 q 574 978 679 1043 q 403 803 469 913 l 381 803 q 483 952 415 876 q 658 1081 551 1028 q 900 1133 764 1133 q 1048 1113 982 1133 q 1200 1050 1114 1092 q 1351 987 1285 1008 q 1501 965 1418 965 q 1644 995 1575 965 q 1788 1071 1714 1025 l 1799 1060 q 1662 982 1733 1014 q 1544 936 1590 950 m 1461 1343 q 1479 1328 1479 1343 q 1471 1301 1479 1318 q 1394 1222 1447 1261 q 1310 1182 1340 1182 q 1292 1200 1292 1182 q 1299 1222 1292 1208 q 1376 1303 1322 1263 q 1461 1343 1431 1343 z "},"Ì":{"ha":1300,"x_min":-19,"x_max":1799,"o":"m 1544 936 q 1355 863 1433 906 q 1185 728 1276 821 q 971 461 1094 635 q 607 86 779 194 q 260 -22 435 -22 q 114 5 178 -22 q 15 80 50 32 q -19 188 -19 128 q 8 272 -19 239 q 69 304 35 304 q 104 292 90 304 q 118 261 118 279 q 107 233 118 243 q 72 211 96 224 q 31 185 44 197 q 18 149 18 172 q 44 78 18 111 q 117 26 71 46 q 217 7 163 7 q 418 67 325 7 q 590 222 511 128 q 797 490 669 315 l 842 551 q 1017 753 932 674 q 1213 881 1103 833 q 1468 933 1324 928 l 1468 943 q 1291 956 1364 942 q 1121 999 1218 971 q 994 1032 1049 1021 q 874 1043 940 1043 q 574 978 679 1043 q 403 803 469 913 l 381 803 q 483 952 415 876 q 658 1081 551 1028 q 900 1133 764 1133 q 1048 1113 982 1133 q 1200 1050 1114 1092 q 1351 987 1285 1008 q 1501 965 1418 965 q 1644 995 1575 965 q 1788 1071 1714 1025 l 1799 1060 q 1662 982 1733 1014 q 1544 936 1590 950 m 1258 1369 q 1369 1261 1294 1319 q 1521 1169 1444 1203 l 1513 1165 q 1368 1232 1450 1186 q 1232 1325 1286 1278 l 1258 1369 z "},"Ī":{"ha":1300,"x_min":-19,"x_max":1799,"o":"m 1544 936 q 1355 863 1433 906 q 1185 728 1276 821 q 971 461 1094 635 q 607 86 779 194 q 260 -22 435 -22 q 114 5 178 -22 q 15 80 50 32 q -19 188 -19 128 q 8 272 -19 239 q 69 304 35 304 q 104 292 90 304 q 118 261 118 279 q 107 233 118 243 q 72 211 96 224 q 31 185 44 197 q 18 149 18 172 q 44 78 18 111 q 117 26 71 46 q 217 7 163 7 q 418 67 325 7 q 590 222 511 128 q 797 490 669 315 l 842 551 q 1017 753 932 674 q 1213 881 1103 833 q 1468 933 1324 928 l 1468 943 q 1291 956 1364 942 q 1121 999 1218 971 q 994 1032 1049 1021 q 874 1043 940 1043 q 574 978 679 1043 q 403 803 469 913 l 381 803 q 483 952 415 876 q 658 1081 551 1028 q 900 1133 764 1133 q 1048 1113 982 1133 q 1200 1050 1114 1092 q 1351 987 1285 1008 q 1501 965 1418 965 q 1644 995 1575 965 q 1788 1071 1714 1025 l 1799 1060 q 1662 982 1733 1014 q 1544 936 1590 950 m 1522 1189 l 1214 1189 l 1249 1224 l 1536 1224 l 1522 1189 z "},"Į":{"ha":1300,"x_min":-19,"x_max":1799,"o":"m 1544 936 q 1355 863 1433 906 q 1185 728 1276 821 q 971 461 1094 635 q 607 86 779 194 q 260 -22 435 -22 q 114 5 178 -22 q 15 80 50 32 q -19 188 -19 128 q 8 272 -19 239 q 69 304 35 304 q 104 292 90 304 q 118 261 118 279 q 107 233 118 243 q 72 211 96 224 q 31 185 44 197 q 18 149 18 172 q 44 78 18 111 q 117 26 71 46 q 217 7 163 7 q 418 67 325 7 q 590 222 511 128 q 797 490 669 315 l 842 551 q 1017 753 932 674 q 1213 881 1103 833 q 1468 933 1324 928 l 1468 943 q 1291 956 1364 942 q 1121 999 1218 971 q 994 1032 1049 1021 q 874 1043 940 1043 q 574 978 679 1043 q 403 803 469 913 l 381 803 q 483 952 415 876 q 658 1081 551 1028 q 900 1133 764 1133 q 1048 1113 982 1133 q 1200 1050 1114 1092 q 1351 987 1285 1008 q 1501 965 1418 965 q 1644 995 1575 965 q 1788 1071 1714 1025 l 1799 1060 q 1662 982 1733 1014 q 1544 936 1590 950 m 197 -161 q 214 -99 197 -126 q 265 -35 231 -72 q 299 -4 276 -24 l 311 -4 q 276 -50 304 -11 q 238 -147 238 -104 q 258 -197 238 -179 q 307 -214 278 -214 q 367 -193 333 -214 l 369 -200 q 344 -239 367 -221 q 288 -257 322 -257 q 226 -233 254 -257 q 197 -161 197 -210 z "},"Ĩ":{"ha":1300,"x_min":-19,"x_max":1799,"o":"m 1544 936 q 1355 863 1433 906 q 1185 728 1276 821 q 971 461 1094 635 q 607 86 779 194 q 260 -22 435 -22 q 114 5 178 -22 q 15 80 50 32 q -19 188 -19 128 q 8 272 -19 239 q 69 304 35 304 q 104 292 90 304 q 118 261 118 279 q 107 233 118 243 q 72 211 96 224 q 31 185 44 197 q 18 149 18 172 q 44 78 18 111 q 117 26 71 46 q 217 7 163 7 q 418 67 325 7 q 590 222 511 128 q 797 490 669 315 l 842 551 q 1017 753 932 674 q 1213 881 1103 833 q 1468 933 1324 928 l 1468 943 q 1291 956 1364 942 q 1121 999 1218 971 q 994 1032 1049 1021 q 874 1043 940 1043 q 574 978 679 1043 q 403 803 469 913 l 381 803 q 483 952 415 876 q 658 1081 551 1028 q 900 1133 764 1133 q 1048 1113 982 1133 q 1200 1050 1114 1092 q 1351 987 1285 1008 q 1501 965 1418 965 q 1644 995 1575 965 q 1788 1071 1714 1025 l 1799 1060 q 1662 982 1733 1014 q 1544 936 1590 950 m 1331 1250 q 1372 1242 1344 1250 q 1404 1232 1399 1233 q 1472 1214 1456 1214 q 1509 1222 1486 1214 q 1551 1240 1532 1231 l 1558 1236 q 1508 1208 1519 1214 q 1426 1183 1460 1183 q 1360 1201 1401 1183 q 1324 1213 1342 1208 q 1292 1218 1307 1218 q 1251 1210 1275 1218 q 1203 1193 1226 1203 l 1196 1197 q 1251 1225 1200 1200 q 1331 1250 1301 1250 z "},"J":{"ha":1293,"x_min":-175,"x_max":1792,"o":"m 1213 319 q 935 194 1101 243 q 760 156 854 171 q 506 118 665 140 q 270 84 361 100 q 117 47 179 68 q -22 -33 19 14 q -62 -144 -62 -81 q -22 -245 -62 -210 q 96 -281 19 -281 l 79 -300 q -58 -278 0 -300 q -145 -222 -115 -257 q -175 -142 -175 -186 q -139 -40 -175 -85 q -9 41 -103 4 q 250 106 85 78 q 458 133 326 118 q 742 171 628 154 q 936 211 857 188 q 1077 261 1018 235 q 1188 319 1136 288 l 1213 319 m 1538 936 q 1242 735 1392 892 q 875 269 1093 578 q 482 -155 674 -10 q 79 -300 290 -300 l 96 -281 q 283 -217 193 -281 q 447 -57 372 -153 q 636 204 522 39 q 746 361 708 310 q 960 626 857 511 q 1192 829 1063 740 q 1461 933 1322 918 l 1461 943 q 1292 954 1364 942 q 1124 992 1219 967 q 992 1023 1049 1013 q 867 1033 935 1033 q 562 971 669 1033 q 396 803 454 908 l 374 803 q 474 953 406 878 q 649 1081 543 1029 q 885 1133 754 1133 q 1028 1113 964 1133 q 1183 1050 1092 1092 q 1344 986 1276 1007 q 1494 965 1411 965 q 1638 995 1568 965 q 1781 1071 1707 1025 l 1792 1060 q 1658 983 1726 1014 q 1538 936 1589 953 z "},"Ĵ":{"ha":1293,"x_min":-175,"x_max":1792,"o":"m 1213 319 q 935 194 1101 243 q 760 156 854 171 q 506 118 665 140 q 270 84 361 100 q 117 47 179 68 q -22 -33 19 14 q -62 -144 -62 -81 q -22 -245 -62 -210 q 96 -281 19 -281 l 79 -300 q -58 -278 0 -300 q -145 -222 -115 -257 q -175 -142 -175 -186 q -139 -40 -175 -85 q -9 41 -103 4 q 250 106 85 78 q 458 133 326 118 q 742 171 628 154 q 936 211 857 188 q 1077 261 1018 235 q 1188 319 1136 288 l 1213 319 m 1538 936 q 1242 735 1392 892 q 875 269 1093 578 q 482 -155 674 -10 q 79 -300 290 -300 l 96 -281 q 283 -217 193 -281 q 447 -57 372 -153 q 636 204 522 39 q 746 361 708 310 q 960 626 857 511 q 1192 829 1063 740 q 1461 933 1322 918 l 1461 943 q 1292 954 1364 942 q 1124 992 1219 967 q 992 1023 1049 1013 q 867 1033 935 1033 q 562 971 669 1033 q 396 803 454 908 l 374 803 q 474 953 406 878 q 649 1081 543 1029 q 885 1133 754 1133 q 1028 1113 964 1133 q 1183 1050 1092 1092 q 1344 986 1276 1007 q 1494 965 1411 965 q 1638 995 1568 965 q 1781 1071 1707 1025 l 1792 1060 q 1658 983 1726 1014 q 1538 936 1589 953 m 1481 1157 q 1448 1215 1463 1179 q 1428 1281 1433 1250 q 1309 1206 1392 1246 q 1175 1157 1226 1167 l 1142 1157 q 1453 1363 1333 1217 l 1465 1353 q 1464 1335 1465 1349 q 1463 1299 1463 1322 q 1492 1157 1463 1217 l 1481 1157 z "},"K":{"ha":1685,"x_min":-19,"x_max":2100,"o":"m 1051 535 q 1279 565 1189 535 q 1424 638 1369 594 q 1543 756 1478 682 q 1673 882 1614 835 q 1836 962 1732 929 q 2100 994 1940 994 l 2100 981 q 1938 955 2003 981 q 1834 892 1874 929 q 1743 788 1794 854 q 1619 652 1678 704 q 1447 563 1560 600 q 1156 526 1335 526 l 1156 519 q 1337 478 1272 519 q 1401 371 1401 438 q 1386 309 1401 340 q 1336 222 1371 278 q 1290 144 1306 175 q 1274 83 1274 113 q 1290 39 1274 54 q 1335 24 1307 24 q 1470 87 1392 24 q 1688 321 1549 150 l 1710 321 q 1531 110 1606 185 q 1399 6 1457 36 q 1282 -24 1342 -24 q 1169 13 1215 -24 q 1124 118 1124 49 q 1147 208 1124 163 q 1214 319 1169 253 q 1256 387 1242 361 q 1271 432 1271 413 q 1210 493 1271 476 q 1050 510 1150 510 l 1051 535 m 1544 936 q 1356 863 1435 906 q 1187 728 1278 821 q 971 461 1096 635 q 606 88 779 199 q 260 -22 432 -22 q 114 5 178 -22 q 15 80 50 32 q -19 188 -19 128 q 8 272 -19 239 q 69 304 35 304 q 104 292 90 304 q 118 261 118 279 q 107 233 118 243 q 72 211 96 224 q 31 185 44 197 q 18 149 18 172 q 44 78 18 111 q 117 26 71 46 q 217 7 163 7 q 401 59 317 7 q 556 192 485 111 q 744 428 626 272 q 838 551 783 481 q 1018 753 932 675 q 1214 880 1104 832 q 1468 933 1324 928 l 1468 943 q 1297 954 1368 942 q 1131 992 1226 967 q 1000 1023 1057 1013 q 874 1033 943 1033 q 572 971 678 1033 q 403 803 467 908 l 381 803 q 484 952 415 876 q 659 1081 553 1028 q 896 1133 765 1133 q 1043 1113 978 1133 q 1197 1050 1108 1092 q 1352 987 1286 1008 q 1501 965 1418 965 q 1644 995 1575 965 q 1788 1071 1714 1025 l 1799 1060 q 1662 982 1733 1014 q 1544 936 1590 950 z "},"Ķ":{"ha":1685,"x_min":-19,"x_max":2100,"o":"m 1051 535 q 1279 565 1189 535 q 1424 638 1369 594 q 1543 756 1478 682 q 1673 882 1614 835 q 1836 962 1732 929 q 2100 994 1940 994 l 2100 981 q 1938 955 2003 981 q 1834 892 1874 929 q 1743 788 1794 854 q 1619 652 1678 704 q 1447 563 1560 600 q 1156 526 1335 526 l 1156 519 q 1337 478 1272 519 q 1401 371 1401 438 q 1386 309 1401 340 q 1336 222 1371 278 q 1290 144 1306 175 q 1274 83 1274 113 q 1290 39 1274 54 q 1335 24 1307 24 q 1470 87 1392 24 q 1688 321 1549 150 l 1710 321 q 1531 110 1606 185 q 1399 6 1457 36 q 1282 -24 1342 -24 q 1169 13 1215 -24 q 1124 118 1124 49 q 1147 208 1124 163 q 1214 319 1169 253 q 1256 387 1242 361 q 1271 432 1271 413 q 1210 493 1271 476 q 1050 510 1150 510 l 1051 535 m 1544 936 q 1356 863 1435 906 q 1187 728 1278 821 q 971 461 1096 635 q 606 88 779 199 q 260 -22 432 -22 q 114 5 178 -22 q 15 80 50 32 q -19 188 -19 128 q 8 272 -19 239 q 69 304 35 304 q 104 292 90 304 q 118 261 118 279 q 107 233 118 243 q 72 211 96 224 q 31 185 44 197 q 18 149 18 172 q 44 78 18 111 q 117 26 71 46 q 217 7 163 7 q 401 59 317 7 q 556 192 485 111 q 744 428 626 272 q 838 551 783 481 q 1018 753 932 675 q 1214 880 1104 832 q 1468 933 1324 928 l 1468 943 q 1297 954 1368 942 q 1131 992 1226 967 q 1000 1023 1057 1013 q 874 1033 943 1033 q 572 971 678 1033 q 403 803 467 908 l 381 803 q 484 952 415 876 q 659 1081 553 1028 q 896 1133 765 1133 q 1043 1113 978 1133 q 1197 1050 1108 1092 q 1352 987 1286 1008 q 1501 965 1418 965 q 1644 995 1575 965 q 1788 1071 1714 1025 l 1799 1060 q 1662 982 1733 1014 q 1544 936 1590 950 m 785 -179 q 763 -151 763 -179 q 776 -102 763 -131 q 810 -53 789 -74 q 854 -33 832 -33 q 885 -68 885 -33 q 831 -188 885 -132 q 703 -269 776 -244 l 696 -257 q 776 -215 749 -236 q 814 -165 803 -193 l 808 -165 q 785 -179 797 -179 z "},"L":{"ha":1415,"x_min":19,"x_max":1763,"o":"m 288 -22 q 155 3 217 -22 q 56 72 93 28 q 19 168 19 115 q 62 276 19 232 q 203 321 104 321 q 326 300 268 321 q 432 249 385 279 q 550 165 479 218 q 675 76 622 110 q 793 20 728 43 q 933 -3 858 -3 q 1194 81 1079 -3 q 1371 321 1308 164 l 1393 321 q 1217 74 1336 169 q 921 -22 1097 -22 q 628 15 747 -22 q 443 101 510 53 q 307 221 376 150 q 238 283 263 265 q 185 301 214 301 q 122 263 142 301 q 103 171 103 225 q 153 40 103 83 q 281 -3 204 -3 q 451 67 367 -3 q 602 230 535 136 q 754 463 669 324 l 810 551 q 1433 933 1044 919 l 1433 943 q 1269 954 1336 942 q 1108 992 1203 967 q 974 1024 1032 1014 q 843 1035 917 1035 q 349 739 482 1035 l 326 739 q 431 921 360 831 q 614 1072 503 1011 q 865 1133 725 1133 q 1013 1113 947 1133 q 1165 1050 1079 1092 q 1317 987 1250 1008 q 1467 965 1383 965 q 1610 995 1540 965 q 1753 1071 1679 1025 l 1763 1060 q 1624 981 1696 1014 q 1510 936 1551 947 q 1305 867 1382 904 q 1141 742 1228 831 q 936 475 1054 653 q 745 215 832 318 q 544 45 658 113 q 288 -22 429 -22 z "},"Ĺ":{"ha":1415,"x_min":19,"x_max":1763,"o":"m 288 -22 q 155 3 217 -22 q 56 72 93 28 q 19 168 19 115 q 62 276 19 232 q 203 321 104 321 q 326 300 268 321 q 432 249 385 279 q 550 165 479 218 q 675 76 622 110 q 793 20 728 43 q 933 -3 858 -3 q 1194 81 1079 -3 q 1371 321 1308 164 l 1393 321 q 1217 74 1336 169 q 921 -22 1097 -22 q 628 15 747 -22 q 443 101 510 53 q 307 221 376 150 q 238 283 263 265 q 185 301 214 301 q 122 263 142 301 q 103 171 103 225 q 153 40 103 83 q 281 -3 204 -3 q 451 67 367 -3 q 602 230 535 136 q 754 463 669 324 l 810 551 q 1433 933 1044 919 l 1433 943 q 1269 954 1336 942 q 1108 992 1203 967 q 974 1024 1032 1014 q 843 1035 917 1035 q 349 739 482 1035 l 326 739 q 431 921 360 831 q 614 1072 503 1011 q 865 1133 725 1133 q 1013 1113 947 1133 q 1165 1050 1079 1092 q 1317 987 1250 1008 q 1467 965 1383 965 q 1610 995 1540 965 q 1753 1071 1679 1025 l 1763 1060 q 1624 981 1696 1014 q 1510 936 1551 947 q 1305 867 1382 904 q 1141 742 1228 831 q 936 475 1054 653 q 745 215 832 318 q 544 45 658 113 q 288 -22 429 -22 m 1572 1325 q 1436 1232 1518 1278 q 1292 1165 1354 1186 l 1283 1169 q 1435 1261 1360 1203 q 1546 1369 1510 1319 l 1572 1325 z "},"Ľ":{"ha":1415,"x_min":19,"x_max":1763,"o":"m 288 -22 q 155 3 217 -22 q 56 72 93 28 q 19 168 19 115 q 62 276 19 232 q 203 321 104 321 q 326 300 268 321 q 432 249 385 279 q 550 165 479 218 q 675 76 622 110 q 793 20 728 43 q 933 -3 858 -3 q 1194 81 1079 -3 q 1371 321 1308 164 l 1393 321 q 1217 74 1336 169 q 921 -22 1097 -22 q 628 15 747 -22 q 443 101 510 53 q 307 221 376 150 q 238 283 263 265 q 185 301 214 301 q 122 263 142 301 q 103 171 103 225 q 153 40 103 83 q 281 -3 204 -3 q 451 67 367 -3 q 602 230 535 136 q 754 463 669 324 l 810 551 q 1433 933 1044 919 l 1433 943 q 1269 954 1336 942 q 1108 992 1203 967 q 974 1024 1032 1014 q 843 1035 917 1035 q 349 739 482 1035 l 326 739 q 431 921 360 831 q 614 1072 503 1011 q 865 1133 725 1133 q 1013 1113 947 1133 q 1165 1050 1079 1092 q 1317 987 1250 1008 q 1467 965 1383 965 q 1610 995 1540 965 q 1753 1071 1679 1025 l 1763 1060 q 1624 981 1696 1014 q 1510 936 1551 947 q 1305 867 1382 904 q 1141 742 1228 831 q 936 475 1054 653 q 745 215 832 318 q 544 45 658 113 q 288 -22 429 -22 m 1467 693 q 1444 721 1444 693 q 1458 771 1444 743 q 1492 819 1471 799 q 1536 839 1514 839 q 1567 804 1567 839 q 1513 684 1567 740 q 1385 603 1458 628 l 1378 615 q 1458 658 1431 636 q 1496 707 1485 679 l 1490 707 q 1467 693 1478 693 z "},"Ļ":{"ha":1415,"x_min":19,"x_max":1763,"o":"m 288 -22 q 155 3 217 -22 q 56 72 93 28 q 19 168 19 115 q 62 276 19 232 q 203 321 104 321 q 326 300 268 321 q 432 249 385 279 q 550 165 479 218 q 675 76 622 110 q 793 20 728 43 q 933 -3 858 -3 q 1194 81 1079 -3 q 1371 321 1308 164 l 1393 321 q 1217 74 1336 169 q 921 -22 1097 -22 q 628 15 747 -22 q 443 101 510 53 q 307 221 376 150 q 238 283 263 265 q 185 301 214 301 q 122 263 142 301 q 103 171 103 225 q 153 40 103 83 q 281 -3 204 -3 q 451 67 367 -3 q 602 230 535 136 q 754 463 669 324 l 810 551 q 1433 933 1044 919 l 1433 943 q 1269 954 1336 942 q 1108 992 1203 967 q 974 1024 1032 1014 q 843 1035 917 1035 q 349 739 482 1035 l 326 739 q 431 921 360 831 q 614 1072 503 1011 q 865 1133 725 1133 q 1013 1113 947 1133 q 1165 1050 1079 1092 q 1317 987 1250 1008 q 1467 965 1383 965 q 1610 995 1540 965 q 1753 1071 1679 1025 l 1763 1060 q 1624 981 1696 1014 q 1510 936 1551 947 q 1305 867 1382 904 q 1141 742 1228 831 q 936 475 1054 653 q 745 215 832 318 q 544 45 658 113 q 288 -22 429 -22 m 447 -193 q 425 -165 425 -193 q 438 -116 425 -144 q 473 -67 451 -87 q 517 -47 494 -47 q 547 -82 547 -47 q 493 -202 547 -146 q 365 -283 439 -258 l 358 -271 q 438 -228 411 -250 q 476 -179 465 -207 l 471 -179 q 447 -193 460 -193 z "},"Ł":{"ha":1371,"x_min":19,"x_max":1763,"o":"m 288 -22 q 155 3 217 -22 q 56 72 93 28 q 19 168 19 115 q 62 276 19 232 q 203 321 104 321 q 326 300 268 321 q 432 249 385 279 q 550 165 479 218 q 675 76 622 110 q 793 20 728 43 q 933 -3 858 -3 q 1194 81 1079 -3 q 1371 321 1308 164 l 1393 321 q 1217 74 1336 169 q 921 -22 1097 -22 q 614 17 739 -22 q 420 109 489 57 q 285 231 351 161 q 228 285 249 268 q 185 301 207 301 q 122 263 142 301 q 103 171 103 225 q 153 40 103 83 q 281 -3 204 -3 q 439 60 361 -3 q 579 210 517 124 q 725 429 642 296 q 803 551 789 531 q 1076 827 924 729 q 1433 933 1229 925 l 1433 943 q 1266 953 1335 942 q 1100 989 1197 965 q 962 1019 1015 1010 q 839 1028 908 1028 q 524 949 639 1028 q 349 739 408 871 l 326 739 q 431 921 360 831 q 614 1072 503 1011 q 865 1133 725 1133 q 1013 1113 947 1133 q 1165 1050 1079 1092 q 1317 987 1250 1008 q 1467 965 1383 965 q 1610 995 1540 965 q 1753 1071 1679 1025 l 1763 1060 q 1624 981 1696 1014 q 1510 936 1551 947 q 1306 868 1382 904 q 1143 743 1229 832 q 936 475 1057 654 q 743 215 829 317 q 543 45 657 113 q 288 -22 429 -22 m 1351 671 q 1263 607 1313 633 q 1118 567 1213 581 q 1029 561 1078 561 q 973 563 1006 561 q 924 565 940 564 q 821 569 874 569 q 735 564 774 569 q 603 529 678 556 q 494 479 528 503 l 483 496 q 592 545 515 518 q 732 582 669 572 q 833 589 778 589 q 942 583 872 589 q 1039 578 1008 578 q 1115 583 1081 578 q 1253 621 1204 596 q 1340 682 1301 646 l 1351 671 z "},"M":{"ha":1985,"x_min":8,"x_max":2518,"o":"m 2518 1114 q 2283 1051 2374 1117 q 2132 856 2192 985 q 2011 501 2072 726 q 1876 222 1967 340 q 1660 41 1786 104 q 1386 -22 1535 -22 l 1374 -3 q 1674 144 1550 -3 q 1872 547 1799 292 q 2053 926 1942 789 q 2333 1106 2164 1064 l 2333 1115 q 1945 984 2110 1113 q 1658 592 1781 856 q 1356 161 1522 310 q 964 -22 1190 13 l 956 -8 q 1093 102 1040 22 q 1175 282 1146 182 q 1238 547 1204 382 q 1409 930 1290 803 q 1683 1104 1528 1057 l 1683 1114 q 1409 1047 1522 1113 q 1222 883 1296 981 q 1047 618 1147 786 l 1021 574 q 796 247 903 375 q 568 48 689 118 q 307 -22 447 -22 q 147 14 215 -22 q 44 107 79 50 q 8 225 8 164 q 36 317 8 282 q 108 353 64 353 q 143 340 129 353 q 157 310 157 328 q 147 282 157 294 q 114 251 136 269 q 72 211 86 229 q 57 164 57 193 q 93 81 57 119 q 186 19 129 42 q 301 -3 243 -3 q 538 62 435 -3 q 729 247 640 126 q 939 576 818 367 q 1149 888 1051 774 q 1394 1068 1246 1003 q 1769 1133 1542 1133 l 1881 1133 l 1881 1113 q 1638 1050 1732 1113 q 1489 867 1544 988 q 1393 549 1433 746 q 1203 139 1333 260 l 1211 129 q 1560 574 1414 240 q 1735 867 1647 753 q 1983 1057 1822 981 q 2400 1133 2143 1133 l 2518 1133 l 2518 1114 z "},"N":{"ha":2228,"x_min":8,"x_max":2592,"o":"m 1868 1115 q 1612 1049 1700 1115 q 1485 872 1524 982 q 1394 528 1446 763 q 1262 212 1357 351 q 1003 19 1167 72 l 1003 10 q 1267 85 1158 19 q 1445 240 1376 150 q 1600 475 1514 329 l 1618 506 q 1841 842 1739 710 q 2060 1054 1943 975 q 2315 1133 2178 1133 q 2522 1066 2451 1132 q 2592 899 2592 1000 q 2562 795 2592 835 q 2489 756 2532 756 q 2450 768 2464 756 q 2436 800 2436 781 q 2448 834 2436 821 q 2483 864 2460 847 q 2529 902 2514 883 q 2544 956 2544 921 q 2483 1069 2544 1025 q 2318 1114 2422 1114 q 2103 1048 2196 1114 q 1928 864 2010 982 q 1707 506 1846 746 q 1497 210 1599 319 q 1244 40 1394 100 q 861 -22 1093 -19 l 750 -22 l 750 -3 q 1001 55 915 -3 q 1128 216 1088 113 q 1218 538 1168 319 q 1383 917 1271 778 q 1671 1101 1496 1057 l 1669 1111 q 1391 1033 1500 1094 q 1219 888 1282 971 q 1081 668 1157 806 q 1056 624 1068 647 q 1026 574 1043 600 q 811 257 914 385 q 583 53 708 129 q 307 -22 458 -22 q 138 13 206 -22 q 40 105 71 49 q 8 225 8 161 q 36 317 8 282 q 108 353 64 353 q 143 340 129 353 q 157 310 157 328 q 147 282 157 294 q 114 251 136 269 q 72 211 86 229 q 57 164 57 193 q 90 80 57 118 q 180 19 124 42 q 301 -3 236 -3 q 541 63 435 -3 q 738 251 647 129 q 939 574 829 372 q 1142 883 1047 769 q 1383 1063 1236 997 q 1757 1133 1529 1129 l 1868 1133 l 1868 1115 z "},"Ń":{"ha":2228,"x_min":8,"x_max":2592,"o":"m 1868 1115 q 1612 1049 1700 1115 q 1485 872 1524 982 q 1394 528 1446 763 q 1262 212 1357 351 q 1003 19 1167 72 l 1003 10 q 1267 85 1158 19 q 1445 240 1376 150 q 1600 475 1514 329 l 1618 506 q 1841 842 1739 710 q 2060 1054 1943 975 q 2315 1133 2178 1133 q 2522 1066 2451 1132 q 2592 899 2592 1000 q 2562 795 2592 835 q 2489 756 2532 756 q 2450 768 2464 756 q 2436 800 2436 781 q 2448 834 2436 821 q 2483 864 2460 847 q 2529 902 2514 883 q 2544 956 2544 921 q 2483 1069 2544 1025 q 2318 1114 2422 1114 q 2103 1048 2196 1114 q 1928 864 2010 982 q 1707 506 1846 746 q 1497 210 1599 319 q 1244 40 1394 100 q 861 -22 1093 -19 l 750 -22 l 750 -3 q 1001 55 915 -3 q 1128 216 1088 113 q 1218 538 1168 319 q 1383 917 1271 778 q 1671 1101 1496 1057 l 1669 1111 q 1391 1033 1500 1094 q 1219 888 1282 971 q 1081 668 1157 806 q 1056 624 1068 647 q 1026 574 1043 600 q 811 257 914 385 q 583 53 708 129 q 307 -22 458 -22 q 138 13 206 -22 q 40 105 71 49 q 8 225 8 161 q 36 317 8 282 q 108 353 64 353 q 143 340 129 353 q 157 310 157 328 q 147 282 157 294 q 114 251 136 269 q 72 211 86 229 q 57 164 57 193 q 90 80 57 118 q 180 19 124 42 q 301 -3 236 -3 q 541 63 435 -3 q 738 251 647 129 q 939 574 829 372 q 1142 883 1047 769 q 1383 1063 1236 997 q 1757 1133 1529 1129 l 1868 1133 l 1868 1115 m 1978 1325 q 1842 1232 1924 1278 q 1697 1165 1760 1186 l 1689 1169 q 1840 1261 1765 1203 q 1951 1369 1915 1319 l 1978 1325 z "},"Ň":{"ha":2228,"x_min":8,"x_max":2592,"o":"m 1868 1115 q 1612 1049 1700 1115 q 1485 872 1524 982 q 1394 528 1446 763 q 1262 212 1357 351 q 1003 19 1167 72 l 1003 10 q 1267 85 1158 19 q 1445 240 1376 150 q 1600 475 1514 329 l 1618 506 q 1841 842 1739 710 q 2060 1054 1943 975 q 2315 1133 2178 1133 q 2522 1066 2451 1132 q 2592 899 2592 1000 q 2562 795 2592 835 q 2489 756 2532 756 q 2450 768 2464 756 q 2436 800 2436 781 q 2448 834 2436 821 q 2483 864 2460 847 q 2529 902 2514 883 q 2544 956 2544 921 q 2483 1069 2544 1025 q 2318 1114 2422 1114 q 2103 1048 2196 1114 q 1928 864 2010 982 q 1707 506 1846 746 q 1497 210 1599 319 q 1244 40 1394 100 q 861 -22 1093 -19 l 750 -22 l 750 -3 q 1001 55 915 -3 q 1128 216 1088 113 q 1218 538 1168 319 q 1383 917 1271 778 q 1671 1101 1496 1057 l 1669 1111 q 1391 1033 1500 1094 q 1219 888 1282 971 q 1081 668 1157 806 q 1056 624 1068 647 q 1026 574 1043 600 q 811 257 914 385 q 583 53 708 129 q 307 -22 458 -22 q 138 13 206 -22 q 40 105 71 49 q 8 225 8 161 q 36 317 8 282 q 108 353 64 353 q 143 340 129 353 q 157 310 157 328 q 147 282 157 294 q 114 251 136 269 q 72 211 86 229 q 57 164 57 193 q 90 80 57 118 q 180 19 124 42 q 301 -3 236 -3 q 541 63 435 -3 q 738 251 647 129 q 939 574 829 372 q 1142 883 1047 769 q 1383 1063 1236 997 q 1757 1133 1529 1129 l 1868 1133 l 1868 1115 m 1747 1378 q 1780 1320 1765 1356 q 1800 1254 1794 1285 q 1919 1328 1836 1289 q 2053 1378 2003 1368 l 2086 1378 q 1775 1172 1894 1318 l 1763 1182 q 1764 1199 1763 1186 q 1765 1236 1765 1213 q 1736 1378 1765 1318 l 1747 1378 z "},"Ņ":{"ha":2228,"x_min":8,"x_max":2592,"o":"m 1868 1115 q 1612 1049 1700 1115 q 1485 872 1524 982 q 1394 528 1446 763 q 1262 212 1357 351 q 1003 19 1167 72 l 1003 10 q 1267 85 1158 19 q 1445 240 1376 150 q 1600 475 1514 329 l 1618 506 q 1841 842 1739 710 q 2060 1054 1943 975 q 2315 1133 2178 1133 q 2522 1066 2451 1132 q 2592 899 2592 1000 q 2562 795 2592 835 q 2489 756 2532 756 q 2450 768 2464 756 q 2436 800 2436 781 q 2448 834 2436 821 q 2483 864 2460 847 q 2529 902 2514 883 q 2544 956 2544 921 q 2483 1069 2544 1025 q 2318 1114 2422 1114 q 2103 1048 2196 1114 q 1928 864 2010 982 q 1707 506 1846 746 q 1497 210 1599 319 q 1244 40 1394 100 q 861 -22 1093 -19 l 750 -22 l 750 -3 q 1001 55 915 -3 q 1128 216 1088 113 q 1218 538 1168 319 q 1383 917 1271 778 q 1671 1101 1496 1057 l 1669 1111 q 1391 1033 1500 1094 q 1219 888 1282 971 q 1081 668 1157 806 q 1056 624 1068 647 q 1026 574 1043 600 q 811 257 914 385 q 583 53 708 129 q 307 -22 458 -22 q 138 13 206 -22 q 40 105 71 49 q 8 225 8 161 q 36 317 8 282 q 108 353 64 353 q 143 340 129 353 q 157 310 157 328 q 147 282 157 294 q 114 251 136 269 q 72 211 86 229 q 57 164 57 193 q 90 80 57 118 q 180 19 124 42 q 301 -3 236 -3 q 541 63 435 -3 q 738 251 647 129 q 939 574 829 372 q 1142 883 1047 769 q 1383 1063 1236 997 q 1757 1133 1529 1129 l 1868 1133 l 1868 1115 m 901 -179 q 879 -151 879 -179 q 892 -102 879 -131 q 927 -53 906 -74 q 971 -33 949 -33 q 1001 -68 1001 -33 q 947 -188 1001 -132 q 819 -269 893 -244 l 813 -257 q 892 -215 865 -236 q 931 -165 919 -193 l 925 -165 q 901 -179 914 -179 z "},"Ñ":{"ha":2228,"x_min":8,"x_max":2592,"o":"m 1868 1115 q 1612 1049 1700 1115 q 1485 872 1524 982 q 1394 528 1446 763 q 1262 212 1357 351 q 1003 19 1167 72 l 1003 10 q 1267 85 1158 19 q 1445 240 1376 150 q 1600 475 1514 329 l 1618 506 q 1841 842 1739 710 q 2060 1054 1943 975 q 2315 1133 2178 1133 q 2522 1066 2451 1132 q 2592 899 2592 1000 q 2562 795 2592 835 q 2489 756 2532 756 q 2450 768 2464 756 q 2436 800 2436 781 q 2448 834 2436 821 q 2483 864 2460 847 q 2529 902 2514 883 q 2544 956 2544 921 q 2483 1069 2544 1025 q 2318 1114 2422 1114 q 2103 1048 2196 1114 q 1928 864 2010 982 q 1707 506 1846 746 q 1497 210 1599 319 q 1244 40 1394 100 q 861 -22 1093 -19 l 750 -22 l 750 -3 q 1001 55 915 -3 q 1128 216 1088 113 q 1218 538 1168 319 q 1383 917 1271 778 q 1671 1101 1496 1057 l 1669 1111 q 1391 1033 1500 1094 q 1219 888 1282 971 q 1081 668 1157 806 q 1056 624 1068 647 q 1026 574 1043 600 q 811 257 914 385 q 583 53 708 129 q 307 -22 458 -22 q 138 13 206 -22 q 40 105 71 49 q 8 225 8 161 q 36 317 8 282 q 108 353 64 353 q 143 340 129 353 q 157 310 157 328 q 147 282 157 294 q 114 251 136 269 q 72 211 86 229 q 57 164 57 193 q 90 80 57 118 q 180 19 124 42 q 301 -3 236 -3 q 541 63 435 -3 q 738 251 647 129 q 939 574 829 372 q 1142 883 1047 769 q 1383 1063 1236 997 q 1757 1133 1529 1129 l 1868 1133 l 1868 1115 m 1794 1250 q 1835 1242 1808 1250 q 1868 1232 1863 1233 q 1936 1214 1919 1214 q 1973 1222 1950 1214 q 2015 1240 1996 1231 l 2022 1236 q 1972 1208 1983 1214 q 1890 1183 1924 1183 q 1824 1201 1865 1183 q 1788 1213 1806 1208 q 1756 1218 1771 1218 q 1715 1210 1739 1218 q 1667 1193 1690 1203 l 1660 1197 q 1715 1225 1664 1200 q 1794 1250 1765 1250 z "},"O":{"ha":1117,"x_min":147,"x_max":1383,"o":"m 1058 1133 q 1270 1084 1193 1133 q 1383 965 1347 1035 l 1368 953 q 1257 1071 1339 1026 q 1075 1115 1175 1115 q 717 981 900 1115 q 416 641 535 846 q 297 242 297 436 q 357 56 297 114 q 518 -3 417 -3 q 830 115 663 -3 q 1112 415 997 233 q 1226 778 1226 597 q 1178 928 1226 886 q 1060 969 1129 969 q 824 872 939 969 q 637 634 710 774 q 564 381 564 494 q 588 303 564 328 q 650 278 611 278 q 810 350 724 278 q 956 523 896 422 q 1017 700 1017 624 q 960 764 1017 764 q 822 689 901 764 l 811 699 q 886 758 840 731 q 982 786 932 786 q 1048 762 1022 786 q 1074 690 1074 738 q 1006 508 1074 611 q 836 332 939 406 q 633 258 733 258 q 539 292 579 258 q 499 392 499 326 q 582 653 499 511 q 798 892 665 794 q 1072 989 931 989 q 1245 915 1186 989 q 1304 721 1304 840 q 1184 371 1304 544 q 877 88 1064 197 q 503 -22 690 -22 q 334 13 415 -22 q 200 122 253 47 q 147 311 147 197 q 281 706 147 515 q 626 1015 414 897 q 1058 1133 838 1133 z "},"Ó":{"ha":1117,"x_min":147,"x_max":1389,"o":"m 1058 1133 q 1270 1084 1193 1133 q 1383 965 1347 1035 l 1368 953 q 1257 1071 1339 1026 q 1075 1115 1175 1115 q 717 981 900 1115 q 416 641 535 846 q 297 242 297 436 q 357 56 297 114 q 518 -3 417 -3 q 830 115 663 -3 q 1112 415 997 233 q 1226 778 1226 597 q 1178 928 1226 886 q 1060 969 1129 969 q 824 872 939 969 q 637 634 710 774 q 564 381 564 494 q 588 303 564 328 q 650 278 611 278 q 810 350 724 278 q 956 523 896 422 q 1017 700 1017 624 q 960 764 1017 764 q 822 689 901 764 l 811 699 q 886 758 840 731 q 982 786 932 786 q 1048 762 1022 786 q 1074 690 1074 738 q 1006 508 1074 611 q 836 332 939 406 q 633 258 733 258 q 539 292 579 258 q 499 392 499 326 q 582 653 499 511 q 798 892 665 794 q 1072 989 931 989 q 1245 915 1186 989 q 1304 721 1304 840 q 1184 371 1304 544 q 877 88 1064 197 q 503 -22 690 -22 q 334 13 415 -22 q 200 122 253 47 q 147 311 147 197 q 281 706 147 515 q 626 1015 414 897 q 1058 1133 838 1133 m 1389 1325 q 1253 1232 1335 1278 q 1108 1165 1171 1186 l 1100 1169 q 1251 1261 1176 1203 q 1363 1369 1326 1319 l 1389 1325 z "},"Ô":{"ha":1117,"x_min":147,"x_max":1383,"o":"m 1058 1133 q 1270 1084 1193 1133 q 1383 965 1347 1035 l 1368 953 q 1257 1071 1339 1026 q 1075 1115 1175 1115 q 717 981 900 1115 q 416 641 535 846 q 297 242 297 436 q 357 56 297 114 q 518 -3 417 -3 q 830 115 663 -3 q 1112 415 997 233 q 1226 778 1226 597 q 1178 928 1226 886 q 1060 969 1129 969 q 824 872 939 969 q 637 634 710 774 q 564 381 564 494 q 588 303 564 328 q 650 278 611 278 q 810 350 724 278 q 956 523 896 422 q 1017 700 1017 624 q 960 764 1017 764 q 822 689 901 764 l 811 699 q 886 758 840 731 q 982 786 932 786 q 1048 762 1022 786 q 1074 690 1074 738 q 1006 508 1074 611 q 836 332 939 406 q 633 258 733 258 q 539 292 579 258 q 499 392 499 326 q 582 653 499 511 q 798 892 665 794 q 1072 989 931 989 q 1245 915 1186 989 q 1304 721 1304 840 q 1184 371 1304 544 q 877 88 1064 197 q 503 -22 690 -22 q 334 13 415 -22 q 200 122 253 47 q 147 311 147 197 q 281 706 147 515 q 626 1015 414 897 q 1058 1133 838 1133 m 1358 1157 q 1326 1215 1340 1179 q 1306 1281 1311 1250 q 1187 1206 1269 1246 q 1053 1157 1104 1167 l 1019 1157 q 1331 1363 1211 1217 l 1343 1353 q 1342 1335 1343 1349 q 1340 1299 1340 1322 q 1369 1157 1340 1217 l 1358 1157 z "},"Ö":{"ha":1117,"x_min":147,"x_max":1454,"o":"m 1058 1133 q 1270 1084 1193 1133 q 1383 965 1347 1035 l 1368 953 q 1257 1071 1339 1026 q 1075 1115 1175 1115 q 717 981 900 1115 q 416 641 535 846 q 297 242 297 436 q 357 56 297 114 q 518 -3 417 -3 q 830 115 663 -3 q 1112 415 997 233 q 1226 778 1226 597 q 1178 928 1226 886 q 1060 969 1129 969 q 824 872 939 969 q 637 634 710 774 q 564 381 564 494 q 588 303 564 328 q 650 278 611 278 q 810 350 724 278 q 956 523 896 422 q 1017 700 1017 624 q 960 764 1017 764 q 822 689 901 764 l 811 699 q 886 758 840 731 q 982 786 932 786 q 1048 762 1022 786 q 1074 690 1074 738 q 1006 508 1074 611 q 836 332 939 406 q 633 258 733 258 q 539 292 579 258 q 499 392 499 326 q 582 653 499 511 q 798 892 665 794 q 1072 989 931 989 q 1245 915 1186 989 q 1304 721 1304 840 q 1184 371 1304 544 q 877 88 1064 197 q 503 -22 690 -22 q 334 13 415 -22 q 200 122 253 47 q 147 311 147 197 q 281 706 147 515 q 626 1015 414 897 q 1058 1133 838 1133 m 1233 1343 q 1250 1328 1250 1343 q 1242 1301 1250 1318 q 1167 1222 1219 1261 q 1085 1182 1115 1182 q 1068 1200 1068 1182 q 1075 1224 1068 1207 q 1150 1303 1097 1263 q 1233 1343 1203 1343 m 1435 1343 q 1454 1328 1454 1343 q 1444 1301 1454 1321 q 1369 1222 1422 1263 q 1285 1182 1315 1182 q 1267 1200 1267 1182 q 1272 1222 1267 1211 q 1350 1303 1296 1263 q 1435 1343 1404 1343 z "},"Ò":{"ha":1117,"x_min":147,"x_max":1394,"o":"m 1058 1133 q 1270 1084 1193 1133 q 1383 965 1347 1035 l 1368 953 q 1257 1071 1339 1026 q 1075 1115 1175 1115 q 717 981 900 1115 q 416 641 535 846 q 297 242 297 436 q 357 56 297 114 q 518 -3 417 -3 q 830 115 663 -3 q 1112 415 997 233 q 1226 778 1226 597 q 1178 928 1226 886 q 1060 969 1129 969 q 824 872 939 969 q 637 634 710 774 q 564 381 564 494 q 588 303 564 328 q 650 278 611 278 q 810 350 724 278 q 956 523 896 422 q 1017 700 1017 624 q 960 764 1017 764 q 822 689 901 764 l 811 699 q 886 758 840 731 q 982 786 932 786 q 1048 762 1022 786 q 1074 690 1074 738 q 1006 508 1074 611 q 836 332 939 406 q 633 258 733 258 q 539 292 579 258 q 499 392 499 326 q 582 653 499 511 q 798 892 665 794 q 1072 989 931 989 q 1245 915 1186 989 q 1304 721 1304 840 q 1184 371 1304 544 q 877 88 1064 197 q 503 -22 690 -22 q 334 13 415 -22 q 200 122 253 47 q 147 311 147 197 q 281 706 147 515 q 626 1015 414 897 q 1058 1133 838 1133 m 1132 1369 q 1243 1261 1168 1319 q 1394 1169 1318 1203 l 1386 1165 q 1242 1232 1324 1186 q 1106 1325 1160 1278 l 1132 1369 z "},"Ő":{"ha":1117,"x_min":147,"x_max":1478,"o":"m 1058 1133 q 1270 1084 1193 1133 q 1383 965 1347 1035 l 1368 953 q 1257 1071 1339 1026 q 1075 1115 1175 1115 q 717 981 900 1115 q 416 641 535 846 q 297 242 297 436 q 357 56 297 114 q 518 -3 417 -3 q 830 115 663 -3 q 1112 415 997 233 q 1226 778 1226 597 q 1178 928 1226 886 q 1060 969 1129 969 q 824 872 939 969 q 637 634 710 774 q 564 381 564 494 q 588 303 564 328 q 650 278 611 278 q 810 350 724 278 q 956 523 896 422 q 1017 700 1017 624 q 960 764 1017 764 q 822 689 901 764 l 811 699 q 886 758 840 731 q 982 786 932 786 q 1048 762 1022 786 q 1074 690 1074 738 q 1006 508 1074 611 q 836 332 939 406 q 633 258 733 258 q 539 292 579 258 q 499 392 499 326 q 582 653 499 511 q 798 892 665 794 q 1072 989 931 989 q 1245 915 1186 989 q 1304 721 1304 840 q 1184 371 1304 544 q 877 88 1064 197 q 503 -22 690 -22 q 334 13 415 -22 q 200 122 253 47 q 147 311 147 197 q 281 706 147 515 q 626 1015 414 897 q 1058 1133 838 1133 m 1308 1319 q 1171 1226 1253 1272 q 1026 1160 1089 1179 l 1019 1164 q 1170 1256 1096 1197 q 1281 1364 1244 1314 l 1308 1319 m 1478 1319 q 1342 1226 1424 1272 q 1197 1160 1260 1181 l 1189 1164 q 1340 1256 1265 1197 q 1451 1364 1415 1314 l 1478 1319 z "},"Ō":{"ha":1117,"x_min":147,"x_max":1410,"o":"m 1058 1133 q 1270 1084 1193 1133 q 1383 965 1347 1035 l 1368 953 q 1257 1071 1339 1026 q 1075 1115 1175 1115 q 717 981 900 1115 q 416 641 535 846 q 297 242 297 436 q 357 56 297 114 q 518 -3 417 -3 q 830 115 663 -3 q 1112 415 997 233 q 1226 778 1226 597 q 1178 928 1226 886 q 1060 969 1129 969 q 824 872 939 969 q 637 634 710 774 q 564 381 564 494 q 588 303 564 328 q 650 278 611 278 q 810 350 724 278 q 956 523 896 422 q 1017 700 1017 624 q 960 764 1017 764 q 822 689 901 764 l 811 699 q 886 758 840 731 q 982 786 932 786 q 1048 762 1022 786 q 1074 690 1074 738 q 1006 508 1074 611 q 836 332 939 406 q 633 258 733 258 q 539 292 579 258 q 499 392 499 326 q 582 653 499 511 q 798 892 665 794 q 1072 989 931 989 q 1245 915 1186 989 q 1304 721 1304 840 q 1184 371 1304 544 q 877 88 1064 197 q 503 -22 690 -22 q 334 13 415 -22 q 200 122 253 47 q 147 311 147 197 q 281 706 147 515 q 626 1015 414 897 q 1058 1133 838 1133 m 1396 1189 l 1088 1189 l 1122 1224 l 1410 1224 l 1396 1189 z "},"Ø":{"ha":1117,"x_min":147,"x_max":1429,"o":"m 1058 1133 q 1270 1084 1193 1133 q 1383 965 1347 1035 l 1368 953 q 1257 1071 1339 1026 q 1075 1115 1175 1115 q 717 981 900 1115 q 416 641 535 846 q 297 242 297 436 q 357 56 297 114 q 518 -3 417 -3 q 828 117 661 -3 q 1111 419 996 236 q 1226 778 1226 601 q 1178 928 1226 886 q 1060 969 1129 969 q 824 872 939 969 q 637 634 710 774 q 564 381 564 494 q 588 303 564 328 q 650 278 611 278 q 810 350 724 278 q 956 523 896 422 q 1017 700 1017 624 q 960 764 1017 764 q 822 689 901 764 l 811 699 q 886 758 840 731 q 982 786 932 786 q 1048 762 1022 786 q 1074 690 1074 738 q 1006 508 1074 611 q 836 332 939 406 q 633 258 733 258 q 539 292 579 258 q 499 392 499 326 q 582 653 499 511 q 798 892 665 794 q 1072 989 931 989 q 1245 915 1186 989 q 1304 721 1304 840 q 1184 371 1304 544 q 877 88 1064 197 q 503 -22 690 -22 q 334 13 415 -22 q 200 122 253 47 q 147 311 147 197 q 281 706 147 515 q 626 1015 414 897 q 1058 1133 838 1133 m 1429 1111 l 190 0 l 163 0 l 1401 1111 l 1429 1111 z "},"Õ":{"ha":1117,"x_min":147,"x_max":1433,"o":"m 1058 1133 q 1270 1084 1193 1133 q 1383 965 1347 1035 l 1368 953 q 1257 1071 1339 1026 q 1075 1115 1175 1115 q 717 981 900 1115 q 416 641 535 846 q 297 242 297 436 q 357 56 297 114 q 518 -3 417 -3 q 830 115 663 -3 q 1112 415 997 233 q 1226 778 1226 597 q 1178 928 1226 886 q 1060 969 1129 969 q 824 872 939 969 q 637 634 710 774 q 564 381 564 494 q 588 303 564 328 q 650 278 611 278 q 810 350 724 278 q 956 523 896 422 q 1017 700 1017 624 q 960 764 1017 764 q 822 689 901 764 l 811 699 q 886 758 840 731 q 982 786 932 786 q 1048 762 1022 786 q 1074 690 1074 738 q 1006 508 1074 611 q 836 332 939 406 q 633 258 733 258 q 539 292 579 258 q 499 392 499 326 q 582 653 499 511 q 798 892 665 794 q 1072 989 931 989 q 1245 915 1186 989 q 1304 721 1304 840 q 1184 371 1304 544 q 877 88 1064 197 q 503 -22 690 -22 q 334 13 415 -22 q 200 122 253 47 q 147 311 147 197 q 281 706 147 515 q 626 1015 414 897 q 1058 1133 838 1133 m 1206 1250 q 1247 1242 1219 1250 q 1279 1232 1274 1233 q 1347 1214 1331 1214 q 1384 1222 1361 1214 q 1426 1240 1407 1231 l 1433 1236 q 1383 1208 1394 1214 q 1301 1183 1335 1183 q 1235 1201 1276 1183 q 1199 1213 1217 1208 q 1167 1218 1182 1218 q 1126 1210 1150 1218 q 1078 1193 1101 1203 l 1071 1197 q 1126 1225 1075 1200 q 1206 1250 1176 1250 z "},"Œ":{"ha":2126,"x_min":147,"x_max":2324,"o":"m 1058 1133 q 1207 1107 1150 1133 q 1296 1042 1264 1081 q 1365 938 1328 1004 q 1419 850 1394 885 q 1483 784 1443 815 q 1579 733 1522 753 q 1561 793 1561 758 q 1651 971 1561 893 q 1877 1091 1742 1049 q 2139 1133 2013 1133 q 2281 1101 2238 1133 q 2324 1019 2324 1068 q 2239 870 2324 938 q 2018 760 2154 803 q 1733 706 1882 718 q 1999 636 1783 636 l 1996 619 q 1634 554 1833 617 q 1294 379 1435 492 q 1153 125 1153 267 q 1307 -3 1153 -3 q 1485 26 1392 -3 q 1458 118 1458 63 q 1513 297 1458 201 q 1660 456 1567 392 q 1864 521 1754 521 q 1960 493 1928 521 q 1993 421 1993 465 q 1926 270 1993 347 q 1750 128 1858 193 q 1521 24 1642 64 q 1601 -3 1551 -3 q 1856 82 1722 -3 q 2142 321 1990 167 l 2164 321 q 1867 66 2007 154 q 1601 -22 1726 -22 q 1496 14 1532 -22 q 1278 -22 1372 -22 q 1079 25 1160 -22 q 996 169 999 72 q 757 28 885 79 q 503 -22 629 -22 q 334 13 415 -22 q 200 122 253 47 q 147 311 147 197 q 281 706 147 515 q 626 1015 414 897 q 1058 1133 838 1133 m 297 242 q 357 56 297 114 q 518 -3 417 -3 q 828 117 661 -3 q 1111 419 996 236 q 1226 778 1226 601 q 1178 928 1226 886 q 1060 969 1129 969 q 824 872 939 969 q 637 634 710 774 q 564 381 564 494 q 588 303 564 328 q 650 278 611 278 q 810 350 724 278 q 956 523 896 422 q 1017 700 1017 624 q 960 764 1017 764 q 822 689 901 764 l 811 699 q 886 758 840 731 q 982 786 932 786 q 1048 762 1022 786 q 1074 690 1074 738 q 1006 508 1074 611 q 836 332 939 406 q 633 258 733 258 q 539 292 579 258 q 499 392 499 326 q 582 653 499 511 q 798 892 665 794 q 1072 989 931 989 q 1245 915 1186 989 q 1304 721 1304 840 q 1246 478 1304 601 q 1523 577 1368 540 q 1828 621 1678 614 l 1829 632 q 1589 711 1643 632 q 1481 758 1525 726 q 1409 827 1438 789 q 1347 924 1381 865 q 1280 1026 1310 989 q 1200 1090 1250 1064 q 1075 1115 1150 1115 q 717 981 900 1115 q 416 641 535 846 q 297 242 297 436 m 1510 35 q 1694 126 1608 68 q 1833 258 1781 183 q 1886 413 1886 332 q 1815 479 1886 479 q 1654 420 1731 479 q 1532 274 1578 361 q 1486 115 1486 188 q 1510 35 1486 64 m 1726 724 q 1990 786 1879 736 q 2159 907 2101 836 q 2217 1050 2217 978 q 2126 1114 2217 1114 q 1940 1062 2036 1114 q 1779 931 1843 1010 q 1715 779 1715 851 q 1726 724 1715 747 z "},"P":{"ha":1456,"x_min":-21,"x_max":1736,"o":"m 1736 1108 q 1444 1048 1569 1108 q 1201 856 1318 988 q 921 482 1083 725 q 585 100 750 222 q 238 -22 421 -22 q 41 38 103 -22 q -21 182 -21 97 q 6 269 -21 235 q 68 304 33 304 q 103 292 89 304 q 117 261 117 279 q 106 235 117 244 q 72 213 94 225 q 29 181 43 196 q 15 139 15 167 q 40 69 15 101 q 110 17 65 36 q 213 -3 156 -3 q 395 63 307 -3 q 558 227 483 129 q 742 488 633 325 l 806 583 q 1056 888 936 774 q 1340 1063 1176 1001 q 1736 1125 1503 1125 l 1736 1108 m 979 349 q 1283 404 1151 349 q 1486 553 1415 460 q 1557 758 1557 647 q 1426 1023 1557 932 q 1076 1114 1296 1114 q 832 1067 938 1114 q 664 948 726 1019 q 582 801 601 876 l 560 801 q 644 960 578 885 q 824 1085 710 1036 q 1089 1133 938 1133 q 1419 1088 1278 1133 q 1638 961 1561 1043 q 1715 772 1715 879 q 1631 553 1715 653 q 1376 392 1547 453 q 957 331 1206 331 l 979 349 z "},"Þ":{"ha":1456,"x_min":-21,"x_max":1736,"o":"m 1736 1108 q 1446 1049 1569 1108 q 1207 858 1322 989 q 929 482 1092 728 q 592 99 760 221 q 238 -22 424 -22 q 41 38 103 -22 q -21 182 -21 97 q 6 269 -21 235 q 68 304 33 304 q 103 292 89 304 q 117 261 117 279 q 106 235 117 244 q 72 213 94 225 q 29 181 43 196 q 15 139 15 167 q 40 69 15 101 q 110 17 65 36 q 213 -3 156 -3 q 395 63 307 -3 q 558 227 483 129 q 742 488 633 325 l 806 583 q 1056 888 936 774 q 1340 1063 1176 1001 q 1736 1125 1503 1125 l 1736 1108 m 885 211 q 1189 267 1057 211 q 1392 416 1321 322 q 1463 621 1463 510 q 1332 885 1463 794 q 982 976 1201 976 q 738 929 843 976 q 569 810 632 882 q 486 664 506 739 l 464 664 q 549 823 483 747 q 729 947 615 899 q 994 996 843 996 q 1325 951 1183 996 q 1544 824 1467 906 q 1621 635 1621 742 q 1537 415 1621 515 q 1281 254 1453 315 q 861 193 1110 193 l 885 211 z "},"Q":{"ha":1333,"x_min":-4,"x_max":1335,"o":"m 1169 24 q 1085 -135 1131 -67 q 965 -251 1040 -203 q 781 -300 889 -300 q 623 -268 700 -300 q 428 -171 546 -236 q 278 -92 339 -121 q 147 -43 218 -64 q 3 -22 76 -22 l -4 0 q 669 121 404 0 q 1056 434 935 242 q 1178 847 1178 626 q 1119 1045 1178 976 q 963 1114 1060 1114 q 639 988 807 1114 q 359 674 471 863 q 247 311 247 485 q 298 172 247 217 q 415 128 349 128 q 660 223 543 128 q 849 456 776 318 q 921 708 921 594 q 896 786 921 761 q 831 811 871 811 q 673 740 757 811 q 531 567 589 668 q 472 390 472 467 q 531 325 472 325 q 668 400 589 325 l 676 390 q 511 303 596 303 q 445 327 474 303 q 417 399 417 351 q 483 581 417 478 q 651 758 549 685 q 853 831 753 831 q 947 797 907 831 q 988 697 988 763 q 901 441 988 581 q 680 205 814 301 q 415 108 546 108 q 236 181 301 108 q 171 368 171 253 q 287 716 171 536 q 588 1015 403 896 q 971 1133 774 1133 q 1144 1094 1061 1133 q 1281 974 1228 1054 q 1335 778 1335 894 q 1200 402 1335 583 q 794 104 1065 221 q 136 -12 522 -12 l 136 -19 q 279 -49 215 -29 q 424 -99 343 -68 q 611 -159 532 -139 q 800 -179 690 -179 q 1014 -127 924 -179 q 1151 26 1104 -75 l 1169 24 z "},"R":{"ha":1615,"x_min":-21,"x_max":1757,"o":"m 929 482 q 587 97 751 215 q 238 -22 422 -22 q 41 38 103 -22 q -21 182 -21 97 q 6 269 -21 235 q 68 304 33 304 q 103 292 89 304 q 117 261 117 279 q 106 235 117 244 q 72 213 94 225 q 29 181 43 196 q 15 139 15 167 q 40 69 15 101 q 110 17 65 36 q 213 -3 156 -3 q 402 67 310 -3 q 573 240 494 138 q 764 511 651 342 l 813 583 q 1068 888 940 769 q 1363 1069 1196 1006 q 1757 1133 1531 1133 l 1757 1117 q 1463 1054 1590 1117 q 1216 859 1336 992 q 929 482 1096 726 m 1557 818 q 1424 1039 1557 964 q 1068 1114 1290 1114 q 815 1067 924 1114 q 642 947 706 1019 q 561 801 578 875 l 539 801 q 624 958 556 882 q 812 1084 693 1035 q 1088 1133 931 1133 q 1420 1093 1278 1133 q 1639 982 1563 1053 q 1715 822 1715 911 q 1655 674 1715 739 q 1490 567 1594 608 q 1254 515 1385 526 l 1254 507 q 1360 481 1319 507 q 1400 404 1400 454 q 1383 339 1400 374 q 1326 242 1365 304 q 1271 149 1290 186 q 1251 79 1251 111 q 1268 34 1251 49 q 1313 19 1285 19 q 1442 89 1367 19 q 1631 321 1518 158 l 1653 321 q 1493 110 1557 183 q 1376 7 1429 38 q 1260 -24 1322 -24 q 1151 12 1197 -24 q 1106 113 1106 47 q 1131 206 1106 158 q 1206 322 1157 254 q 1256 399 1240 371 q 1272 449 1272 428 q 1242 488 1272 476 q 1147 500 1211 500 l 1057 500 l 1075 519 q 1334 560 1225 519 q 1500 668 1443 600 q 1557 818 1557 736 z "},"Ŕ":{"ha":1615,"x_min":-21,"x_max":1757,"o":"m 929 482 q 587 97 751 215 q 238 -22 422 -22 q 41 38 103 -22 q -21 182 -21 97 q 6 269 -21 235 q 68 304 33 304 q 103 292 89 304 q 117 261 117 279 q 106 235 117 244 q 72 213 94 225 q 29 181 43 196 q 15 139 15 167 q 40 69 15 101 q 110 17 65 36 q 213 -3 156 -3 q 402 67 310 -3 q 573 240 494 138 q 764 511 651 342 l 813 583 q 1068 888 940 769 q 1363 1069 1196 1006 q 1757 1133 1531 1133 l 1757 1117 q 1463 1054 1590 1117 q 1216 859 1336 992 q 929 482 1096 726 m 1557 818 q 1424 1039 1557 964 q 1068 1114 1290 1114 q 815 1067 924 1114 q 642 947 706 1019 q 561 801 578 875 l 539 801 q 624 958 556 882 q 812 1084 693 1035 q 1088 1133 931 1133 q 1420 1093 1278 1133 q 1639 982 1563 1053 q 1715 822 1715 911 q 1655 674 1715 739 q 1490 567 1594 608 q 1254 515 1385 526 l 1254 507 q 1360 481 1319 507 q 1400 404 1400 454 q 1383 339 1400 374 q 1326 242 1365 304 q 1271 149 1290 186 q 1251 79 1251 111 q 1268 34 1251 49 q 1313 19 1285 19 q 1442 89 1367 19 q 1631 321 1518 158 l 1653 321 q 1493 110 1557 183 q 1376 7 1429 38 q 1260 -24 1322 -24 q 1151 12 1197 -24 q 1106 113 1106 47 q 1131 206 1106 158 q 1206 322 1157 254 q 1256 399 1240 371 q 1272 449 1272 428 q 1242 488 1272 476 q 1147 500 1211 500 l 1057 500 l 1075 519 q 1334 560 1225 519 q 1500 668 1443 600 q 1557 818 1557 736 m 1672 1325 q 1536 1232 1618 1278 q 1392 1165 1454 1186 l 1383 1169 q 1535 1261 1460 1203 q 1646 1369 1610 1319 l 1672 1325 z "},"Ř":{"ha":1615,"x_min":-21,"x_max":1781,"o":"m 929 482 q 587 97 751 215 q 238 -22 422 -22 q 41 38 103 -22 q -21 182 -21 97 q 6 269 -21 235 q 68 304 33 304 q 103 292 89 304 q 117 261 117 279 q 106 235 117 244 q 72 213 94 225 q 29 181 43 196 q 15 139 15 167 q 40 69 15 101 q 110 17 65 36 q 213 -3 156 -3 q 402 67 310 -3 q 573 240 494 138 q 764 511 651 342 l 813 583 q 1068 888 940 769 q 1363 1069 1196 1006 q 1757 1133 1531 1133 l 1757 1117 q 1463 1054 1590 1117 q 1216 859 1336 992 q 929 482 1096 726 m 1557 818 q 1424 1039 1557 964 q 1068 1114 1290 1114 q 815 1067 924 1114 q 642 947 706 1019 q 561 801 578 875 l 539 801 q 624 958 556 882 q 812 1084 693 1035 q 1088 1133 931 1133 q 1420 1093 1278 1133 q 1639 982 1563 1053 q 1715 822 1715 911 q 1655 674 1715 739 q 1490 567 1594 608 q 1254 515 1385 526 l 1254 507 q 1360 481 1319 507 q 1400 404 1400 454 q 1383 339 1400 374 q 1326 242 1365 304 q 1271 149 1290 186 q 1251 79 1251 111 q 1268 34 1251 49 q 1313 19 1285 19 q 1442 89 1367 19 q 1631 321 1518 158 l 1653 321 q 1493 110 1557 183 q 1376 7 1429 38 q 1260 -24 1322 -24 q 1151 12 1197 -24 q 1106 113 1106 47 q 1131 206 1106 158 q 1206 322 1157 254 q 1256 399 1240 371 q 1272 449 1272 428 q 1242 488 1272 476 q 1147 500 1211 500 l 1057 500 l 1075 519 q 1334 560 1225 519 q 1500 668 1443 600 q 1557 818 1557 736 m 1442 1378 q 1474 1320 1460 1356 q 1494 1254 1489 1285 q 1614 1328 1531 1289 q 1747 1378 1697 1368 l 1781 1378 q 1469 1172 1589 1318 l 1457 1182 q 1458 1199 1457 1186 q 1460 1236 1460 1213 q 1431 1378 1460 1318 l 1442 1378 z "},"Ŗ":{"ha":1615,"x_min":-21,"x_max":1757,"o":"m 929 482 q 587 97 751 215 q 238 -22 422 -22 q 41 38 103 -22 q -21 182 -21 97 q 6 269 -21 235 q 68 304 33 304 q 103 292 89 304 q 117 261 117 279 q 106 235 117 244 q 72 213 94 225 q 29 181 43 196 q 15 139 15 167 q 40 69 15 101 q 110 17 65 36 q 213 -3 156 -3 q 402 67 310 -3 q 573 240 494 138 q 764 511 651 342 l 813 583 q 1068 888 940 769 q 1363 1069 1196 1006 q 1757 1133 1531 1133 l 1757 1117 q 1463 1054 1590 1117 q 1216 859 1336 992 q 929 482 1096 726 m 1557 818 q 1424 1039 1557 964 q 1068 1114 1290 1114 q 815 1067 924 1114 q 642 947 706 1019 q 561 801 578 875 l 539 801 q 624 958 556 882 q 812 1084 693 1035 q 1088 1133 931 1133 q 1420 1093 1278 1133 q 1639 982 1563 1053 q 1715 822 1715 911 q 1655 674 1715 739 q 1490 567 1594 608 q 1254 515 1385 526 l 1254 507 q 1360 481 1319 507 q 1400 404 1400 454 q 1383 339 1400 374 q 1326 242 1365 304 q 1271 149 1290 186 q 1251 79 1251 111 q 1268 34 1251 49 q 1313 19 1285 19 q 1442 89 1367 19 q 1631 321 1518 158 l 1653 321 q 1493 110 1557 183 q 1376 7 1429 38 q 1260 -24 1322 -24 q 1151 12 1197 -24 q 1106 113 1106 47 q 1131 206 1106 158 q 1206 322 1157 254 q 1256 399 1240 371 q 1272 449 1272 428 q 1242 488 1272 476 q 1147 500 1211 500 l 1057 500 l 1075 519 q 1334 560 1225 519 q 1500 668 1443 600 q 1557 818 1557 736 m 760 -179 q 738 -151 738 -179 q 751 -102 738 -131 q 785 -53 764 -74 q 829 -33 807 -33 q 860 -68 860 -33 q 806 -188 860 -132 q 678 -269 751 -244 l 671 -257 q 751 -215 724 -236 q 789 -165 778 -193 l 783 -165 q 760 -179 772 -179 z "},"S":{"ha":1283,"x_min":-19,"x_max":1749,"o":"m 260 -22 q 115 5 179 -22 q 16 80 51 32 q -19 188 -19 128 q 8 272 -19 239 q 69 304 35 304 q 104 292 90 304 q 118 261 118 279 q 107 233 118 243 q 72 211 96 224 q 31 185 44 197 q 18 149 18 172 q 47 81 18 113 q 125 30 76 49 q 228 11 174 11 q 430 69 339 11 q 598 222 521 128 q 807 506 675 317 l 839 551 q 1202 956 997 778 q 1639 1133 1407 1133 q 1724 1108 1699 1133 q 1749 1051 1749 1083 q 1693 948 1749 989 q 1547 879 1638 907 q 1281 810 1457 851 q 941 723 1085 763 q 625 616 797 683 q 286 453 453 549 l 272 467 q 632 638 451 568 q 962 750 813 708 q 1297 835 1111 792 q 1539 897 1457 872 q 1669 956 1621 921 q 1718 1046 1718 992 q 1696 1097 1718 1079 q 1632 1114 1674 1114 q 1311 911 1490 1114 q 982 482 1132 708 q 722 174 843 285 q 492 21 601 64 q 260 -22 382 -22 z "},"Ś":{"ha":1283,"x_min":-19,"x_max":1793,"o":"m 260 -22 q 115 5 179 -22 q 16 80 51 32 q -19 188 -19 128 q 8 272 -19 239 q 69 304 35 304 q 104 292 90 304 q 118 261 118 279 q 107 233 118 243 q 72 211 96 224 q 31 185 44 197 q 18 149 18 172 q 47 81 18 113 q 125 30 76 49 q 228 11 174 11 q 430 69 339 11 q 598 222 521 128 q 807 506 675 317 l 839 551 q 1202 956 997 778 q 1639 1133 1407 1133 q 1724 1108 1699 1133 q 1749 1051 1749 1083 q 1693 948 1749 989 q 1547 879 1638 907 q 1281 810 1457 851 q 941 723 1085 763 q 625 616 797 683 q 286 453 453 549 l 272 467 q 632 638 451 568 q 962 750 813 708 q 1297 835 1111 792 q 1539 897 1457 872 q 1669 956 1621 921 q 1718 1046 1718 992 q 1696 1097 1718 1079 q 1632 1114 1674 1114 q 1311 911 1490 1114 q 982 482 1132 708 q 722 174 843 285 q 492 21 601 64 q 260 -22 382 -22 m 1793 1325 q 1657 1232 1739 1278 q 1513 1165 1575 1186 l 1504 1169 q 1656 1261 1581 1203 q 1767 1369 1731 1319 l 1793 1325 z "},"Š":{"ha":1283,"x_min":-19,"x_max":1901,"o":"m 260 -22 q 115 5 179 -22 q 16 80 51 32 q -19 188 -19 128 q 8 272 -19 239 q 69 304 35 304 q 104 292 90 304 q 118 261 118 279 q 107 233 118 243 q 72 211 96 224 q 31 185 44 197 q 18 149 18 172 q 47 81 18 113 q 125 30 76 49 q 228 11 174 11 q 430 69 339 11 q 598 222 521 128 q 807 506 675 317 l 839 551 q 1202 956 997 778 q 1639 1133 1407 1133 q 1724 1108 1699 1133 q 1749 1051 1749 1083 q 1693 948 1749 989 q 1547 879 1638 907 q 1281 810 1457 851 q 941 723 1085 763 q 625 616 797 683 q 286 453 453 549 l 272 467 q 632 638 451 568 q 962 750 813 708 q 1297 835 1111 792 q 1539 897 1457 872 q 1669 956 1621 921 q 1718 1046 1718 992 q 1696 1097 1718 1079 q 1632 1114 1674 1114 q 1311 911 1490 1114 q 982 482 1132 708 q 722 174 843 285 q 492 21 601 64 q 260 -22 382 -22 m 1563 1378 q 1595 1320 1581 1356 q 1615 1254 1610 1285 q 1735 1328 1651 1289 q 1868 1378 1818 1368 l 1901 1378 q 1590 1172 1710 1318 l 1578 1182 q 1579 1199 1578 1186 q 1581 1236 1581 1213 q 1551 1378 1581 1318 l 1563 1378 z "},"Ş":{"ha":1283,"x_min":-19,"x_max":1749,"o":"m 260 -22 q 115 5 179 -22 q 16 80 51 32 q -19 188 -19 128 q 8 272 -19 239 q 69 304 35 304 q 104 292 90 304 q 118 261 118 279 q 107 233 118 243 q 72 211 96 224 q 31 185 44 197 q 18 149 18 172 q 47 81 18 113 q 125 30 76 49 q 228 11 174 11 q 430 69 339 11 q 598 222 521 128 q 807 506 675 317 l 839 551 q 1202 956 997 778 q 1639 1133 1407 1133 q 1724 1108 1699 1133 q 1749 1051 1749 1083 q 1693 948 1749 989 q 1547 879 1638 907 q 1281 810 1457 851 q 941 723 1085 763 q 625 616 797 683 q 286 453 453 549 l 272 467 q 632 638 451 568 q 962 750 813 708 q 1297 835 1111 792 q 1539 897 1457 872 q 1669 956 1621 921 q 1718 1046 1718 992 q 1696 1097 1718 1079 q 1632 1114 1674 1114 q 1311 911 1490 1114 q 982 482 1132 708 q 722 174 843 285 q 492 21 601 64 q 260 -22 382 -22 m 196 -106 q 244 -137 226 -122 q 286 -215 286 -175 q 269 -256 286 -240 q 219 -272 251 -272 q 161 -257 194 -272 q 108 -226 128 -242 l 115 -219 q 150 -238 136 -232 q 181 -244 164 -244 q 228 -227 210 -244 q 246 -185 246 -210 q 232 -146 246 -162 q 181 -106 218 -129 l 196 -106 m 264 -3 l 196 -106 l 181 -106 l 232 -3 l 264 -3 z "},"Ŝ":{"ha":1283,"x_min":-19,"x_max":1774,"o":"m 260 -22 q 115 5 179 -22 q 16 80 51 32 q -19 188 -19 128 q 8 272 -19 239 q 69 304 35 304 q 104 292 90 304 q 118 261 118 279 q 107 233 118 243 q 72 211 96 224 q 31 185 44 197 q 18 149 18 172 q 47 81 18 113 q 125 30 76 49 q 228 11 174 11 q 430 69 339 11 q 598 222 521 128 q 807 506 675 317 l 839 551 q 1202 956 997 778 q 1639 1133 1407 1133 q 1724 1108 1699 1133 q 1749 1051 1749 1083 q 1693 948 1749 989 q 1547 879 1638 907 q 1281 810 1457 851 q 941 723 1085 763 q 625 616 797 683 q 286 453 453 549 l 272 467 q 632 638 451 568 q 962 750 813 708 q 1297 835 1111 792 q 1539 897 1457 872 q 1669 956 1621 921 q 1718 1046 1718 992 q 1696 1097 1718 1079 q 1632 1114 1674 1114 q 1311 911 1490 1114 q 982 482 1132 708 q 722 174 843 285 q 492 21 601 64 q 260 -22 382 -22 m 1763 1157 q 1730 1215 1744 1179 q 1710 1281 1715 1250 q 1591 1206 1674 1246 q 1457 1157 1508 1167 l 1424 1157 q 1735 1363 1615 1217 l 1747 1353 q 1746 1335 1747 1349 q 1744 1299 1744 1322 q 1774 1157 1744 1217 l 1763 1157 z "},"Ș":{"ha":1283,"x_min":-19,"x_max":1749,"o":"m 260 -22 q 115 5 179 -22 q 16 80 51 32 q -19 188 -19 128 q 8 272 -19 239 q 69 304 35 304 q 104 292 90 304 q 118 261 118 279 q 107 233 118 243 q 72 211 96 224 q 31 185 44 197 q 18 149 18 172 q 47 81 18 113 q 125 30 76 49 q 228 11 174 11 q 430 69 339 11 q 598 222 521 128 q 807 506 675 317 l 839 551 q 1202 956 997 778 q 1639 1133 1407 1133 q 1724 1108 1699 1133 q 1749 1051 1749 1083 q 1693 948 1749 989 q 1547 879 1638 907 q 1281 810 1457 851 q 941 723 1085 763 q 625 616 797 683 q 286 453 453 549 l 272 467 q 632 638 451 568 q 962 750 813 708 q 1297 835 1111 792 q 1539 897 1457 872 q 1669 956 1621 921 q 1718 1046 1718 992 q 1696 1097 1718 1079 q 1632 1114 1674 1114 q 1311 911 1490 1114 q 982 482 1132 708 q 722 174 843 285 q 492 21 601 64 q 260 -22 382 -22 m 225 -182 q 203 -154 203 -182 q 216 -105 203 -133 q 251 -56 229 -76 q 294 -36 272 -36 q 325 -71 325 -36 q 271 -191 325 -135 q 143 -272 217 -247 l 136 -260 q 216 -217 189 -239 q 254 -168 243 -196 l 249 -168 q 225 -182 238 -182 z "},"Ə":{"ha":1065,"x_min":151,"x_max":1304,"o":"m 293 729 q 595 1015 422 897 q 957 1133 768 1133 q 1213 1049 1122 1133 q 1304 824 1304 965 q 1180 451 1304 651 q 853 115 1056 251 q 426 -22 650 -22 q 226 22 301 -22 q 151 156 151 65 q 299 383 151 276 q 672 553 447 490 q 1107 611 896 615 l 1096 590 q 688 522 867 590 q 411 347 508 453 q 314 133 314 240 q 354 49 314 76 q 451 22 394 22 q 771 163 604 22 q 1049 511 938 304 q 1160 899 1160 718 q 1112 1051 1160 992 q 957 1111 1064 1111 q 625 1002 797 1111 q 328 729 453 893 l 293 729 z "},"T":{"ha":1519,"x_min":-21,"x_max":2019,"o":"m 1667 947 q 1483 959 1567 947 q 1285 993 1400 971 q 1106 1024 1178 1014 q 953 1035 1035 1035 q 632 971 747 1035 q 450 803 517 907 l 426 803 q 547 958 468 882 q 738 1083 626 1033 q 981 1133 850 1133 q 1174 1110 1086 1133 q 1381 1043 1263 1088 q 1556 985 1485 1004 q 1708 965 1628 965 q 1869 995 1792 965 q 2008 1074 1947 1025 l 2019 1060 q 1856 974 1943 1000 q 1667 947 1768 947 m 1414 914 q 1249 856 1322 900 q 1094 721 1175 813 q 893 460 1014 629 q 547 91 711 204 q 221 -22 382 -22 q 83 7 138 -22 q 4 83 29 36 q -21 182 -21 129 q 6 269 -21 235 q 68 304 33 304 q 103 292 89 304 q 117 261 117 279 q 106 235 117 244 q 72 213 94 225 q 29 181 43 196 q 15 139 15 167 q 40 70 15 103 q 106 18 64 38 q 197 -1 147 -1 q 352 44 282 -1 q 480 159 422 89 q 626 357 538 229 q 768 553 704 471 q 1054 817 897 717 q 1414 933 1211 918 l 1414 914 z "},"Ť":{"ha":1519,"x_min":-21,"x_max":2019,"o":"m 1667 947 q 1483 959 1567 947 q 1285 993 1400 971 q 1106 1024 1178 1014 q 953 1035 1035 1035 q 632 971 747 1035 q 450 803 517 907 l 426 803 q 547 958 468 882 q 738 1083 626 1033 q 981 1133 850 1133 q 1174 1110 1086 1133 q 1381 1043 1263 1088 q 1556 985 1485 1004 q 1708 965 1628 965 q 1869 995 1792 965 q 2008 1074 1947 1025 l 2019 1060 q 1856 974 1943 1000 q 1667 947 1768 947 m 1414 914 q 1249 856 1322 900 q 1094 721 1175 813 q 893 460 1014 629 q 547 91 711 204 q 221 -22 382 -22 q 83 7 138 -22 q 4 83 29 36 q -21 182 -21 129 q 6 269 -21 235 q 68 304 33 304 q 103 292 89 304 q 117 261 117 279 q 106 235 117 244 q 72 213 94 225 q 29 181 43 196 q 15 139 15 167 q 40 70 15 103 q 106 18 64 38 q 197 -1 147 -1 q 352 44 282 -1 q 480 159 422 89 q 626 357 538 229 q 768 553 704 471 q 1054 817 897 717 q 1414 933 1211 918 l 1414 914 m 1393 1378 q 1426 1320 1411 1356 q 1446 1254 1440 1285 q 1565 1328 1482 1289 q 1699 1378 1649 1368 l 1732 1378 q 1421 1172 1540 1318 l 1408 1182 q 1410 1199 1408 1186 q 1411 1236 1411 1213 q 1382 1378 1411 1318 l 1393 1378 z "},"Ţ":{"ha":1519,"x_min":-21,"x_max":2019,"o":"m 1667 947 q 1483 959 1567 947 q 1285 993 1400 971 q 1106 1024 1178 1014 q 953 1035 1035 1035 q 632 971 747 1035 q 450 803 517 907 l 426 803 q 547 958 468 882 q 738 1083 626 1033 q 981 1133 850 1133 q 1174 1110 1086 1133 q 1381 1043 1263 1088 q 1556 985 1485 1004 q 1708 965 1628 965 q 1869 995 1792 965 q 2008 1074 1947 1025 l 2019 1060 q 1856 974 1943 1000 q 1667 947 1768 947 m 1414 914 q 1249 856 1322 900 q 1094 721 1175 813 q 893 460 1014 629 q 547 91 711 204 q 221 -22 382 -22 q 83 7 138 -22 q 4 83 29 36 q -21 182 -21 129 q 6 269 -21 235 q 68 304 33 304 q 103 292 89 304 q 117 261 117 279 q 106 235 117 244 q 72 213 94 225 q 29 181 43 196 q 15 139 15 167 q 40 70 15 103 q 106 18 64 38 q 197 -1 147 -1 q 352 44 282 -1 q 480 159 422 89 q 626 357 538 229 q 768 553 704 471 q 1054 817 897 717 q 1414 933 1211 918 l 1414 914 m 185 -106 q 233 -137 215 -122 q 275 -215 275 -175 q 258 -256 275 -240 q 208 -272 240 -272 q 150 -257 183 -272 q 97 -226 117 -242 l 104 -219 q 139 -238 125 -232 q 169 -244 153 -244 q 217 -227 199 -244 q 235 -185 235 -210 q 221 -146 235 -162 q 169 -106 207 -129 l 185 -106 m 253 -3 l 185 -106 l 169 -106 l 221 -3 l 253 -3 z "},"Ț":{"ha":1519,"x_min":-21,"x_max":2019,"o":"m 1667 947 q 1483 959 1567 947 q 1285 993 1400 971 q 1106 1024 1178 1014 q 953 1035 1035 1035 q 632 971 747 1035 q 450 803 517 907 l 426 803 q 547 958 468 882 q 738 1083 626 1033 q 981 1133 850 1133 q 1174 1110 1086 1133 q 1381 1043 1263 1088 q 1556 985 1485 1004 q 1708 965 1628 965 q 1869 995 1792 965 q 2008 1074 1947 1025 l 2019 1060 q 1856 974 1943 1000 q 1667 947 1768 947 m 1414 914 q 1249 856 1322 900 q 1094 721 1175 813 q 893 460 1014 629 q 547 91 711 204 q 221 -22 382 -22 q 83 7 138 -22 q 4 83 29 36 q -21 182 -21 129 q 6 269 -21 235 q 68 304 33 304 q 103 292 89 304 q 117 261 117 279 q 106 235 117 244 q 72 213 94 225 q 29 181 43 196 q 15 139 15 167 q 40 70 15 103 q 106 18 64 38 q 197 -1 147 -1 q 352 44 282 -1 q 480 159 422 89 q 626 357 538 229 q 768 553 704 471 q 1054 817 897 717 q 1414 933 1211 918 l 1414 914 m 214 -182 q 192 -154 192 -182 q 205 -105 192 -133 q 240 -56 218 -76 q 283 -36 261 -36 q 314 -71 314 -36 q 260 -191 314 -135 q 132 -272 206 -247 l 125 -260 q 205 -217 178 -239 q 243 -168 232 -196 l 238 -168 q 214 -182 226 -182 z "},"U":{"ha":1524,"x_min":361,"x_max":1596,"o":"m 525 283 q 472 132 472 199 q 508 42 472 75 q 596 10 543 10 q 773 86 678 10 q 1023 369 868 163 q 1435 972 1178 575 l 1596 972 l 1089 213 q 1049 99 1049 150 q 1076 28 1049 54 q 1146 1 1103 1 q 1342 97 1239 1 q 1538 321 1446 193 l 1561 321 q 1352 80 1461 182 q 1126 -22 1243 -22 q 1007 20 1053 -22 q 961 132 961 63 q 1033 321 961 218 l 1024 321 q 844 108 918 182 q 709 6 771 35 q 576 -22 647 -22 q 418 34 475 -22 q 361 183 361 90 q 438 407 361 293 l 624 690 q 772 1035 772 918 q 754 1094 772 1075 q 704 1114 736 1114 q 513 1017 596 1114 q 388 797 431 919 l 365 797 q 497 1031 415 929 q 721 1133 579 1133 q 851 1085 807 1133 q 896 958 896 1036 q 840 778 896 868 l 525 283 z "},"Ú":{"ha":1524,"x_min":361,"x_max":1596,"o":"m 525 283 q 472 132 472 199 q 508 42 472 75 q 596 10 543 10 q 773 86 678 10 q 1023 369 868 163 q 1435 972 1178 575 l 1596 972 l 1089 213 q 1049 99 1049 150 q 1076 28 1049 54 q 1146 1 1103 1 q 1342 97 1239 1 q 1538 321 1446 193 l 1561 321 q 1352 80 1461 182 q 1126 -22 1243 -22 q 1007 20 1053 -22 q 961 132 961 63 q 1033 321 961 218 l 1024 321 q 844 108 918 182 q 709 6 771 35 q 576 -22 647 -22 q 418 34 475 -22 q 361 183 361 90 q 438 407 361 293 l 624 690 q 772 1035 772 918 q 754 1094 772 1075 q 704 1114 736 1114 q 513 1017 596 1114 q 388 797 431 919 l 365 797 q 497 1031 415 929 q 721 1133 579 1133 q 851 1085 807 1133 q 896 958 896 1036 q 840 778 896 868 l 525 283 m 1408 1325 q 1272 1232 1354 1278 q 1128 1165 1190 1186 l 1119 1169 q 1271 1261 1196 1203 q 1382 1369 1346 1319 l 1408 1325 z "},"Ŭ":{"ha":1524,"x_min":361,"x_max":1596,"o":"m 525 283 q 472 132 472 199 q 508 42 472 75 q 596 10 543 10 q 773 86 678 10 q 1023 369 868 163 q 1435 972 1178 575 l 1596 972 l 1089 213 q 1049 99 1049 150 q 1076 28 1049 54 q 1146 1 1103 1 q 1342 97 1239 1 q 1538 321 1446 193 l 1561 321 q 1352 80 1461 182 q 1126 -22 1243 -22 q 1007 20 1053 -22 q 961 132 961 63 q 1033 321 961 218 l 1024 321 q 844 108 918 182 q 709 6 771 35 q 576 -22 647 -22 q 418 34 475 -22 q 361 183 361 90 q 438 407 361 293 l 624 690 q 772 1035 772 918 q 754 1094 772 1075 q 704 1114 736 1114 q 513 1017 596 1114 q 388 797 431 919 l 365 797 q 497 1031 415 929 q 721 1133 579 1133 q 851 1085 807 1133 q 896 958 896 1036 q 840 778 896 868 l 525 283 m 1410 1286 q 1335 1207 1379 1235 q 1236 1179 1290 1179 q 1160 1207 1189 1179 q 1131 1275 1131 1235 l 1139 1286 q 1167 1237 1142 1256 q 1242 1218 1193 1218 q 1400 1297 1353 1218 l 1410 1286 z "},"Û":{"ha":1524,"x_min":361,"x_max":1596,"o":"m 525 283 q 472 132 472 199 q 508 42 472 75 q 596 10 543 10 q 773 86 678 10 q 1023 369 868 163 q 1435 972 1178 575 l 1596 972 l 1089 213 q 1049 99 1049 150 q 1076 28 1049 54 q 1146 1 1103 1 q 1342 97 1239 1 q 1538 321 1446 193 l 1561 321 q 1352 80 1461 182 q 1126 -22 1243 -22 q 1007 20 1053 -22 q 961 132 961 63 q 1033 321 961 218 l 1024 321 q 844 108 918 182 q 709 6 771 35 q 576 -22 647 -22 q 418 34 475 -22 q 361 183 361 90 q 438 407 361 293 l 624 690 q 772 1035 772 918 q 754 1094 772 1075 q 704 1114 736 1114 q 513 1017 596 1114 q 388 797 431 919 l 365 797 q 497 1031 415 929 q 721 1133 579 1133 q 851 1085 807 1133 q 896 958 896 1036 q 840 778 896 868 l 525 283 m 1378 1157 q 1345 1215 1360 1179 q 1325 1281 1331 1250 q 1206 1206 1289 1246 q 1072 1157 1124 1167 l 1039 1157 q 1350 1363 1231 1217 l 1363 1353 q 1361 1335 1363 1349 q 1360 1299 1360 1322 q 1389 1157 1360 1217 l 1378 1157 z "},"Ü":{"ha":1524,"x_min":361,"x_max":1596,"o":"m 525 283 q 472 132 472 199 q 508 42 472 75 q 596 10 543 10 q 773 86 678 10 q 1023 369 868 163 q 1435 972 1178 575 l 1596 972 l 1089 213 q 1049 99 1049 150 q 1076 28 1049 54 q 1146 1 1103 1 q 1342 97 1239 1 q 1538 321 1446 193 l 1561 321 q 1352 80 1461 182 q 1126 -22 1243 -22 q 1007 20 1053 -22 q 961 132 961 63 q 1033 321 961 218 l 1024 321 q 844 108 918 182 q 709 6 771 35 q 576 -22 647 -22 q 418 34 475 -22 q 361 183 361 90 q 438 407 361 293 l 624 690 q 772 1035 772 918 q 754 1094 772 1075 q 704 1114 736 1114 q 513 1017 596 1114 q 388 797 431 919 l 365 797 q 497 1031 415 929 q 721 1133 579 1133 q 851 1085 807 1133 q 896 958 896 1036 q 840 778 896 868 l 525 283 m 1253 1343 q 1269 1328 1269 1343 q 1261 1301 1269 1318 q 1187 1222 1239 1261 q 1104 1182 1135 1182 q 1088 1200 1088 1182 q 1094 1224 1088 1207 q 1169 1303 1117 1263 q 1253 1343 1222 1343 m 1454 1343 q 1474 1328 1474 1343 q 1464 1301 1474 1321 q 1388 1222 1442 1263 q 1304 1182 1335 1182 q 1286 1200 1286 1182 q 1292 1222 1286 1211 q 1369 1303 1315 1263 q 1454 1343 1424 1343 z "},"Ù":{"ha":1524,"x_min":361,"x_max":1596,"o":"m 525 283 q 472 132 472 199 q 508 42 472 75 q 596 10 543 10 q 773 86 678 10 q 1023 369 868 163 q 1435 972 1178 575 l 1596 972 l 1089 213 q 1049 99 1049 150 q 1076 28 1049 54 q 1146 1 1103 1 q 1342 97 1239 1 q 1538 321 1446 193 l 1561 321 q 1352 80 1461 182 q 1126 -22 1243 -22 q 1007 20 1053 -22 q 961 132 961 63 q 1033 321 961 218 l 1024 321 q 844 108 918 182 q 709 6 771 35 q 576 -22 647 -22 q 418 34 475 -22 q 361 183 361 90 q 438 407 361 293 l 624 690 q 772 1035 772 918 q 754 1094 772 1075 q 704 1114 736 1114 q 513 1017 596 1114 q 388 797 431 919 l 365 797 q 497 1031 415 929 q 721 1133 579 1133 q 851 1085 807 1133 q 896 958 896 1036 q 840 778 896 868 l 525 283 m 1153 1369 q 1264 1261 1189 1319 q 1415 1169 1339 1203 l 1407 1165 q 1263 1232 1344 1186 q 1126 1325 1181 1278 l 1153 1369 z "},"Ű":{"ha":1524,"x_min":361,"x_max":1596,"o":"m 525 283 q 472 132 472 199 q 508 42 472 75 q 596 10 543 10 q 773 86 678 10 q 1023 369 868 163 q 1435 972 1178 575 l 1596 972 l 1089 213 q 1049 99 1049 150 q 1076 28 1049 54 q 1146 1 1103 1 q 1342 97 1239 1 q 1538 321 1446 193 l 1561 321 q 1352 80 1461 182 q 1126 -22 1243 -22 q 1007 20 1053 -22 q 961 132 961 63 q 1033 321 961 218 l 1024 321 q 844 108 918 182 q 709 6 771 35 q 576 -22 647 -22 q 418 34 475 -22 q 361 183 361 90 q 438 407 361 293 l 624 690 q 772 1035 772 918 q 754 1094 772 1075 q 704 1114 736 1114 q 513 1017 596 1114 q 388 797 431 919 l 365 797 q 497 1031 415 929 q 721 1133 579 1133 q 851 1085 807 1133 q 896 958 896 1036 q 840 778 896 868 l 525 283 m 1328 1319 q 1190 1226 1272 1272 q 1046 1160 1108 1179 l 1039 1164 q 1190 1256 1115 1197 q 1300 1364 1264 1314 l 1328 1319 m 1497 1319 q 1361 1226 1443 1272 q 1217 1160 1279 1181 l 1208 1164 q 1360 1256 1285 1197 q 1471 1364 1435 1314 l 1497 1319 z "},"Ū":{"ha":1524,"x_min":361,"x_max":1596,"o":"m 525 283 q 472 132 472 199 q 508 42 472 75 q 596 10 543 10 q 773 86 678 10 q 1023 369 868 163 q 1435 972 1178 575 l 1596 972 l 1089 213 q 1049 99 1049 150 q 1076 28 1049 54 q 1146 1 1103 1 q 1342 97 1239 1 q 1538 321 1446 193 l 1561 321 q 1352 80 1461 182 q 1126 -22 1243 -22 q 1007 20 1053 -22 q 961 132 961 63 q 1033 321 961 218 l 1024 321 q 844 108 918 182 q 709 6 771 35 q 576 -22 647 -22 q 418 34 475 -22 q 361 183 361 90 q 438 407 361 293 l 624 690 q 772 1035 772 918 q 754 1094 772 1075 q 704 1114 736 1114 q 513 1017 596 1114 q 388 797 431 919 l 365 797 q 497 1031 415 929 q 721 1133 579 1133 q 851 1085 807 1133 q 896 958 896 1036 q 840 778 896 868 l 525 283 m 1417 1189 l 1108 1189 l 1143 1224 l 1431 1224 l 1417 1189 z "},"Ų":{"ha":1524,"x_min":361,"x_max":1596,"o":"m 525 283 q 472 132 472 199 q 508 42 472 75 q 596 10 543 10 q 773 86 678 10 q 1023 369 868 163 q 1435 972 1178 575 l 1596 972 l 1089 213 q 1049 99 1049 150 q 1076 28 1049 54 q 1146 1 1103 1 q 1342 97 1239 1 q 1538 321 1446 193 l 1561 321 q 1352 80 1461 182 q 1126 -22 1243 -22 q 1007 20 1053 -22 q 961 132 961 63 q 1033 321 961 218 l 1024 321 q 844 108 918 182 q 709 6 771 35 q 576 -22 647 -22 q 418 34 475 -22 q 361 183 361 90 q 438 407 361 293 l 624 690 q 772 1035 772 918 q 754 1094 772 1075 q 704 1114 736 1114 q 513 1017 596 1114 q 388 797 431 919 l 365 797 q 497 1031 415 929 q 721 1133 579 1133 q 851 1085 807 1133 q 896 958 896 1036 q 840 778 896 868 l 525 283 m 969 -153 q 986 -91 969 -118 q 1038 -26 1003 -64 q 1071 4 1049 -15 l 1083 4 q 1049 -42 1076 -3 q 1010 -139 1010 -96 q 1030 -188 1010 -171 q 1079 -206 1050 -206 q 1139 -185 1106 -206 l 1142 -192 q 1117 -231 1139 -212 q 1060 -249 1094 -249 q 998 -225 1026 -249 q 969 -153 969 -201 z "},"Ů":{"ha":1524,"x_min":361,"x_max":1596,"o":"m 525 283 q 472 132 472 199 q 508 42 472 75 q 596 10 543 10 q 773 86 678 10 q 1023 369 868 163 q 1435 972 1178 575 l 1596 972 l 1089 213 q 1049 99 1049 150 q 1076 28 1049 54 q 1146 1 1103 1 q 1342 97 1239 1 q 1538 321 1446 193 l 1561 321 q 1352 80 1461 182 q 1126 -22 1243 -22 q 1007 20 1053 -22 q 961 132 961 63 q 1033 321 961 218 l 1024 321 q 844 108 918 182 q 709 6 771 35 q 576 -22 647 -22 q 418 34 475 -22 q 361 183 361 90 q 438 407 361 293 l 624 690 q 772 1035 772 918 q 754 1094 772 1075 q 704 1114 736 1114 q 513 1017 596 1114 q 388 797 431 919 l 365 797 q 497 1031 415 929 q 721 1133 579 1133 q 851 1085 807 1133 q 896 958 896 1036 q 840 778 896 868 l 525 283 m 1349 1354 q 1389 1322 1389 1354 q 1360 1258 1389 1293 q 1291 1200 1332 1224 q 1217 1176 1250 1176 q 1183 1189 1194 1176 q 1175 1221 1171 1201 q 1212 1281 1182 1249 q 1280 1333 1242 1313 q 1349 1354 1318 1354 m 1357 1344 q 1304 1322 1338 1344 q 1240 1268 1271 1300 q 1200 1211 1210 1236 q 1199 1200 1199 1207 q 1210 1186 1199 1186 q 1263 1208 1229 1186 q 1326 1262 1296 1231 q 1365 1317 1356 1293 q 1368 1332 1368 1328 q 1357 1344 1368 1344 z "},"Ũ":{"ha":1524,"x_min":361,"x_max":1596,"o":"m 525 283 q 472 132 472 199 q 508 42 472 75 q 596 10 543 10 q 773 86 678 10 q 1023 369 868 163 q 1435 972 1178 575 l 1596 972 l 1089 213 q 1049 99 1049 150 q 1076 28 1049 54 q 1146 1 1103 1 q 1342 97 1239 1 q 1538 321 1446 193 l 1561 321 q 1352 80 1461 182 q 1126 -22 1243 -22 q 1007 20 1053 -22 q 961 132 961 63 q 1033 321 961 218 l 1024 321 q 844 108 918 182 q 709 6 771 35 q 576 -22 647 -22 q 418 34 475 -22 q 361 183 361 90 q 438 407 361 293 l 624 690 q 772 1035 772 918 q 754 1094 772 1075 q 704 1114 736 1114 q 513 1017 596 1114 q 388 797 431 919 l 365 797 q 497 1031 415 929 q 721 1133 579 1133 q 851 1085 807 1133 q 896 958 896 1036 q 840 778 896 868 l 525 283 m 1225 1250 q 1266 1242 1239 1250 q 1299 1232 1293 1233 q 1367 1214 1350 1214 q 1403 1222 1381 1214 q 1446 1240 1426 1231 l 1453 1236 q 1403 1208 1414 1214 q 1321 1183 1354 1183 q 1254 1201 1296 1183 q 1219 1213 1236 1208 q 1186 1218 1201 1218 q 1145 1210 1169 1218 q 1097 1193 1121 1203 l 1090 1197 q 1145 1225 1094 1200 q 1225 1250 1196 1250 z "},"V":{"ha":1929,"x_min":388,"x_max":2278,"o":"m 388 801 q 449 953 406 878 q 566 1081 492 1029 q 744 1133 640 1133 q 858 1113 807 1133 q 981 1050 910 1092 q 1101 988 1050 1008 q 1213 968 1151 968 q 1351 997 1283 968 q 1493 1074 1418 1026 l 1506 1060 q 1413 1003 1461 1028 q 1357 974 1365 978 q 1206 881 1261 924 q 1102 754 1150 839 q 1024 524 1054 669 q 883 194 983 328 q 647 13 783 60 l 651 4 q 914 95 807 25 q 1092 259 1021 165 q 1258 515 1163 353 q 1496 867 1390 736 q 1718 1066 1601 999 q 1979 1133 1835 1133 q 2147 1094 2079 1133 q 2246 993 2214 1054 q 2278 864 2278 932 q 2249 772 2278 808 q 2178 736 2219 736 q 2143 749 2157 736 q 2129 779 2129 761 q 2140 807 2129 794 q 2171 835 2150 819 q 2215 876 2200 857 q 2231 925 2231 894 q 2201 1016 2231 972 q 2116 1087 2172 1060 q 1985 1114 2060 1114 q 1750 1044 1853 1114 q 1560 854 1647 975 q 1347 515 1472 733 q 1138 221 1244 336 q 877 41 1031 106 q 508 -22 724 -24 l 397 -22 l 397 -3 q 629 58 544 0 q 761 229 714 115 q 847 547 808 343 q 953 799 879 707 q 1179 932 1028 890 l 1179 940 q 1089 954 1132 943 q 992 985 1046 965 q 867 1022 918 1010 q 749 1033 815 1033 q 519 968 596 1033 q 411 801 442 903 l 388 801 z "},"W":{"ha":2669,"x_min":376,"x_max":3015,"o":"m 376 803 q 447 952 396 876 q 583 1081 499 1028 q 781 1133 668 1133 q 904 1113 850 1133 q 1035 1049 958 1092 q 1162 986 1110 1007 q 1279 965 1214 965 q 1426 997 1353 965 q 1569 1076 1499 1029 l 1582 1060 q 1470 994 1526 1021 q 1350 944 1414 968 q 1222 862 1268 915 q 1155 741 1176 808 q 1101 536 1133 674 q 971 189 1056 321 q 728 14 886 57 l 731 4 q 1000 91 886 19 q 1194 265 1114 163 q 1358 518 1274 367 q 1701 974 1526 815 q 2072 1133 1875 1132 l 2201 1133 l 2201 1114 q 2160 1114 2194 1114 q 2094 1103 2125 1114 q 2039 1068 2063 1092 q 1902 881 1958 1011 q 1800 538 1846 751 q 1665 199 1758 335 q 1422 14 1571 64 l 1425 4 q 1700 92 1593 26 q 1869 247 1807 158 q 2014 493 1931 335 l 2035 535 q 2347 977 2183 821 q 2711 1133 2510 1133 q 2885 1092 2817 1133 q 2984 990 2953 1051 q 3015 864 3015 929 q 2988 772 3015 807 q 2917 736 2961 736 q 2881 749 2894 736 q 2867 779 2867 761 q 2877 807 2867 794 q 2908 835 2888 819 q 2953 876 2938 857 q 2968 925 2968 894 q 2937 1016 2968 972 q 2850 1087 2906 1060 q 2724 1114 2794 1114 q 2492 1047 2592 1114 q 2312 860 2393 981 q 2126 535 2231 740 q 1927 228 2029 344 q 1670 46 1825 111 q 1279 -22 1515 -19 l 1168 -22 l 1168 -3 q 1406 48 1325 -3 q 1524 190 1486 99 q 1608 476 1561 282 l 1628 560 q 1782 908 1675 756 q 2038 1106 1889 1061 l 2038 1114 q 1819 1024 1915 1100 q 1645 834 1724 949 q 1451 515 1567 719 q 1235 222 1350 338 q 964 43 1121 106 q 592 -22 807 -19 l 481 -22 l 481 -3 q 734 55 650 -3 q 854 215 818 113 q 936 547 890 318 q 1040 804 969 708 q 1258 931 1111 900 l 1258 940 q 1150 951 1200 940 q 1028 986 1100 963 q 888 1024 944 1011 q 761 1036 832 1036 q 517 969 601 1036 q 399 803 432 901 l 376 803 z "},"Ẃ":{"ha":2669,"x_min":376,"x_max":3015,"o":"m 376 803 q 447 952 396 876 q 583 1081 499 1028 q 781 1133 668 1133 q 904 1113 850 1133 q 1035 1049 958 1092 q 1162 986 1110 1007 q 1279 965 1214 965 q 1426 997 1353 965 q 1569 1076 1499 1029 l 1582 1060 q 1470 994 1526 1021 q 1350 944 1414 968 q 1222 862 1268 915 q 1155 741 1176 808 q 1101 536 1133 674 q 971 189 1056 321 q 728 14 886 57 l 731 4 q 1000 91 886 19 q 1194 265 1114 163 q 1358 518 1274 367 q 1701 974 1526 815 q 2072 1133 1875 1132 l 2201 1133 l 2201 1114 q 2160 1114 2194 1114 q 2094 1103 2125 1114 q 2039 1068 2063 1092 q 1902 881 1958 1011 q 1800 538 1846 751 q 1665 199 1758 335 q 1422 14 1571 64 l 1425 4 q 1700 92 1593 26 q 1869 247 1807 158 q 2014 493 1931 335 l 2035 535 q 2347 977 2183 821 q 2711 1133 2510 1133 q 2885 1092 2817 1133 q 2984 990 2953 1051 q 3015 864 3015 929 q 2988 772 3015 807 q 2917 736 2961 736 q 2881 749 2894 736 q 2867 779 2867 761 q 2877 807 2867 794 q 2908 835 2888 819 q 2953 876 2938 857 q 2968 925 2968 894 q 2937 1016 2968 972 q 2850 1087 2906 1060 q 2724 1114 2794 1114 q 2492 1047 2592 1114 q 2312 860 2393 981 q 2126 535 2231 740 q 1927 228 2029 344 q 1670 46 1825 111 q 1279 -22 1515 -19 l 1168 -22 l 1168 -3 q 1406 48 1325 -3 q 1524 190 1486 99 q 1608 476 1561 282 l 1628 560 q 1782 908 1675 756 q 2038 1106 1889 1061 l 2038 1114 q 1819 1024 1915 1100 q 1645 834 1724 949 q 1451 515 1567 719 q 1235 222 1350 338 q 964 43 1121 106 q 592 -22 807 -19 l 481 -22 l 481 -3 q 734 55 650 -3 q 854 215 818 113 q 936 547 890 318 q 1040 804 969 708 q 1258 931 1111 900 l 1258 940 q 1150 951 1200 940 q 1028 986 1100 963 q 888 1024 944 1011 q 761 1036 832 1036 q 517 969 601 1036 q 399 803 432 901 l 376 803 m 2199 1325 q 2063 1232 2144 1278 q 1918 1165 1981 1186 l 1910 1169 q 2061 1261 1986 1203 q 2172 1369 2136 1319 l 2199 1325 z "},"Ŵ":{"ha":2669,"x_min":376,"x_max":3015,"o":"m 376 803 q 447 952 396 876 q 583 1081 499 1028 q 781 1133 668 1133 q 904 1113 850 1133 q 1035 1049 958 1092 q 1162 986 1110 1007 q 1279 965 1214 965 q 1426 997 1353 965 q 1569 1076 1499 1029 l 1582 1060 q 1470 994 1526 1021 q 1350 944 1414 968 q 1222 862 1268 915 q 1155 741 1176 808 q 1101 536 1133 674 q 971 189 1056 321 q 728 14 886 57 l 731 4 q 1000 91 886 19 q 1194 265 1114 163 q 1358 518 1274 367 q 1701 974 1526 815 q 2072 1133 1875 1132 l 2201 1133 l 2201 1114 q 2160 1114 2194 1114 q 2094 1103 2125 1114 q 2039 1068 2063 1092 q 1902 881 1958 1011 q 1800 538 1846 751 q 1665 199 1758 335 q 1422 14 1571 64 l 1425 4 q 1700 92 1593 26 q 1869 247 1807 158 q 2014 493 1931 335 l 2035 535 q 2347 977 2183 821 q 2711 1133 2510 1133 q 2885 1092 2817 1133 q 2984 990 2953 1051 q 3015 864 3015 929 q 2988 772 3015 807 q 2917 736 2961 736 q 2881 749 2894 736 q 2867 779 2867 761 q 2877 807 2867 794 q 2908 835 2888 819 q 2953 876 2938 857 q 2968 925 2968 894 q 2937 1016 2968 972 q 2850 1087 2906 1060 q 2724 1114 2794 1114 q 2492 1047 2592 1114 q 2312 860 2393 981 q 2126 535 2231 740 q 1927 228 2029 344 q 1670 46 1825 111 q 1279 -22 1515 -19 l 1168 -22 l 1168 -3 q 1406 48 1325 -3 q 1524 190 1486 99 q 1608 476 1561 282 l 1628 560 q 1782 908 1675 756 q 2038 1106 1889 1061 l 2038 1114 q 1819 1024 1915 1100 q 1645 834 1724 949 q 1451 515 1567 719 q 1235 222 1350 338 q 964 43 1121 106 q 592 -22 807 -19 l 481 -22 l 481 -3 q 734 55 650 -3 q 854 215 818 113 q 936 547 890 318 q 1040 804 969 708 q 1258 931 1111 900 l 1258 940 q 1150 951 1200 940 q 1028 986 1100 963 q 888 1024 944 1011 q 761 1036 832 1036 q 517 969 601 1036 q 399 803 432 901 l 376 803 m 2168 1157 q 2135 1215 2150 1179 q 2115 1281 2121 1250 q 1997 1206 2079 1246 q 1863 1157 1914 1167 l 1829 1157 q 2140 1363 2021 1217 l 2153 1353 q 2151 1335 2153 1349 q 2150 1299 2150 1322 q 2179 1157 2150 1217 l 2168 1157 z "},"Ẅ":{"ha":2669,"x_min":376,"x_max":3015,"o":"m 376 803 q 447 952 396 876 q 583 1081 499 1028 q 781 1133 668 1133 q 904 1113 850 1133 q 1035 1049 958 1092 q 1162 986 1110 1007 q 1279 965 1214 965 q 1426 997 1353 965 q 1569 1076 1499 1029 l 1582 1060 q 1470 994 1526 1021 q 1350 944 1414 968 q 1222 862 1268 915 q 1155 741 1176 808 q 1101 536 1133 674 q 971 189 1056 321 q 728 14 886 57 l 731 4 q 1000 91 886 19 q 1194 265 1114 163 q 1358 518 1274 367 q 1701 974 1526 815 q 2072 1133 1875 1132 l 2201 1133 l 2201 1114 q 2160 1114 2194 1114 q 2094 1103 2125 1114 q 2039 1068 2063 1092 q 1902 881 1958 1011 q 1800 538 1846 751 q 1665 199 1758 335 q 1422 14 1571 64 l 1425 4 q 1700 92 1593 26 q 1869 247 1807 158 q 2014 493 1931 335 l 2035 535 q 2347 977 2183 821 q 2711 1133 2510 1133 q 2885 1092 2817 1133 q 2984 990 2953 1051 q 3015 864 3015 929 q 2988 772 3015 807 q 2917 736 2961 736 q 2881 749 2894 736 q 2867 779 2867 761 q 2877 807 2867 794 q 2908 835 2888 819 q 2953 876 2938 857 q 2968 925 2968 894 q 2937 1016 2968 972 q 2850 1087 2906 1060 q 2724 1114 2794 1114 q 2492 1047 2592 1114 q 2312 860 2393 981 q 2126 535 2231 740 q 1927 228 2029 344 q 1670 46 1825 111 q 1279 -22 1515 -19 l 1168 -22 l 1168 -3 q 1406 48 1325 -3 q 1524 190 1486 99 q 1608 476 1561 282 l 1628 560 q 1782 908 1675 756 q 2038 1106 1889 1061 l 2038 1114 q 1819 1024 1915 1100 q 1645 834 1724 949 q 1451 515 1567 719 q 1235 222 1350 338 q 964 43 1121 106 q 592 -22 807 -19 l 481 -22 l 481 -3 q 734 55 650 -3 q 854 215 818 113 q 936 547 890 318 q 1040 804 969 708 q 1258 931 1111 900 l 1258 940 q 1150 951 1200 940 q 1028 986 1100 963 q 888 1024 944 1011 q 761 1036 832 1036 q 517 969 601 1036 q 399 803 432 901 l 376 803 m 2043 1343 q 2060 1328 2060 1343 q 2051 1301 2060 1318 q 1977 1222 2029 1261 q 1894 1182 1925 1182 q 1878 1200 1878 1182 q 1885 1224 1878 1207 q 1960 1303 1907 1263 q 2043 1343 2013 1343 m 2244 1343 q 2264 1328 2264 1343 q 2254 1301 2264 1321 q 2178 1222 2232 1263 q 2094 1182 2125 1182 q 2076 1200 2076 1182 q 2082 1222 2076 1211 q 2160 1303 2106 1263 q 2244 1343 2214 1343 z "},"Ẁ":{"ha":2669,"x_min":376,"x_max":3015,"o":"m 376 803 q 447 952 396 876 q 583 1081 499 1028 q 781 1133 668 1133 q 904 1113 850 1133 q 1035 1049 958 1092 q 1162 986 1110 1007 q 1279 965 1214 965 q 1426 997 1353 965 q 1569 1076 1499 1029 l 1582 1060 q 1470 994 1526 1021 q 1350 944 1414 968 q 1222 862 1268 915 q 1155 741 1176 808 q 1101 536 1133 674 q 971 189 1056 321 q 728 14 886 57 l 731 4 q 1000 91 886 19 q 1194 265 1114 163 q 1358 518 1274 367 q 1701 974 1526 815 q 2072 1133 1875 1132 l 2201 1133 l 2201 1114 q 2160 1114 2194 1114 q 2094 1103 2125 1114 q 2039 1068 2063 1092 q 1902 881 1958 1011 q 1800 538 1846 751 q 1665 199 1758 335 q 1422 14 1571 64 l 1425 4 q 1700 92 1593 26 q 1869 247 1807 158 q 2014 493 1931 335 l 2035 535 q 2347 977 2183 821 q 2711 1133 2510 1133 q 2885 1092 2817 1133 q 2984 990 2953 1051 q 3015 864 3015 929 q 2988 772 3015 807 q 2917 736 2961 736 q 2881 749 2894 736 q 2867 779 2867 761 q 2877 807 2867 794 q 2908 835 2888 819 q 2953 876 2938 857 q 2968 925 2968 894 q 2937 1016 2968 972 q 2850 1087 2906 1060 q 2724 1114 2794 1114 q 2492 1047 2592 1114 q 2312 860 2393 981 q 2126 535 2231 740 q 1927 228 2029 344 q 1670 46 1825 111 q 1279 -22 1515 -19 l 1168 -22 l 1168 -3 q 1406 48 1325 -3 q 1524 190 1486 99 q 1608 476 1561 282 l 1628 560 q 1782 908 1675 756 q 2038 1106 1889 1061 l 2038 1114 q 1819 1024 1915 1100 q 1645 834 1724 949 q 1451 515 1567 719 q 1235 222 1350 338 q 964 43 1121 106 q 592 -22 807 -19 l 481 -22 l 481 -3 q 734 55 650 -3 q 854 215 818 113 q 936 547 890 318 q 1040 804 969 708 q 1258 931 1111 900 l 1258 940 q 1150 951 1200 940 q 1028 986 1100 963 q 888 1024 944 1011 q 761 1036 832 1036 q 517 969 601 1036 q 399 803 432 901 l 376 803 m 1942 1369 q 2053 1261 1978 1319 q 2204 1169 2128 1203 l 2196 1165 q 2051 1232 2133 1186 q 1915 1325 1969 1278 l 1942 1369 z "},"X":{"ha":1428,"x_min":-68,"x_max":1810,"o":"m 1024 51 q 1225 131 1118 51 q 1415 354 1332 210 l 1443 350 q 1222 79 1349 181 q 957 -22 1096 -22 q 790 49 844 -22 q 738 239 735 121 q 467 49 614 119 q 186 -22 321 -22 q 43 8 100 -22 q -41 84 -14 38 q -68 182 -68 131 q -39 269 -68 235 q 25 304 -10 304 q 60 292 46 304 q 74 261 74 279 q 63 235 74 244 q 29 213 53 225 q -16 183 -1 197 q -31 139 -31 168 q -3 70 -31 103 q 70 17 24 38 q 171 -3 117 -3 q 434 81 304 -3 q 670 300 564 164 q 842 593 776 436 q 917 901 917 774 q 885 1020 917 978 q 789 1063 854 1063 q 573 978 685 1063 q 383 757 461 893 l 357 757 q 575 1025 444 917 q 850 1133 706 1133 q 1017 1062 960 1133 q 1067 876 1074 990 q 1333 1065 1193 996 q 1606 1133 1474 1133 q 1763 1082 1715 1133 q 1810 957 1810 1031 q 1782 867 1810 906 q 1714 829 1754 829 q 1675 844 1690 829 q 1660 881 1660 860 q 1672 911 1661 900 q 1708 936 1683 922 q 1752 968 1738 953 q 1767 1011 1767 983 q 1726 1085 1767 1056 q 1617 1114 1685 1114 q 1372 1039 1492 1114 q 1153 838 1253 964 q 979 553 1053 711 q 885 215 885 350 q 919 95 885 139 q 1024 51 953 51 z "},"Y":{"ha":1431,"x_min":-44,"x_max":1571,"o":"m 1571 972 q 1022 165 1217 444 q 735 -229 826 -114 q 583 -400 644 -344 q 369 -551 458 -511 q 185 -590 281 -590 q 17 -535 78 -590 q -44 -397 -44 -479 q 178 -189 -44 -256 q 339 -146 253 -165 q 565 -99 425 -126 l 649 -82 q 1066 52 872 -37 q 1438 321 1260 142 l 1460 321 q 1097 50 1282 143 q 653 -101 913 -43 q 315 -192 442 -149 q 118 -291 188 -235 q 49 -425 49 -347 q 86 -526 49 -481 q 192 -571 124 -571 q 356 -501 269 -571 q 570 -267 442 -431 q 963 258 699 -104 l 949 258 q 761 111 850 154 q 596 68 672 68 q 438 123 496 68 q 381 268 381 178 q 461 490 381 375 q 715 882 638 743 q 793 1074 793 1021 q 746 1115 793 1115 q 594 1067 672 1115 q 456 944 517 1018 q 369 797 396 869 l 347 797 q 429 942 372 864 q 572 1076 486 1019 q 761 1133 658 1133 q 870 1098 832 1133 q 908 1001 908 1063 q 844 824 908 921 l 569 396 q 510 235 510 303 q 547 145 510 176 q 631 114 585 114 q 827 179 718 114 q 1036 399 936 244 l 1404 972 l 1571 972 z "},"Ý":{"ha":1431,"x_min":-44,"x_max":1571,"o":"m 1571 972 q 1022 165 1217 444 q 735 -229 826 -114 q 583 -400 644 -344 q 369 -551 458 -511 q 185 -590 281 -590 q 17 -535 78 -590 q -44 -397 -44 -479 q 178 -189 -44 -256 q 339 -146 253 -165 q 565 -99 425 -126 l 649 -82 q 1066 52 872 -37 q 1438 321 1260 142 l 1460 321 q 1097 50 1282 143 q 653 -101 913 -43 q 315 -192 442 -149 q 118 -291 188 -235 q 49 -425 49 -347 q 86 -526 49 -481 q 192 -571 124 -571 q 356 -501 269 -571 q 570 -267 442 -431 q 963 258 699 -104 l 949 258 q 761 111 850 154 q 596 68 672 68 q 438 123 496 68 q 381 268 381 178 q 461 490 381 375 q 715 882 638 743 q 793 1074 793 1021 q 746 1115 793 1115 q 594 1067 672 1115 q 456 944 517 1018 q 369 797 396 869 l 347 797 q 429 942 372 864 q 572 1076 486 1019 q 761 1133 658 1133 q 870 1098 832 1133 q 908 1001 908 1063 q 844 824 908 921 l 569 396 q 510 235 510 303 q 547 145 510 176 q 631 114 585 114 q 827 179 718 114 q 1036 399 936 244 l 1404 972 l 1571 972 m 1404 1325 q 1268 1232 1350 1278 q 1124 1165 1186 1186 l 1115 1169 q 1267 1261 1192 1203 q 1378 1369 1342 1319 l 1404 1325 z "},"Ŷ":{"ha":1431,"x_min":-44,"x_max":1571,"o":"m 1571 972 q 1022 165 1217 444 q 735 -229 826 -114 q 583 -400 644 -344 q 369 -551 458 -511 q 185 -590 281 -590 q 17 -535 78 -590 q -44 -397 -44 -479 q 178 -189 -44 -256 q 339 -146 253 -165 q 565 -99 425 -126 l 649 -82 q 1066 52 872 -37 q 1438 321 1260 142 l 1460 321 q 1097 50 1282 143 q 653 -101 913 -43 q 315 -192 442 -149 q 118 -291 188 -235 q 49 -425 49 -347 q 86 -526 49 -481 q 192 -571 124 -571 q 356 -501 269 -571 q 570 -267 442 -431 q 963 258 699 -104 l 949 258 q 761 111 850 154 q 596 68 672 68 q 438 123 496 68 q 381 268 381 178 q 461 490 381 375 q 715 882 638 743 q 793 1074 793 1021 q 746 1115 793 1115 q 594 1067 672 1115 q 456 944 517 1018 q 369 797 396 869 l 347 797 q 429 942 372 864 q 572 1076 486 1019 q 761 1133 658 1133 q 870 1098 832 1133 q 908 1001 908 1063 q 844 824 908 921 l 569 396 q 510 235 510 303 q 547 145 510 176 q 631 114 585 114 q 827 179 718 114 q 1036 399 936 244 l 1404 972 l 1571 972 m 1374 1157 q 1341 1215 1356 1179 q 1321 1281 1326 1250 q 1202 1206 1285 1246 q 1068 1157 1119 1167 l 1035 1157 q 1346 1363 1226 1217 l 1358 1353 q 1357 1335 1358 1349 q 1356 1299 1356 1322 q 1385 1157 1356 1217 l 1374 1157 z "},"Ÿ":{"ha":1431,"x_min":-44,"x_max":1571,"o":"m 1571 972 q 1022 165 1217 444 q 735 -229 826 -114 q 583 -400 644 -344 q 369 -551 458 -511 q 185 -590 281 -590 q 17 -535 78 -590 q -44 -397 -44 -479 q 178 -189 -44 -256 q 339 -146 253 -165 q 565 -99 425 -126 l 649 -82 q 1066 52 872 -37 q 1438 321 1260 142 l 1460 321 q 1097 50 1282 143 q 653 -101 913 -43 q 315 -192 442 -149 q 118 -291 188 -235 q 49 -425 49 -347 q 86 -526 49 -481 q 192 -571 124 -571 q 356 -501 269 -571 q 570 -267 442 -431 q 963 258 699 -104 l 949 258 q 761 111 850 154 q 596 68 672 68 q 438 123 496 68 q 381 268 381 178 q 461 490 381 375 q 715 882 638 743 q 793 1074 793 1021 q 746 1115 793 1115 q 594 1067 672 1115 q 456 944 517 1018 q 369 797 396 869 l 347 797 q 429 942 372 864 q 572 1076 486 1019 q 761 1133 658 1133 q 870 1098 832 1133 q 908 1001 908 1063 q 844 824 908 921 l 569 396 q 510 235 510 303 q 547 145 510 176 q 631 114 585 114 q 827 179 718 114 q 1036 399 936 244 l 1404 972 l 1571 972 m 1249 1343 q 1265 1328 1265 1343 q 1257 1301 1265 1318 q 1183 1222 1235 1261 q 1100 1182 1131 1182 q 1083 1200 1083 1182 q 1090 1224 1083 1207 q 1165 1303 1113 1263 q 1249 1343 1218 1343 m 1450 1343 q 1469 1328 1469 1343 q 1460 1301 1469 1321 q 1384 1222 1438 1263 q 1300 1182 1331 1182 q 1282 1200 1282 1182 q 1288 1222 1282 1211 q 1365 1303 1311 1263 q 1450 1343 1419 1343 z "},"Ỳ":{"ha":1431,"x_min":-44,"x_max":1571,"o":"m 1571 972 q 1022 165 1217 444 q 735 -229 826 -114 q 583 -400 644 -344 q 369 -551 458 -511 q 185 -590 281 -590 q 17 -535 78 -590 q -44 -397 -44 -479 q 178 -189 -44 -256 q 339 -146 253 -165 q 565 -99 425 -126 l 649 -82 q 1066 52 872 -37 q 1438 321 1260 142 l 1460 321 q 1097 50 1282 143 q 653 -101 913 -43 q 315 -192 442 -149 q 118 -291 188 -235 q 49 -425 49 -347 q 86 -526 49 -481 q 192 -571 124 -571 q 356 -501 269 -571 q 570 -267 442 -431 q 963 258 699 -104 l 949 258 q 761 111 850 154 q 596 68 672 68 q 438 123 496 68 q 381 268 381 178 q 461 490 381 375 q 715 882 638 743 q 793 1074 793 1021 q 746 1115 793 1115 q 594 1067 672 1115 q 456 944 517 1018 q 369 797 396 869 l 347 797 q 429 942 372 864 q 572 1076 486 1019 q 761 1133 658 1133 q 870 1098 832 1133 q 908 1001 908 1063 q 844 824 908 921 l 569 396 q 510 235 510 303 q 547 145 510 176 q 631 114 585 114 q 827 179 718 114 q 1036 399 936 244 l 1404 972 l 1571 972 m 1149 1369 q 1260 1261 1185 1319 q 1411 1169 1335 1203 l 1403 1165 q 1258 1232 1340 1186 q 1122 1325 1176 1278 l 1149 1369 z "},"Ỹ":{"ha":1431,"x_min":-44,"x_max":1571,"o":"m 1571 972 q 1022 165 1217 444 q 735 -229 826 -114 q 583 -400 644 -344 q 369 -551 458 -511 q 185 -590 281 -590 q 17 -535 78 -590 q -44 -397 -44 -479 q 178 -189 -44 -256 q 339 -146 253 -165 q 565 -99 425 -126 l 649 -82 q 1066 52 872 -37 q 1438 321 1260 142 l 1460 321 q 1097 50 1282 143 q 653 -101 913 -43 q 315 -192 442 -149 q 118 -291 188 -235 q 49 -425 49 -347 q 86 -526 49 -481 q 192 -571 124 -571 q 356 -501 269 -571 q 570 -267 442 -431 q 963 258 699 -104 l 949 258 q 761 111 850 154 q 596 68 672 68 q 438 123 496 68 q 381 268 381 178 q 461 490 381 375 q 715 882 638 743 q 793 1074 793 1021 q 746 1115 793 1115 q 594 1067 672 1115 q 456 944 517 1018 q 369 797 396 869 l 347 797 q 429 942 372 864 q 572 1076 486 1019 q 761 1133 658 1133 q 870 1098 832 1133 q 908 1001 908 1063 q 844 824 908 921 l 569 396 q 510 235 510 303 q 547 145 510 176 q 631 114 585 114 q 827 179 718 114 q 1036 399 936 244 l 1404 972 l 1571 972 m 1221 1250 q 1262 1242 1235 1250 q 1294 1232 1289 1233 q 1363 1214 1346 1214 q 1399 1222 1376 1214 q 1442 1240 1422 1231 l 1449 1236 q 1399 1208 1410 1214 q 1317 1183 1350 1183 q 1250 1201 1292 1183 q 1215 1213 1232 1208 q 1182 1218 1197 1218 q 1141 1210 1165 1218 q 1093 1193 1117 1203 l 1086 1197 q 1141 1225 1090 1200 q 1221 1250 1192 1250 z "},"Z":{"ha":1088,"x_min":-251,"x_max":1221,"o":"m 1125 321 q 884 184 1011 239 q 539 54 757 129 q 260 -46 381 0 q 13 -153 139 -92 q -129 -267 -81 -197 q -178 -406 -178 -336 q -131 -524 -178 -476 q -4 -571 -85 -571 q 312 -451 147 -571 q 585 -146 476 -332 q 694 226 694 40 q 653 363 694 308 q 549 441 611 417 q 428 465 488 465 q 285 430 339 465 q 182 335 232 394 q 135 287 150 300 q 99 274 119 274 q 76 283 83 274 q 68 307 68 293 q 146 413 68 350 q 341 547 224 476 q 690 747 458 617 q 1117 992 1003 924 l 1107 1000 l 1057 981 q 987 958 1013 964 q 921 951 961 951 q 865 960 892 951 q 793 986 839 968 q 723 1013 751 1004 q 663 1022 694 1022 q 565 986 613 1022 q 422 851 518 950 l 368 796 l 335 796 l 553 1029 q 654 1108 606 1083 q 754 1133 703 1133 q 827 1118 793 1133 q 904 1074 861 1103 q 983 1031 953 1044 q 1049 1017 1013 1017 q 1101 1034 1082 1017 q 1140 1086 1119 1051 q 1164 1122 1153 1110 q 1190 1133 1175 1133 q 1213 1125 1204 1133 q 1221 1103 1221 1117 q 1129 981 1221 1053 q 878 816 1038 908 q 379 539 718 724 l 221 453 l 231 442 q 345 486 285 471 q 458 501 406 501 q 658 463 568 501 q 801 353 749 424 q 854 192 854 283 q 728 -171 854 13 q 406 -472 603 -354 q 14 -590 210 -590 q -124 -560 -62 -590 q -218 -481 -185 -531 q -251 -375 -251 -432 q -199 -240 -251 -306 q -40 -128 -146 -174 q 160 -49 58 -85 q 435 43 263 -14 q 831 182 681 122 q 1097 321 982 242 l 1125 321 z "},"Ź":{"ha":1088,"x_min":-251,"x_max":1221,"o":"m 1125 321 q 884 184 1011 239 q 539 54 757 129 q 260 -46 381 0 q 13 -153 139 -92 q -129 -267 -81 -197 q -178 -406 -178 -336 q -131 -524 -178 -476 q -4 -571 -85 -571 q 312 -451 147 -571 q 585 -146 476 -332 q 694 226 694 40 q 653 363 694 308 q 549 441 611 417 q 428 465 488 465 q 285 430 339 465 q 182 335 232 394 q 135 287 150 300 q 99 274 119 274 q 76 283 83 274 q 68 307 68 293 q 146 413 68 350 q 341 547 224 476 q 690 747 458 617 q 1117 992 1003 924 l 1107 1000 l 1057 981 q 987 958 1013 964 q 921 951 961 951 q 865 960 892 951 q 793 986 839 968 q 723 1013 751 1004 q 663 1022 694 1022 q 565 986 613 1022 q 422 851 518 950 l 368 796 l 335 796 l 553 1029 q 654 1108 606 1083 q 754 1133 703 1133 q 827 1118 793 1133 q 904 1074 861 1103 q 983 1031 953 1044 q 1049 1017 1013 1017 q 1101 1034 1082 1017 q 1140 1086 1119 1051 q 1164 1122 1153 1110 q 1190 1133 1175 1133 q 1213 1125 1204 1133 q 1221 1103 1221 1117 q 1129 981 1221 1053 q 878 816 1038 908 q 379 539 718 724 l 221 453 l 231 442 q 345 486 285 471 q 458 501 406 501 q 658 463 568 501 q 801 353 749 424 q 854 192 854 283 q 728 -171 854 13 q 406 -472 603 -354 q 14 -590 210 -590 q -124 -560 -62 -590 q -218 -481 -185 -531 q -251 -375 -251 -432 q -199 -240 -251 -306 q -40 -128 -146 -174 q 160 -49 58 -85 q 435 43 263 -14 q 831 182 681 122 q 1097 321 982 242 l 1125 321 m 1164 1325 q 1028 1232 1110 1278 q 883 1165 946 1186 l 875 1169 q 1026 1261 951 1203 q 1138 1369 1101 1319 l 1164 1325 z "},"Ž":{"ha":1088,"x_min":-251,"x_max":1272,"o":"m 1125 321 q 884 184 1011 239 q 539 54 757 129 q 260 -46 381 0 q 13 -153 139 -92 q -129 -267 -81 -197 q -178 -406 -178 -336 q -131 -524 -178 -476 q -4 -571 -85 -571 q 312 -451 147 -571 q 585 -146 476 -332 q 694 226 694 40 q 653 363 694 308 q 549 441 611 417 q 428 465 488 465 q 285 430 339 465 q 182 335 232 394 q 135 287 150 300 q 99 274 119 274 q 76 283 83 274 q 68 307 68 293 q 146 413 68 350 q 341 547 224 476 q 690 747 458 617 q 1117 992 1003 924 l 1107 1000 l 1057 981 q 987 958 1013 964 q 921 951 961 951 q 865 960 892 951 q 793 986 839 968 q 723 1013 751 1004 q 663 1022 694 1022 q 565 986 613 1022 q 422 851 518 950 l 368 796 l 335 796 l 553 1029 q 654 1108 606 1083 q 754 1133 703 1133 q 827 1118 793 1133 q 904 1074 861 1103 q 983 1031 953 1044 q 1049 1017 1013 1017 q 1101 1034 1082 1017 q 1140 1086 1119 1051 q 1164 1122 1153 1110 q 1190 1133 1175 1133 q 1213 1125 1204 1133 q 1221 1103 1221 1117 q 1129 981 1221 1053 q 878 816 1038 908 q 379 539 718 724 l 221 453 l 231 442 q 345 486 285 471 q 458 501 406 501 q 658 463 568 501 q 801 353 749 424 q 854 192 854 283 q 728 -171 854 13 q 406 -472 603 -354 q 14 -590 210 -590 q -124 -560 -62 -590 q -218 -481 -185 -531 q -251 -375 -251 -432 q -199 -240 -251 -306 q -40 -128 -146 -174 q 160 -49 58 -85 q 435 43 263 -14 q 831 182 681 122 q 1097 321 982 242 l 1125 321 m 933 1378 q 966 1320 951 1356 q 986 1254 981 1285 q 1106 1328 1022 1289 q 1239 1378 1189 1368 l 1272 1378 q 961 1172 1081 1318 l 949 1182 q 950 1199 949 1186 q 951 1236 951 1213 q 922 1378 951 1318 l 933 1378 z "},"Ż":{"ha":1088,"x_min":-251,"x_max":1221,"o":"m 1125 321 q 884 184 1011 239 q 539 54 757 129 q 260 -46 381 0 q 13 -153 139 -92 q -129 -267 -81 -197 q -178 -406 -178 -336 q -131 -524 -178 -476 q -4 -571 -85 -571 q 312 -451 147 -571 q 585 -146 476 -332 q 694 226 694 40 q 653 363 694 308 q 549 441 611 417 q 428 465 488 465 q 285 430 339 465 q 182 335 232 394 q 135 287 150 300 q 99 274 119 274 q 76 283 83 274 q 68 307 68 293 q 146 413 68 350 q 341 547 224 476 q 690 747 458 617 q 1117 992 1003 924 l 1107 1000 l 1057 981 q 987 958 1013 964 q 921 951 961 951 q 865 960 892 951 q 793 986 839 968 q 723 1013 751 1004 q 663 1022 694 1022 q 565 986 613 1022 q 422 851 518 950 l 368 796 l 335 796 l 553 1029 q 654 1108 606 1083 q 754 1133 703 1133 q 827 1118 793 1133 q 904 1074 861 1103 q 983 1031 953 1044 q 1049 1017 1013 1017 q 1101 1034 1082 1017 q 1140 1086 1119 1051 q 1164 1122 1153 1110 q 1190 1133 1175 1133 q 1213 1125 1204 1133 q 1221 1103 1221 1117 q 1129 981 1221 1053 q 878 816 1038 908 q 379 539 718 724 l 221 453 l 231 442 q 345 486 285 471 q 458 501 406 501 q 658 463 568 501 q 801 353 749 424 q 854 192 854 283 q 728 -171 854 13 q 406 -472 603 -354 q 14 -590 210 -590 q -124 -560 -62 -590 q -218 -481 -185 -531 q -251 -375 -251 -432 q -199 -240 -251 -306 q -40 -128 -146 -174 q 160 -49 58 -85 q 435 43 263 -14 q 831 182 681 122 q 1097 321 982 242 l 1125 321 m 1110 1343 q 1128 1328 1128 1343 q 1119 1301 1128 1318 q 1042 1222 1096 1261 q 958 1182 989 1182 q 940 1200 940 1182 q 947 1222 940 1208 q 1025 1303 971 1263 q 1110 1343 1079 1343 z "},"a":{"ha":796,"x_min":-50,"x_max":833,"o":"m 463 111 q 446 60 446 86 q 476 26 446 26 q 572 90 506 26 l 811 321 l 833 321 l 589 83 q 489 0 526 22 q 415 -22 451 -22 q 343 11 365 -22 q 331 54 331 28 q 356 138 331 88 l 346 138 q 88 -22 196 -22 q -12 13 25 -22 q -50 104 -50 47 q 26 301 -50 197 q 216 474 103 404 q 433 543 329 543 q 518 468 518 543 q 507 401 518 435 l 517 401 l 579 521 l 718 521 l 463 111 m 101 -3 q 256 82 161 -3 q 424 278 351 167 q 496 467 496 390 q 440 524 496 524 q 287 438 378 524 q 127 238 196 351 q 58 50 58 124 q 101 -3 58 -3 z "},"á":{"ha":796,"x_min":-50,"x_max":833,"o":"m 463 111 q 446 60 446 86 q 476 26 446 26 q 572 90 506 26 l 811 321 l 833 321 l 589 83 q 489 0 526 22 q 415 -22 451 -22 q 343 11 365 -22 q 331 54 331 28 q 356 138 331 88 l 346 138 q 88 -22 196 -22 q -12 13 25 -22 q -50 104 -50 47 q 26 301 -50 197 q 216 474 103 404 q 433 543 329 543 q 518 468 518 543 q 507 401 518 435 l 517 401 l 579 521 l 718 521 l 463 111 m 101 -3 q 256 82 161 -3 q 424 278 351 167 q 496 467 496 390 q 440 524 496 524 q 287 438 378 524 q 127 238 196 351 q 58 50 58 124 q 101 -3 58 -3 m 725 753 q 589 660 671 706 q 444 593 507 614 l 436 597 q 588 689 513 631 q 699 797 663 747 l 725 753 z "},"ă":{"ha":796,"x_min":-50,"x_max":833,"o":"m 463 111 q 446 60 446 86 q 476 26 446 26 q 572 90 506 26 l 811 321 l 833 321 l 589 83 q 489 0 526 22 q 415 -22 451 -22 q 343 11 365 -22 q 331 54 331 28 q 356 138 331 88 l 346 138 q 88 -22 196 -22 q -12 13 25 -22 q -50 104 -50 47 q 26 301 -50 197 q 216 474 103 404 q 433 543 329 543 q 518 468 518 543 q 507 401 518 435 l 517 401 l 579 521 l 718 521 l 463 111 m 101 -3 q 256 82 161 -3 q 424 278 351 167 q 496 467 496 390 q 440 524 496 524 q 287 438 378 524 q 127 238 196 351 q 58 50 58 124 q 101 -3 58 -3 m 760 714 q 685 635 729 663 q 586 607 640 607 q 510 635 539 607 q 481 703 481 663 l 489 714 q 517 665 492 683 q 592 646 543 646 q 750 725 703 646 l 760 714 z "},"â":{"ha":796,"x_min":-50,"x_max":833,"o":"m 463 111 q 446 60 446 86 q 476 26 446 26 q 572 90 506 26 l 811 321 l 833 321 l 589 83 q 489 0 526 22 q 415 -22 451 -22 q 343 11 365 -22 q 331 54 331 28 q 356 138 331 88 l 346 138 q 88 -22 196 -22 q -12 13 25 -22 q -50 104 -50 47 q 26 301 -50 197 q 216 474 103 404 q 433 543 329 543 q 518 468 518 543 q 507 401 518 435 l 517 401 l 579 521 l 718 521 l 463 111 m 101 -3 q 256 82 161 -3 q 424 278 351 167 q 496 467 496 390 q 440 524 496 524 q 287 438 378 524 q 127 238 196 351 q 58 50 58 124 q 101 -3 58 -3 m 694 585 q 662 642 676 607 q 642 708 647 678 q 523 634 606 674 q 389 585 440 594 l 356 585 q 667 790 547 644 l 679 781 q 678 763 679 776 q 676 726 676 750 q 706 585 676 644 l 694 585 z "},"ä":{"ha":796,"x_min":-50,"x_max":833,"o":"m 463 111 q 446 60 446 86 q 476 26 446 26 q 572 90 506 26 l 811 321 l 833 321 l 589 83 q 489 0 526 22 q 415 -22 451 -22 q 343 11 365 -22 q 331 54 331 28 q 356 138 331 88 l 346 138 q 88 -22 196 -22 q -12 13 25 -22 q -50 104 -50 47 q 26 301 -50 197 q 216 474 103 404 q 433 543 329 543 q 518 468 518 543 q 507 401 518 435 l 517 401 l 579 521 l 718 521 l 463 111 m 101 -3 q 256 82 161 -3 q 424 278 351 167 q 496 467 496 390 q 440 524 496 524 q 287 438 378 524 q 127 238 196 351 q 58 50 58 124 q 101 -3 58 -3 m 569 771 q 586 756 586 771 q 578 729 586 746 q 503 649 556 689 q 421 610 451 610 q 404 628 404 610 q 411 651 404 635 q 486 731 433 690 q 569 771 539 771 m 771 771 q 790 756 790 771 q 781 729 790 749 q 705 650 758 690 q 621 610 651 610 q 603 628 603 610 q 608 650 603 639 q 686 731 632 690 q 771 771 740 771 z "},"à":{"ha":796,"x_min":-50,"x_max":833,"o":"m 463 111 q 446 60 446 86 q 476 26 446 26 q 572 90 506 26 l 811 321 l 833 321 l 589 83 q 489 0 526 22 q 415 -22 451 -22 q 343 11 365 -22 q 331 54 331 28 q 356 138 331 88 l 346 138 q 88 -22 196 -22 q -12 13 25 -22 q -50 104 -50 47 q 26 301 -50 197 q 216 474 103 404 q 433 543 329 543 q 518 468 518 543 q 507 401 518 435 l 517 401 l 579 521 l 718 521 l 463 111 m 101 -3 q 256 82 161 -3 q 424 278 351 167 q 496 467 496 390 q 440 524 496 524 q 287 438 378 524 q 127 238 196 351 q 58 50 58 124 q 101 -3 58 -3 m 469 797 q 581 689 506 747 q 732 597 656 631 l 724 593 q 579 660 661 614 q 443 753 497 706 l 469 797 z "},"ā":{"ha":796,"x_min":-50,"x_max":833,"o":"m 463 111 q 446 60 446 86 q 476 26 446 26 q 572 90 506 26 l 811 321 l 833 321 l 589 83 q 489 0 526 22 q 415 -22 451 -22 q 343 11 365 -22 q 331 54 331 28 q 356 138 331 88 l 346 138 q 88 -22 196 -22 q -12 13 25 -22 q -50 104 -50 47 q 26 301 -50 197 q 216 474 103 404 q 433 543 329 543 q 518 468 518 543 q 507 401 518 435 l 517 401 l 579 521 l 718 521 l 463 111 m 101 -3 q 256 82 161 -3 q 424 278 351 167 q 496 467 496 390 q 440 524 496 524 q 287 438 378 524 q 127 238 196 351 q 58 50 58 124 q 101 -3 58 -3 m 733 617 l 425 617 l 460 651 l 747 651 l 733 617 z "},"ą":{"ha":796,"x_min":-50,"x_max":833,"o":"m 463 111 q 446 60 446 86 q 476 26 446 26 q 572 90 506 26 l 811 321 l 833 321 l 589 83 q 489 0 526 22 q 415 -22 451 -22 q 343 11 365 -22 q 331 54 331 28 q 356 138 331 88 l 346 138 q 88 -22 196 -22 q -12 13 25 -22 q -50 104 -50 47 q 26 301 -50 197 q 216 474 103 404 q 433 543 329 543 q 518 468 518 543 q 507 401 518 435 l 517 401 l 579 521 l 718 521 l 463 111 m 101 -3 q 256 82 161 -3 q 424 278 351 167 q 496 467 496 390 q 440 524 496 524 q 287 438 378 524 q 127 238 196 351 q 58 50 58 124 q 101 -3 58 -3 m 299 -153 q 315 -91 299 -118 q 367 -26 332 -64 q 400 4 378 -15 l 413 4 q 378 -42 406 -3 q 339 -139 339 -96 q 359 -188 339 -171 q 408 -206 379 -206 q 468 -185 435 -206 l 471 -192 q 446 -231 468 -212 q 389 -249 424 -249 q 327 -225 356 -249 q 299 -153 299 -201 z "},"å":{"ha":796,"x_min":-50,"x_max":833,"o":"m 463 111 q 446 60 446 86 q 476 26 446 26 q 572 90 506 26 l 811 321 l 833 321 l 589 83 q 489 0 526 22 q 415 -22 451 -22 q 343 11 365 -22 q 331 54 331 28 q 356 138 331 88 l 346 138 q 88 -22 196 -22 q -12 13 25 -22 q -50 104 -50 47 q 26 301 -50 197 q 216 474 103 404 q 433 543 329 543 q 518 468 518 543 q 507 401 518 435 l 517 401 l 579 521 l 718 521 l 463 111 m 101 -3 q 256 82 161 -3 q 424 278 351 167 q 496 467 496 390 q 440 524 496 524 q 287 438 378 524 q 127 238 196 351 q 58 50 58 124 q 101 -3 58 -3 m 665 782 q 706 750 706 782 q 677 686 706 721 q 608 628 649 651 q 533 604 567 604 q 499 617 511 604 q 492 649 488 629 q 528 708 499 676 q 597 761 558 740 q 665 782 635 782 m 674 772 q 621 750 654 772 q 557 696 588 728 q 517 639 526 664 q 515 628 515 635 q 526 614 515 614 q 579 636 546 614 q 642 690 613 658 q 682 744 672 721 q 685 760 685 756 q 674 772 685 772 z "},"ã":{"ha":796,"x_min":-50,"x_max":833,"o":"m 463 111 q 446 60 446 86 q 476 26 446 26 q 572 90 506 26 l 811 321 l 833 321 l 589 83 q 489 0 526 22 q 415 -22 451 -22 q 343 11 365 -22 q 331 54 331 28 q 356 138 331 88 l 346 138 q 88 -22 196 -22 q -12 13 25 -22 q -50 104 -50 47 q 26 301 -50 197 q 216 474 103 404 q 433 543 329 543 q 518 468 518 543 q 507 401 518 435 l 517 401 l 579 521 l 718 521 l 463 111 m 101 -3 q 256 82 161 -3 q 424 278 351 167 q 496 467 496 390 q 440 524 496 524 q 287 438 378 524 q 127 238 196 351 q 58 50 58 124 q 101 -3 58 -3 m 542 678 q 583 669 556 678 q 615 660 610 661 q 683 642 667 642 q 720 650 697 642 q 763 668 743 658 l 769 664 q 719 636 731 642 q 638 611 671 611 q 571 629 613 611 q 535 641 553 636 q 503 646 518 646 q 462 638 486 646 q 414 621 438 631 l 407 625 q 462 653 411 628 q 542 678 513 678 z "},"æ":{"ha":1025,"x_min":-50,"x_max":1063,"o":"m 507 179 l 375 176 q 215 24 282 71 q 88 -22 147 -22 q -12 13 25 -22 q -50 104 -50 47 q 26 301 -50 197 q 216 474 103 404 q 433 543 329 543 q 518 468 518 543 q 507 401 518 435 l 517 401 l 565 494 l 704 494 l 507 179 m 101 -3 q 256 82 161 -3 q 424 278 351 167 q 496 467 496 390 q 440 524 496 524 q 287 438 378 524 q 127 238 196 351 q 58 50 58 124 q 101 -3 58 -3 m 1063 321 q 803 72 931 165 q 546 -22 675 -22 q 424 16 472 -22 q 376 133 376 54 q 454 317 376 221 q 647 478 532 414 q 865 543 763 543 q 955 525 919 543 q 990 472 990 507 q 919 366 990 418 q 742 279 849 314 q 538 239 636 244 l 546 263 q 722 308 640 271 q 850 394 803 344 q 897 488 897 443 q 887 515 897 506 q 857 524 876 524 q 707 446 793 524 q 559 262 621 368 q 497 82 497 156 q 518 24 497 43 q 578 4 539 4 q 799 91 676 4 q 1040 321 921 178 l 1063 321 z "},"b":{"ha":757,"x_min":-162,"x_max":797,"o":"m 125 -3 q 275 87 186 -3 q 431 292 364 176 q 499 472 499 407 q 453 524 499 524 q 297 437 389 524 q 137 236 206 350 q 68 56 68 122 q 125 -3 68 -3 m 797 321 q 638 161 725 218 q 457 104 551 104 q 342 151 381 104 q 304 271 304 197 q 344 426 304 349 q 450 539 385 503 l 460 525 q 360 416 399 489 q 321 271 321 343 q 355 164 321 206 q 457 122 389 122 q 628 176 546 122 q 778 326 711 231 l 797 321 m 231 418 l 240 418 q 471 543 363 543 q 567 511 532 543 q 603 425 603 479 q 578 331 603 383 q 474 165 549 247 q 303 31 399 83 q 124 -22 208 -22 q 40 54 40 -22 q 50 114 40 78 l 40 114 l -24 0 l -162 0 l 450 972 l 588 972 l 231 418 z "},"c":{"ha":583,"x_min":-46,"x_max":621,"o":"m 621 321 q 371 69 485 160 q 142 -22 257 -22 q 3 17 53 -22 q -46 124 -46 57 q 0 261 -46 189 q 124 403 49 339 q 283 506 199 468 q 439 543 367 543 q 519 510 490 543 q 547 432 547 476 q 523 361 547 390 q 456 332 499 332 q 379 363 410 332 q 435 421 413 378 q 458 497 458 464 q 454 516 458 508 q 443 524 450 524 q 296 448 383 524 q 139 261 208 372 q 74 83 74 156 q 96 20 74 43 q 163 -3 118 -3 q 599 321 333 -3 l 621 321 z "},"ć":{"ha":583,"x_min":-46,"x_max":671,"o":"m 621 321 q 371 69 485 160 q 142 -22 257 -22 q 3 17 53 -22 q -46 124 -46 57 q 0 261 -46 189 q 124 403 49 339 q 283 506 199 468 q 439 543 367 543 q 519 510 490 543 q 547 432 547 476 q 523 361 547 390 q 456 332 499 332 q 379 363 410 332 q 435 421 413 378 q 458 497 458 464 q 454 516 458 508 q 443 524 450 524 q 296 448 383 524 q 139 261 208 372 q 74 83 74 156 q 96 20 74 43 q 163 -3 118 -3 q 599 321 333 -3 l 621 321 m 671 753 q 535 660 617 706 q 390 593 453 614 l 382 597 q 533 689 458 631 q 644 797 608 747 l 671 753 z "},"č":{"ha":583,"x_min":-46,"x_max":779,"o":"m 621 321 q 371 69 485 160 q 142 -22 257 -22 q 3 17 53 -22 q -46 124 -46 57 q 0 261 -46 189 q 124 403 49 339 q 283 506 199 468 q 439 543 367 543 q 519 510 490 543 q 547 432 547 476 q 523 361 547 390 q 456 332 499 332 q 379 363 410 332 q 435 421 413 378 q 458 497 458 464 q 454 516 458 508 q 443 524 450 524 q 296 448 383 524 q 139 261 208 372 q 74 83 74 156 q 96 20 74 43 q 163 -3 118 -3 q 599 321 333 -3 l 621 321 m 440 806 q 473 748 458 783 q 493 682 488 713 q 613 756 529 717 q 746 806 696 796 l 779 806 q 468 600 588 746 l 456 610 q 457 627 456 614 q 458 664 458 640 q 429 806 458 746 l 440 806 z "},"ç":{"ha":583,"x_min":-46,"x_max":621,"o":"m 621 321 q 371 69 485 160 q 142 -22 257 -22 q 3 17 53 -22 q -46 124 -46 57 q 0 261 -46 189 q 124 403 49 339 q 283 506 199 468 q 439 543 367 543 q 519 510 490 543 q 547 432 547 476 q 523 361 547 390 q 456 332 499 332 q 379 363 410 332 q 435 421 413 378 q 458 497 458 464 q 454 516 458 508 q 443 524 450 524 q 296 448 383 524 q 139 261 208 372 q 74 83 74 156 q 96 20 74 43 q 163 -3 118 -3 q 599 321 333 -3 l 621 321 m 53 -103 q 101 -135 83 -119 q 143 -212 143 -172 q 126 -253 143 -237 q 76 -269 108 -269 q 18 -254 51 -269 q -35 -224 -15 -239 l -28 -217 q 7 -235 -7 -229 q 38 -242 21 -242 q 85 -224 67 -242 q 103 -182 103 -207 q 89 -143 103 -160 q 38 -103 75 -126 l 53 -103 m 121 0 l 53 -103 l 38 -103 l 89 0 l 121 0 z "},"ĉ":{"ha":583,"x_min":-46,"x_max":651,"o":"m 621 321 q 371 69 485 160 q 142 -22 257 -22 q 3 17 53 -22 q -46 124 -46 57 q 0 261 -46 189 q 124 403 49 339 q 283 506 199 468 q 439 543 367 543 q 519 510 490 543 q 547 432 547 476 q 523 361 547 390 q 456 332 499 332 q 379 363 410 332 q 435 421 413 378 q 458 497 458 464 q 454 516 458 508 q 443 524 450 524 q 296 448 383 524 q 139 261 208 372 q 74 83 74 156 q 96 20 74 43 q 163 -3 118 -3 q 599 321 333 -3 l 621 321 m 640 585 q 608 642 622 607 q 588 708 593 678 q 469 634 551 674 q 335 585 386 594 l 301 585 q 613 790 493 644 l 625 781 q 624 763 625 776 q 622 726 622 750 q 651 585 622 644 l 640 585 z "},"ċ":{"ha":583,"x_min":-46,"x_max":636,"o":"m 621 321 q 371 69 485 160 q 142 -22 257 -22 q 3 17 53 -22 q -46 124 -46 57 q 0 261 -46 189 q 124 403 49 339 q 283 506 199 468 q 439 543 367 543 q 519 510 490 543 q 547 432 547 476 q 523 361 547 390 q 456 332 499 332 q 379 363 410 332 q 435 421 413 378 q 458 497 458 464 q 454 516 458 508 q 443 524 450 524 q 296 448 383 524 q 139 261 208 372 q 74 83 74 156 q 96 20 74 43 q 163 -3 118 -3 q 599 321 333 -3 l 621 321 m 618 771 q 636 756 636 771 q 628 729 636 746 q 551 649 604 689 q 467 610 497 610 q 449 628 449 610 q 456 650 449 636 q 533 731 479 690 q 618 771 588 771 z "},"d":{"ha":789,"x_min":-49,"x_max":997,"o":"m 100 -3 q 258 83 167 -3 q 418 283 350 169 q 486 464 486 396 q 429 524 486 524 q 318 472 383 524 q 195 340 253 419 q 110 185 138 261 q 64 43 64 97 q 100 -3 64 -3 m 458 111 q 439 58 439 81 q 447 36 439 44 q 468 28 454 28 q 558 86 499 28 l 804 321 l 826 321 l 581 85 q 481 1 517 24 q 411 -22 446 -22 q 351 -1 374 -22 q 329 57 329 19 q 353 138 329 90 l 343 138 q 213 19 275 61 q 90 -22 151 -22 q -11 11 26 -22 q -49 100 -49 44 q -25 190 -49 143 q 81 355 4 272 q 254 490 158 438 q 435 543 350 543 q 493 522 474 543 q 513 465 513 501 q 501 401 513 439 l 511 401 l 860 972 l 997 972 l 458 111 z "},"ð":{"ha":892,"x_min":-33,"x_max":1058,"o":"m 621 696 q 399 590 517 696 q 201 339 282 483 q 121 99 121 194 q 211 0 121 0 q 436 106 317 0 q 638 353 556 211 q 721 593 721 496 q 696 669 721 642 q 621 696 671 696 m 179 -22 q 19 19 71 -22 q -33 132 -33 61 q 68 380 -33 240 q 322 619 169 519 q 617 718 474 718 q 719 683 688 718 q 751 592 751 649 q 740 515 751 556 l 754 518 q 856 878 856 729 q 821 1016 856 958 q 711 1097 786 1074 l 726 1111 q 900 999 843 1081 q 957 804 957 918 q 845 438 957 633 q 553 110 733 243 q 179 -22 372 -22 m 1058 879 l 1058 861 l 626 861 l 626 879 l 1058 879 m 1013 342 q 856 185 953 246 q 661 125 760 125 q 467 194 532 125 q 403 371 403 264 q 428 508 403 439 q 502 633 454 578 q 611 713 550 688 l 621 699 q 517 622 563 675 q 445 503 471 569 q 419 372 419 438 q 480 208 419 272 q 661 143 540 143 q 845 199 754 143 q 993 346 936 256 l 1013 342 z "},"ď":{"ha":789,"x_min":-49,"x_max":1168,"o":"m 100 -3 q 258 83 167 -3 q 418 283 350 169 q 486 464 486 396 q 429 524 486 524 q 318 472 383 524 q 195 340 253 419 q 110 185 138 261 q 64 43 64 97 q 100 -3 64 -3 m 458 111 q 439 58 439 81 q 447 36 439 44 q 468 28 454 28 q 558 86 499 28 l 804 321 l 826 321 l 581 85 q 481 1 517 24 q 411 -22 446 -22 q 351 -1 374 -22 q 329 57 329 19 q 353 138 329 90 l 343 138 q 213 19 275 61 q 90 -22 151 -22 q -11 11 26 -22 q -49 100 -49 44 q -25 190 -49 143 q 81 355 4 272 q 254 490 158 438 q 435 543 350 543 q 493 522 474 543 q 513 465 513 501 q 501 401 513 439 l 511 401 l 860 972 l 997 972 l 458 111 m 1068 826 q 1046 854 1046 826 q 1059 904 1046 876 q 1094 952 1072 932 q 1138 972 1115 972 q 1168 938 1168 972 q 1114 817 1168 874 q 986 736 1060 761 l 979 749 q 1059 791 1032 769 q 1097 840 1086 813 l 1092 840 q 1068 826 1079 826 z "},"đ":{"ha":789,"x_min":-49,"x_max":1000,"o":"m 100 -3 q 258 83 167 -3 q 418 283 350 169 q 486 464 486 396 q 429 524 486 524 q 318 472 383 524 q 195 340 253 419 q 110 185 138 261 q 64 43 64 97 q 100 -3 64 -3 m 458 111 q 439 58 439 81 q 447 36 439 44 q 468 28 454 28 q 558 86 499 28 l 804 321 l 826 321 l 581 85 q 481 1 517 24 q 411 -22 446 -22 q 351 -1 374 -22 q 329 57 329 19 q 353 138 329 90 l 343 138 q 213 19 275 61 q 90 -22 151 -22 q -11 11 26 -22 q -49 100 -49 44 q -25 190 -49 143 q 81 355 4 272 q 254 490 158 438 q 435 543 350 543 q 493 522 474 543 q 513 465 513 501 q 501 401 513 439 l 511 401 l 860 972 l 997 972 l 458 111 m 1000 799 l 1000 781 l 556 781 l 556 799 l 1000 799 z "},"e":{"ha":618,"x_min":-39,"x_max":647,"o":"m 647 321 q 387 71 514 164 q 131 -22 260 -22 q 9 16 57 -22 q -39 133 -39 54 q 40 317 -39 221 q 233 478 118 413 q 451 543 349 543 q 540 525 504 543 q 575 472 575 507 q 504 366 575 418 q 327 279 433 314 q 122 239 221 244 l 131 263 q 306 308 225 271 q 435 394 388 344 q 482 488 482 443 q 472 515 482 506 q 442 524 461 524 q 292 446 378 524 q 144 262 206 368 q 82 82 82 156 q 103 24 82 43 q 163 4 124 4 q 384 90 263 4 q 625 321 506 176 l 647 321 z "},"é":{"ha":618,"x_min":-39,"x_max":661,"o":"m 647 321 q 387 71 514 164 q 131 -22 260 -22 q 9 16 57 -22 q -39 133 -39 54 q 40 317 -39 221 q 233 478 118 413 q 451 543 349 543 q 540 525 504 543 q 575 472 575 507 q 504 366 575 418 q 327 279 433 314 q 122 239 221 244 l 131 263 q 306 308 225 271 q 435 394 388 344 q 482 488 482 443 q 472 515 482 506 q 442 524 461 524 q 292 446 378 524 q 144 262 206 368 q 82 82 82 156 q 103 24 82 43 q 163 4 124 4 q 384 90 263 4 q 625 321 506 176 l 647 321 m 661 753 q 525 660 607 706 q 381 593 443 614 l 372 597 q 524 689 449 631 q 635 797 599 747 l 661 753 z "},"ě":{"ha":618,"x_min":-39,"x_max":769,"o":"m 647 321 q 387 71 514 164 q 131 -22 260 -22 q 9 16 57 -22 q -39 133 -39 54 q 40 317 -39 221 q 233 478 118 413 q 451 543 349 543 q 540 525 504 543 q 575 472 575 507 q 504 366 575 418 q 327 279 433 314 q 122 239 221 244 l 131 263 q 306 308 225 271 q 435 394 388 344 q 482 488 482 443 q 472 515 482 506 q 442 524 461 524 q 292 446 378 524 q 144 262 206 368 q 82 82 82 156 q 103 24 82 43 q 163 4 124 4 q 384 90 263 4 q 625 321 506 176 l 647 321 m 431 806 q 463 748 449 783 q 483 682 478 713 q 603 756 519 717 q 736 806 686 796 l 769 806 q 458 600 578 746 l 446 610 q 447 627 446 614 q 449 664 449 640 q 419 806 449 746 l 431 806 z "},"ê":{"ha":618,"x_min":-39,"x_max":647,"o":"m 647 321 q 387 71 514 164 q 131 -22 260 -22 q 9 16 57 -22 q -39 133 -39 54 q 40 317 -39 221 q 233 478 118 413 q 451 543 349 543 q 540 525 504 543 q 575 472 575 507 q 504 366 575 418 q 327 279 433 314 q 122 239 221 244 l 131 263 q 306 308 225 271 q 435 394 388 344 q 482 488 482 443 q 472 515 482 506 q 442 524 461 524 q 292 446 378 524 q 144 262 206 368 q 82 82 82 156 q 103 24 82 43 q 163 4 124 4 q 384 90 263 4 q 625 321 506 176 l 647 321 m 631 585 q 598 642 613 607 q 578 708 583 678 q 459 634 542 674 q 325 585 376 594 l 292 585 q 603 790 483 644 l 615 781 q 614 763 615 776 q 613 726 613 750 q 642 585 613 644 l 631 585 z "},"ë":{"ha":618,"x_min":-39,"x_max":726,"o":"m 647 321 q 387 71 514 164 q 131 -22 260 -22 q 9 16 57 -22 q -39 133 -39 54 q 40 317 -39 221 q 233 478 118 413 q 451 543 349 543 q 540 525 504 543 q 575 472 575 507 q 504 366 575 418 q 327 279 433 314 q 122 239 221 244 l 131 263 q 306 308 225 271 q 435 394 388 344 q 482 488 482 443 q 472 515 482 506 q 442 524 461 524 q 292 446 378 524 q 144 262 206 368 q 82 82 82 156 q 103 24 82 43 q 163 4 124 4 q 384 90 263 4 q 625 321 506 176 l 647 321 m 506 771 q 522 756 522 771 q 514 729 522 746 q 440 649 492 689 q 357 610 388 610 q 340 628 340 610 q 347 651 340 635 q 422 731 369 690 q 506 771 475 771 m 707 771 q 726 756 726 771 q 717 729 726 749 q 641 650 694 690 q 557 610 588 610 q 539 628 539 610 q 544 650 539 639 q 622 731 568 690 q 707 771 676 771 z "},"ė":{"ha":618,"x_min":-39,"x_max":647,"o":"m 647 321 q 387 71 514 164 q 131 -22 260 -22 q 9 16 57 -22 q -39 133 -39 54 q 40 317 -39 221 q 233 478 118 413 q 451 543 349 543 q 540 525 504 543 q 575 472 575 507 q 504 366 575 418 q 327 279 433 314 q 122 239 221 244 l 131 263 q 306 308 225 271 q 435 394 388 344 q 482 488 482 443 q 472 515 482 506 q 442 524 461 524 q 292 446 378 524 q 144 262 206 368 q 82 82 82 156 q 103 24 82 43 q 163 4 124 4 q 384 90 263 4 q 625 321 506 176 l 647 321 m 608 771 q 626 756 626 771 q 618 729 626 746 q 541 649 594 689 q 457 610 488 610 q 439 628 439 610 q 446 650 439 636 q 524 731 469 690 q 608 771 578 771 z "},"è":{"ha":618,"x_min":-39,"x_max":668,"o":"m 647 321 q 387 71 514 164 q 131 -22 260 -22 q 9 16 57 -22 q -39 133 -39 54 q 40 317 -39 221 q 233 478 118 413 q 451 543 349 543 q 540 525 504 543 q 575 472 575 507 q 504 366 575 418 q 327 279 433 314 q 122 239 221 244 l 131 263 q 306 308 225 271 q 435 394 388 344 q 482 488 482 443 q 472 515 482 506 q 442 524 461 524 q 292 446 378 524 q 144 262 206 368 q 82 82 82 156 q 103 24 82 43 q 163 4 124 4 q 384 90 263 4 q 625 321 506 176 l 647 321 m 406 797 q 517 689 442 747 q 668 597 592 631 l 660 593 q 515 660 597 614 q 379 753 433 706 l 406 797 z "},"ē":{"ha":618,"x_min":-39,"x_max":682,"o":"m 647 321 q 387 71 514 164 q 131 -22 260 -22 q 9 16 57 -22 q -39 133 -39 54 q 40 317 -39 221 q 233 478 118 413 q 451 543 349 543 q 540 525 504 543 q 575 472 575 507 q 504 366 575 418 q 327 279 433 314 q 122 239 221 244 l 131 263 q 306 308 225 271 q 435 394 388 344 q 482 488 482 443 q 472 515 482 506 q 442 524 461 524 q 292 446 378 524 q 144 262 206 368 q 82 82 82 156 q 103 24 82 43 q 163 4 124 4 q 384 90 263 4 q 625 321 506 176 l 647 321 m 668 617 l 360 617 l 394 651 l 682 651 l 668 617 z "},"ę":{"ha":618,"x_min":-39,"x_max":647,"o":"m 647 321 q 387 71 514 164 q 131 -22 260 -22 q 9 16 57 -22 q -39 133 -39 54 q 40 317 -39 221 q 233 478 118 413 q 451 543 349 543 q 540 525 504 543 q 575 472 575 507 q 504 366 575 418 q 327 279 433 314 q 122 239 221 244 l 131 263 q 306 308 225 271 q 435 394 388 344 q 482 488 482 443 q 472 515 482 506 q 442 524 461 524 q 292 446 378 524 q 144 262 206 368 q 82 82 82 156 q 103 24 82 43 q 163 4 124 4 q 384 90 263 4 q 625 321 506 176 l 647 321 m 97 -153 q 114 -91 97 -118 q 165 -26 131 -64 q 199 4 176 -15 l 211 4 q 176 -42 204 -3 q 138 -139 138 -96 q 158 -188 138 -171 q 207 -206 178 -206 q 267 -185 233 -206 l 269 -192 q 244 -231 267 -212 q 188 -249 222 -249 q 126 -225 154 -249 q 97 -153 97 -201 z "},"ẽ":{"ha":618,"x_min":-39,"x_max":706,"o":"m 647 321 q 387 71 514 164 q 131 -22 260 -22 q 9 16 57 -22 q -39 133 -39 54 q 40 317 -39 221 q 233 478 118 413 q 451 543 349 543 q 540 525 504 543 q 575 472 575 507 q 504 366 575 418 q 327 279 433 314 q 122 239 221 244 l 131 263 q 306 308 225 271 q 435 394 388 344 q 482 488 482 443 q 472 515 482 506 q 442 524 461 524 q 292 446 378 524 q 144 262 206 368 q 82 82 82 156 q 103 24 82 43 q 163 4 124 4 q 384 90 263 4 q 625 321 506 176 l 647 321 m 478 678 q 519 669 492 678 q 551 660 546 661 q 619 642 603 642 q 656 650 633 642 q 699 668 679 658 l 706 664 q 656 636 667 642 q 574 611 607 611 q 507 629 549 611 q 472 641 489 636 q 439 646 454 646 q 398 638 422 646 q 350 621 374 631 l 343 625 q 398 653 347 628 q 478 678 449 678 z "},"ə":{"ha":589,"x_min":-58,"x_max":628,"o":"m -58 200 q 201 449 74 356 q 458 543 329 543 q 580 505 532 543 q 628 388 628 467 q 550 204 628 300 q 356 43 472 108 q 139 -22 240 -22 q 49 -4 85 -22 q 14 49 14 14 q 85 155 14 103 q 262 242 156 207 q 467 282 368 276 l 458 258 q 283 213 364 250 q 154 127 201 176 q 107 33 107 78 q 117 6 107 15 q 147 -3 128 -3 q 297 75 211 -3 q 445 259 383 153 q 507 439 507 365 q 486 497 507 478 q 426 517 465 517 q 206 430 328 517 q -36 200 83 343 l -58 200 z "},"f":{"ha":492,"x_min":-778,"x_max":874,"o":"m -617 -572 q -415 -453 -522 -571 q -160 -100 -307 -335 l 232 521 q 520 851 365 731 q 874 972 675 972 l 874 954 q 715 914 790 954 q 557 779 639 874 q 371 521 475 685 l 8 -57 q -318 -462 -165 -333 q -617 -590 -471 -590 l -617 -572 m 517 521 l 517 503 l 114 503 l 114 521 l 517 521 m -617 -590 q -733 -551 -687 -590 q -778 -458 -778 -511 q -735 -365 -778 -408 q -601 -287 -693 -321 q -451 -235 -565 -274 q -72 -90 -225 -154 q 238 78 82 -25 q 504 321 393 181 l 526 321 q 272 81 417 181 q -13 -82 128 -19 q -364 -224 -154 -144 q -568 -303 -492 -271 q -674 -374 -637 -331 q -710 -476 -710 -418 q -682 -547 -710 -522 q -615 -572 -654 -571 l -617 -590 z "},"g":{"ha":775,"x_min":-421,"x_max":813,"o":"m 372 -18 q 44 -447 192 -304 q -260 -590 -103 -590 q -376 -551 -332 -590 q -421 -458 -421 -511 q -244 -287 -421 -353 l -114 -239 q 226 -104 88 -165 q 513 61 364 -43 q 790 321 663 165 l 813 321 q 545 63 692 169 q 260 -108 399 -43 q -71 -246 122 -172 l -211 -301 q -353 -476 -353 -360 q -324 -548 -353 -525 q -261 -571 -296 -571 q -110 -494 -189 -571 q 81 -250 -32 -417 l 317 103 l 307 103 q 188 10 243 42 q 74 -22 132 -22 q -23 13 14 -22 q -60 104 -60 47 q 19 296 -60 192 q 215 472 99 400 q 435 543 332 543 q 489 523 471 543 q 507 468 507 503 q 497 407 507 440 l 507 407 l 572 521 l 711 521 l 372 -18 m 94 -3 q 250 83 157 -3 q 414 281 343 168 q 485 463 485 393 q 470 508 485 492 q 426 524 456 524 q 275 437 365 524 q 117 237 185 350 q 49 53 49 124 q 60 12 49 26 q 94 -3 72 -3 z "},"ğ":{"ha":775,"x_min":-421,"x_max":813,"o":"m 372 -18 q 44 -447 192 -304 q -260 -590 -103 -590 q -376 -551 -332 -590 q -421 -458 -421 -511 q -244 -287 -421 -353 l -114 -239 q 226 -104 88 -165 q 513 61 364 -43 q 790 321 663 165 l 813 321 q 545 63 692 169 q 260 -108 399 -43 q -71 -246 122 -172 l -211 -301 q -353 -476 -353 -360 q -324 -548 -353 -525 q -261 -571 -296 -571 q -110 -494 -189 -571 q 81 -250 -32 -417 l 317 103 l 307 103 q 188 10 243 42 q 74 -22 132 -22 q -23 13 14 -22 q -60 104 -60 47 q 19 296 -60 192 q 215 472 99 400 q 435 543 332 543 q 489 523 471 543 q 507 468 507 503 q 497 407 507 440 l 507 407 l 572 521 l 711 521 l 372 -18 m 94 -3 q 250 83 157 -3 q 414 281 343 168 q 485 463 485 393 q 470 508 485 492 q 426 524 456 524 q 275 437 365 524 q 117 237 185 350 q 49 53 49 124 q 60 12 49 26 q 94 -3 72 -3 m 707 714 q 632 635 676 663 q 533 607 588 607 q 457 635 486 607 q 428 703 428 663 l 436 714 q 465 665 439 683 q 539 646 490 646 q 697 725 650 646 l 707 714 z "},"ĝ":{"ha":775,"x_min":-421,"x_max":813,"o":"m 372 -18 q 44 -447 192 -304 q -260 -590 -103 -590 q -376 -551 -332 -590 q -421 -458 -421 -511 q -244 -287 -421 -353 l -114 -239 q 226 -104 88 -165 q 513 61 364 -43 q 790 321 663 165 l 813 321 q 545 63 692 169 q 260 -108 399 -43 q -71 -246 122 -172 l -211 -301 q -353 -476 -353 -360 q -324 -548 -353 -525 q -261 -571 -296 -571 q -110 -494 -189 -571 q 81 -250 -32 -417 l 317 103 l 307 103 q 188 10 243 42 q 74 -22 132 -22 q -23 13 14 -22 q -60 104 -60 47 q 19 296 -60 192 q 215 472 99 400 q 435 543 332 543 q 489 523 471 543 q 507 468 507 503 q 497 407 507 440 l 507 407 l 572 521 l 711 521 l 372 -18 m 94 -3 q 250 83 157 -3 q 414 281 343 168 q 485 463 485 393 q 470 508 485 492 q 426 524 456 524 q 275 437 365 524 q 117 237 185 350 q 49 53 49 124 q 60 12 49 26 q 94 -3 72 -3 m 643 585 q 610 642 625 607 q 590 708 596 678 q 472 634 554 674 q 338 585 389 594 l 304 585 q 615 790 496 644 l 628 781 q 626 763 628 776 q 625 726 625 750 q 654 585 625 644 l 643 585 z "},"ģ":{"ha":775,"x_min":-421,"x_max":813,"o":"m 372 -18 q 44 -447 192 -304 q -260 -590 -103 -590 q -376 -551 -332 -590 q -421 -458 -421 -511 q -244 -287 -421 -353 l -114 -239 q 226 -104 88 -165 q 513 61 364 -43 q 790 321 663 165 l 813 321 q 545 63 692 169 q 260 -108 399 -43 q -71 -246 122 -172 l -211 -301 q -353 -476 -353 -360 q -324 -548 -353 -525 q -261 -571 -296 -571 q -110 -494 -189 -571 q 81 -250 -32 -417 l 317 103 l 307 103 q 188 10 243 42 q 74 -22 132 -22 q -23 13 14 -22 q -60 104 -60 47 q 19 296 -60 192 q 215 472 99 400 q 435 543 332 543 q 489 523 471 543 q 507 468 507 503 q 497 407 507 440 l 507 407 l 572 521 l 711 521 l 372 -18 m 94 -3 q 250 83 157 -3 q 414 281 343 168 q 485 463 485 393 q 470 508 485 492 q 426 524 456 524 q 275 437 365 524 q 117 237 185 350 q 49 53 49 124 q 60 12 49 26 q 94 -3 72 -3 m 544 739 q 567 711 567 739 q 553 661 567 689 q 519 613 540 633 q 475 593 497 593 q 452 603 460 593 q 444 629 444 613 q 499 748 444 692 q 626 829 553 804 l 633 817 q 553 774 581 796 q 515 725 526 753 l 521 725 q 544 739 533 739 z "},"ġ":{"ha":775,"x_min":-421,"x_max":813,"o":"m 372 -18 q 44 -447 192 -304 q -260 -590 -103 -590 q -376 -551 -332 -590 q -421 -458 -421 -511 q -244 -287 -421 -353 l -114 -239 q 226 -104 88 -165 q 513 61 364 -43 q 790 321 663 165 l 813 321 q 545 63 692 169 q 260 -108 399 -43 q -71 -246 122 -172 l -211 -301 q -353 -476 -353 -360 q -324 -548 -353 -525 q -261 -571 -296 -571 q -110 -494 -189 -571 q 81 -250 -32 -417 l 317 103 l 307 103 q 188 10 243 42 q 74 -22 132 -22 q -23 13 14 -22 q -60 104 -60 47 q 19 296 -60 192 q 215 472 99 400 q 435 543 332 543 q 489 523 471 543 q 507 468 507 503 q 497 407 507 440 l 507 407 l 572 521 l 711 521 l 372 -18 m 94 -3 q 250 83 157 -3 q 414 281 343 168 q 485 463 485 393 q 470 508 485 492 q 426 524 456 524 q 275 437 365 524 q 117 237 185 350 q 49 53 49 124 q 60 12 49 26 q 94 -3 72 -3 m 619 771 q 638 756 638 771 q 629 729 638 746 q 552 649 606 689 q 468 610 499 610 q 450 628 450 610 q 457 650 450 636 q 535 731 481 690 q 619 771 589 771 z "},"ḡ":{"ha":775,"x_min":-421,"x_max":813,"o":"m 372 -18 q 44 -447 192 -304 q -260 -590 -103 -590 q -376 -551 -332 -590 q -421 -458 -421 -511 q -244 -287 -421 -353 l -114 -239 q 226 -104 88 -165 q 513 61 364 -43 q 790 321 663 165 l 813 321 q 545 63 692 169 q 260 -108 399 -43 q -71 -246 122 -172 l -211 -301 q -353 -476 -353 -360 q -324 -548 -353 -525 q -261 -571 -296 -571 q -110 -494 -189 -571 q 81 -250 -32 -417 l 317 103 l 307 103 q 188 10 243 42 q 74 -22 132 -22 q -23 13 14 -22 q -60 104 -60 47 q 19 296 -60 192 q 215 472 99 400 q 435 543 332 543 q 489 523 471 543 q 507 468 507 503 q 497 407 507 440 l 507 407 l 572 521 l 711 521 l 372 -18 m 94 -3 q 250 83 157 -3 q 414 281 343 168 q 485 463 485 393 q 470 508 485 492 q 426 524 456 524 q 275 437 365 524 q 117 237 185 350 q 49 53 49 124 q 60 12 49 26 q 94 -3 72 -3 m 681 617 l 372 617 l 407 651 l 694 651 l 681 617 z "},"h":{"ha":769,"x_min":-162,"x_max":807,"o":"m 153 321 l 163 321 q 318 484 240 425 q 489 543 396 543 q 577 515 544 543 q 610 438 610 488 q 564 313 610 385 l 438 114 q 419 63 419 89 q 428 39 419 47 q 450 31 436 31 q 543 92 478 31 l 785 321 l 807 321 l 561 85 q 461 1 497 24 q 388 -22 425 -22 q 322 3 347 -22 q 297 65 297 28 q 329 160 297 108 l 474 388 q 500 461 500 429 q 483 497 500 483 q 438 510 467 510 q 271 417 364 510 q 100 200 178 325 l -24 0 l -162 0 l 449 972 l 585 972 l 153 321 z "},"ħ":{"ha":769,"x_min":-162,"x_max":807,"o":"m 153 321 l 163 321 q 318 484 240 425 q 489 543 396 543 q 577 515 544 543 q 610 438 610 488 q 564 313 610 385 l 438 114 q 419 63 419 89 q 428 39 419 47 q 450 31 436 31 q 543 92 478 31 l 785 321 l 807 321 l 561 85 q 461 1 497 24 q 388 -22 425 -22 q 322 3 347 -22 q 297 65 297 28 q 329 160 297 108 l 474 388 q 500 461 500 429 q 483 497 500 483 q 438 510 467 510 q 271 417 364 510 q 100 200 178 325 l -24 0 l -162 0 l 449 972 l 583 972 l 153 321 m 604 796 l 604 778 l 179 778 l 179 796 l 604 796 z "},"ĥ":{"ha":769,"x_min":-162,"x_max":807,"o":"m 153 321 l 163 321 q 318 484 240 425 q 489 543 396 543 q 577 515 544 543 q 610 438 610 488 q 564 313 610 385 l 438 114 q 419 63 419 89 q 428 39 419 47 q 450 31 436 31 q 543 92 478 31 l 785 321 l 807 321 l 561 85 q 461 1 497 24 q 388 -22 425 -22 q 322 3 347 -22 q 297 65 297 28 q 329 160 297 108 l 474 388 q 500 461 500 429 q 483 497 500 483 q 438 510 467 510 q 271 417 364 510 q 100 200 178 325 l -24 0 l -162 0 l 449 972 l 585 972 l 153 321 m 678 1021 q 645 1078 660 1043 q 625 1144 631 1114 q 506 1070 589 1110 q 372 1021 424 1031 l 339 1021 q 650 1226 531 1081 l 663 1217 q 661 1199 663 1213 q 660 1163 660 1186 q 689 1021 660 1081 l 678 1021 z "},"i":{"ha":399,"x_min":-72,"x_max":453,"o":"m 68 111 q 47 56 47 78 q 54 34 47 42 q 74 26 61 26 q 113 44 88 26 q 169 90 139 61 l 414 321 l 436 321 l 190 85 q 91 1 126 24 q 19 -22 56 -22 q -48 3 -24 -22 q -72 68 -72 29 q -44 156 -72 111 l 185 521 l 324 521 l 68 111 m 329 653 q 296 664 308 653 q 283 693 283 675 q 302 742 283 717 q 350 785 321 768 q 408 803 379 803 q 441 792 429 803 q 453 764 453 782 q 434 714 453 740 q 387 670 415 688 q 329 653 358 653 z "},"ı":{"ha":389,"x_min":-82,"x_max":426,"o":"m 58 111 q 38 56 38 78 q 44 34 38 42 q 64 26 51 26 q 103 44 78 26 q 158 90 128 61 l 404 321 l 426 321 l 181 85 q 81 1 117 24 q 8 -22 44 -22 q -58 3 -33 -22 q -82 68 -82 29 q -54 156 -82 111 l 175 521 l 314 521 l 58 111 z "},"í":{"ha":389,"x_min":-82,"x_max":465,"o":"m 58 111 q 38 56 38 78 q 44 34 38 42 q 64 26 51 26 q 103 44 78 26 q 158 90 128 61 l 404 321 l 426 321 l 181 85 q 81 1 117 24 q 8 -22 44 -22 q -58 3 -33 -22 q -82 68 -82 29 q -54 156 -82 111 l 175 521 l 314 521 l 58 111 m 465 753 q 329 660 411 706 q 185 593 247 614 l 176 597 q 328 689 253 631 q 439 797 403 747 l 465 753 z "},"î":{"ha":389,"x_min":-82,"x_max":446,"o":"m 58 111 q 38 56 38 78 q 44 34 38 42 q 64 26 51 26 q 103 44 78 26 q 158 90 128 61 l 404 321 l 426 321 l 181 85 q 81 1 117 24 q 8 -22 44 -22 q -58 3 -33 -22 q -82 68 -82 29 q -54 156 -82 111 l 175 521 l 314 521 l 58 111 m 435 585 q 402 642 417 607 q 382 708 388 678 q 263 634 346 674 q 129 585 181 594 l 96 585 q 407 790 288 644 l 419 781 q 418 763 419 776 q 417 726 417 750 q 446 585 417 644 l 435 585 z "},"ï":{"ha":389,"x_min":-82,"x_max":531,"o":"m 58 111 q 38 56 38 78 q 44 34 38 42 q 64 26 51 26 q 103 44 78 26 q 158 90 128 61 l 404 321 l 426 321 l 181 85 q 81 1 117 24 q 8 -22 44 -22 q -58 3 -33 -22 q -82 68 -82 29 q -54 156 -82 111 l 175 521 l 314 521 l 58 111 m 310 771 q 326 756 326 771 q 318 729 326 746 q 244 649 296 689 q 161 610 192 610 q 144 628 144 610 q 151 651 144 635 q 226 731 174 690 q 310 771 279 771 m 511 771 q 531 756 531 771 q 521 729 531 749 q 445 650 499 690 q 361 610 392 610 q 343 628 343 610 q 349 650 343 639 q 426 731 372 690 q 511 771 481 771 z "},"ì":{"ha":389,"x_min":-82,"x_max":472,"o":"m 58 111 q 38 56 38 78 q 44 34 38 42 q 64 26 51 26 q 103 44 78 26 q 158 90 128 61 l 404 321 l 426 321 l 181 85 q 81 1 117 24 q 8 -22 44 -22 q -58 3 -33 -22 q -82 68 -82 29 q -54 156 -82 111 l 175 521 l 314 521 l 58 111 m 210 797 q 321 689 246 747 q 472 597 396 631 l 464 593 q 319 660 401 614 q 183 753 238 706 l 210 797 z "},"ī":{"ha":389,"x_min":-82,"x_max":486,"o":"m 58 111 q 38 56 38 78 q 44 34 38 42 q 64 26 51 26 q 103 44 78 26 q 158 90 128 61 l 404 321 l 426 321 l 181 85 q 81 1 117 24 q 8 -22 44 -22 q -58 3 -33 -22 q -82 68 -82 29 q -54 156 -82 111 l 175 521 l 314 521 l 58 111 m 472 617 l 164 617 l 199 651 l 486 651 l 472 617 z "},"į":{"ha":389,"x_min":-110,"x_max":431,"o":"m 58 111 q 38 56 38 78 q 44 34 38 42 q 64 26 51 26 q 103 44 78 26 q 158 90 128 61 l 404 321 l 426 321 l 181 85 q 81 1 117 24 q 8 -22 44 -22 q -58 3 -33 -22 q -82 68 -82 29 q -54 156 -82 111 l 175 521 l 314 521 l 58 111 m 413 771 q 431 756 431 771 q 422 729 431 746 q 345 649 399 689 q 261 610 292 610 q 243 628 243 610 q 250 650 243 636 q 328 731 274 690 q 413 771 382 771 m -110 -153 q -93 -91 -110 -118 q -42 -26 -76 -64 q -8 4 -31 -15 l 4 4 q -31 -42 -3 -3 q -69 -139 -69 -96 q -49 -188 -69 -171 q 0 -206 -29 -206 q 60 -185 26 -206 l 63 -192 q 38 -231 60 -212 q -19 -249 15 -249 q -81 -225 -53 -249 q -110 -153 -110 -201 z "},"ĩ":{"ha":389,"x_min":-82,"x_max":510,"o":"m 58 111 q 38 56 38 78 q 44 34 38 42 q 64 26 51 26 q 103 44 78 26 q 158 90 128 61 l 404 321 l 426 321 l 181 85 q 81 1 117 24 q 8 -22 44 -22 q -58 3 -33 -22 q -82 68 -82 29 q -54 156 -82 111 l 175 521 l 314 521 l 58 111 m 282 678 q 323 669 296 678 q 356 660 350 661 q 424 642 407 642 q 460 650 438 642 q 503 668 483 658 l 510 664 q 460 636 471 642 q 378 611 411 611 q 311 629 353 611 q 276 641 293 636 q 243 646 258 646 q 202 638 226 646 q 154 621 178 631 l 147 625 q 202 653 151 628 q 282 678 253 678 z "},"j":{"ha":553,"x_min":-643,"x_max":608,"o":"m 150 -18 q -179 -447 -29 -303 q -486 -590 -329 -590 q -599 -552 -556 -590 q -643 -458 -643 -514 q -467 -285 -643 -347 q -358 -246 -362 -247 q -2 -106 -147 -169 q 294 63 143 -42 q 567 321 444 168 l 590 321 q 323 63 469 169 q 38 -108 176 -43 q -293 -246 -100 -172 l -433 -301 q -575 -476 -575 -360 q -549 -547 -575 -522 q -483 -571 -522 -571 q -383 -538 -433 -571 q -264 -417 -333 -506 q -87 -164 -194 -329 l 350 521 l 489 521 l 150 -18 m 485 653 q 451 663 463 653 q 439 693 439 674 q 449 729 439 710 q 498 781 465 760 q 564 803 531 803 q 597 792 585 803 q 608 764 608 781 q 599 729 608 747 q 549 675 582 697 q 485 653 517 653 z "},"ȷ":{"ha":553,"x_min":-643,"x_max":590,"o":"m 150 -18 q -179 -447 -29 -303 q -486 -590 -329 -590 q -599 -552 -556 -590 q -643 -458 -643 -514 q -467 -285 -643 -347 q -358 -246 -362 -247 q -2 -106 -147 -169 q 294 63 143 -42 q 567 321 444 168 l 590 321 q 323 63 469 169 q 38 -108 176 -43 q -293 -246 -100 -172 l -433 -301 q -575 -476 -575 -360 q -549 -547 -575 -522 q -483 -571 -522 -571 q -383 -538 -433 -571 q -264 -417 -333 -506 q -87 -164 -194 -329 l 350 521 l 489 521 l 150 -18 z "},"ĵ":{"ha":553,"x_min":-643,"x_max":590,"o":"m 150 -18 q -179 -447 -29 -303 q -486 -590 -329 -590 q -599 -552 -556 -590 q -643 -458 -643 -514 q -467 -285 -643 -347 q -358 -246 -362 -247 q -2 -106 -147 -169 q 294 63 143 -42 q 567 321 444 168 l 590 321 q 323 63 469 169 q 38 -108 176 -43 q -293 -246 -100 -172 l -433 -301 q -575 -476 -575 -360 q -549 -547 -575 -522 q -483 -571 -522 -571 q -383 -538 -433 -571 q -264 -417 -333 -506 q -87 -164 -194 -329 l 350 521 l 489 521 l 150 -18 m 579 585 q 547 642 561 607 q 526 708 532 678 q 408 634 490 674 q 274 585 325 594 l 240 585 q 551 790 432 644 l 564 781 q 563 763 564 776 q 561 726 561 750 q 590 585 561 644 l 579 585 z "},"k":{"ha":650,"x_min":-162,"x_max":735,"o":"m 636 208 q 435 32 511 86 q 303 -22 360 -22 q 237 -3 264 -22 q 210 57 210 15 q 219 99 210 78 q 246 156 228 119 q 265 194 257 175 q 274 226 274 214 q 238 265 274 256 q 142 274 203 274 l 151 290 q 303 308 246 290 q 389 351 360 326 q 451 419 418 376 q 511 485 483 461 q 592 526 539 510 q 735 543 646 543 l 735 526 q 643 513 678 526 q 589 480 608 500 q 546 424 569 460 q 488 352 517 379 q 401 306 460 325 q 246 288 343 288 l 246 278 q 341 251 310 278 q 372 183 372 225 q 365 142 372 163 q 343 96 357 122 q 322 39 322 57 q 353 8 322 8 q 447 63 376 8 q 613 208 518 117 l 636 208 m -24 0 l -162 0 l 446 972 l 585 972 l -24 0 z "},"ķ":{"ha":650,"x_min":-162,"x_max":735,"o":"m 636 208 q 435 32 511 86 q 303 -22 360 -22 q 237 -3 264 -22 q 210 57 210 15 q 219 99 210 78 q 246 156 228 119 q 265 194 257 175 q 274 226 274 214 q 238 265 274 256 q 142 274 203 274 l 151 290 q 303 308 246 290 q 389 351 360 326 q 451 419 418 376 q 511 485 483 461 q 592 526 539 510 q 735 543 646 543 l 735 526 q 643 513 678 526 q 589 480 608 500 q 546 424 569 460 q 488 352 517 379 q 401 306 460 325 q 246 288 343 288 l 246 278 q 341 251 310 278 q 372 183 372 225 q 365 142 372 163 q 343 96 357 122 q 322 39 322 57 q 353 8 322 8 q 447 63 376 8 q 613 208 518 117 l 636 208 m -24 0 l -162 0 l 446 972 l 585 972 l -24 0 m 32 -179 q 10 -151 10 -179 q 23 -102 10 -131 q 58 -53 36 -74 q 101 -33 79 -33 q 132 -68 132 -33 q 78 -188 132 -132 q -50 -269 24 -244 l -57 -257 q 23 -215 -4 -236 q 61 -165 50 -193 l 56 -165 q 32 -179 44 -179 z "},"l":{"ha":378,"x_min":-92,"x_max":586,"o":"m 47 111 q 28 58 28 81 q 37 34 28 43 q 58 25 46 25 q 101 43 74 25 q 158 90 128 61 l 394 321 l 415 321 l 172 85 q 73 1 111 25 q -1 -22 35 -22 q -67 4 -42 -22 q -92 69 -92 31 q -65 156 -92 114 l 447 972 l 586 972 l 47 111 z "},"ĺ":{"ha":378,"x_min":-92,"x_max":586,"o":"m 47 111 q 28 58 28 81 q 37 34 28 43 q 58 25 46 25 q 101 43 74 25 q 158 90 128 61 l 394 321 l 415 321 l 172 85 q 73 1 111 25 q -1 -22 35 -22 q -67 4 -42 -22 q -92 69 -92 31 q -65 156 -92 114 l 447 972 l 586 972 l 47 111 m 513 1206 q 376 1113 458 1158 q 232 1046 294 1067 l 224 1050 q 375 1142 300 1083 q 486 1250 450 1200 l 513 1206 z "},"ľ":{"ha":378,"x_min":-92,"x_max":706,"o":"m 47 111 q 28 58 28 81 q 37 34 28 43 q 58 25 46 25 q 101 43 74 25 q 158 90 128 61 l 394 321 l 415 321 l 172 85 q 73 1 111 25 q -1 -22 35 -22 q -67 4 -42 -22 q -92 69 -92 31 q -65 156 -92 114 l 447 972 l 586 972 l 47 111 m 606 826 q 583 854 583 826 q 597 904 583 876 q 631 952 610 932 q 675 972 653 972 q 706 938 706 972 q 651 817 706 874 q 524 736 597 761 l 517 749 q 597 791 569 769 q 635 840 624 813 l 629 840 q 606 826 617 826 z "},"ļ":{"ha":378,"x_min":-168,"x_max":586,"o":"m 47 111 q 28 58 28 81 q 37 34 28 43 q 58 25 46 25 q 101 43 74 25 q 158 90 128 61 l 394 321 l 415 321 l 172 85 q 73 1 111 25 q -1 -22 35 -22 q -67 4 -42 -22 q -92 69 -92 31 q -65 156 -92 114 l 447 972 l 586 972 l 47 111 m -79 -179 q -101 -151 -101 -179 q -88 -102 -101 -131 q -53 -53 -75 -74 q -10 -33 -32 -33 q 21 -68 21 -33 q -33 -188 21 -132 q -161 -269 -87 -244 l -168 -257 q -88 -215 -115 -236 q -50 -165 -61 -193 l -56 -165 q -79 -179 -67 -179 z "},"ł":{"ha":378,"x_min":-92,"x_max":586,"o":"m 47 111 q 28 58 28 81 q 37 34 28 43 q 58 25 46 25 q 101 43 74 25 q 158 90 128 61 l 394 321 l 415 321 l 172 85 q 73 1 111 25 q -1 -22 35 -22 q -67 4 -42 -22 q -92 69 -92 31 q -65 156 -92 114 l 447 972 l 586 972 l 47 111 m 556 749 l 556 731 l 107 540 l 107 558 l 556 749 z "},"m":{"ha":1118,"x_min":-162,"x_max":1156,"o":"m 150 321 l 160 321 q 317 491 250 439 q 463 543 385 543 q 542 519 510 543 q 575 451 575 494 q 521 321 575 397 l 531 321 q 684 494 614 444 q 831 543 754 543 q 922 513 888 543 q 957 435 957 483 q 913 313 957 383 l 788 111 q 767 60 767 79 q 776 38 767 46 q 799 31 786 31 q 886 86 831 31 l 1133 321 l 1156 321 l 910 85 q 804 0 843 22 q 728 -22 765 -22 q 667 2 690 -22 q 643 64 643 26 q 672 151 643 106 l 821 388 q 849 458 849 431 q 831 496 849 482 q 785 510 814 510 q 658 447 725 510 q 535 296 590 383 l 347 0 l 208 0 l 456 394 q 478 458 478 429 q 461 495 478 481 q 418 510 444 510 q 276 430 357 510 q 121 231 194 350 l -24 0 l -162 0 l 164 521 l 297 521 l 150 321 z "},"n":{"ha":769,"x_min":-161,"x_max":807,"o":"m 303 521 l 153 321 l 163 321 q 324 487 244 431 q 486 543 404 543 q 577 514 543 543 q 611 436 611 485 q 564 313 611 386 l 439 111 q 421 60 421 79 q 429 38 421 46 q 450 31 438 31 q 486 43 465 31 q 539 86 507 56 l 785 321 l 807 321 l 561 85 q 461 1 499 25 q 389 -22 424 -22 q 319 1 344 -22 q 294 63 294 24 q 325 151 294 104 l 474 388 q 503 463 503 432 q 487 497 503 485 q 440 510 471 510 q 281 427 369 510 q 131 244 192 344 l -22 0 l -161 0 l 164 521 l 303 521 z "},"ń":{"ha":769,"x_min":-161,"x_max":807,"o":"m 303 521 l 153 321 l 163 321 q 324 487 244 431 q 486 543 404 543 q 577 514 543 543 q 611 436 611 485 q 564 313 611 386 l 439 111 q 421 60 421 79 q 429 38 421 46 q 450 31 438 31 q 486 43 465 31 q 539 86 507 56 l 785 321 l 807 321 l 561 85 q 461 1 499 25 q 389 -22 424 -22 q 319 1 344 -22 q 294 63 294 24 q 325 151 294 104 l 474 388 q 503 463 503 432 q 487 497 503 485 q 440 510 471 510 q 281 427 369 510 q 131 244 192 344 l -22 0 l -161 0 l 164 521 l 303 521 m 647 764 q 511 671 593 717 q 367 604 429 625 l 358 608 q 510 700 435 642 q 621 808 585 758 l 647 764 z "}}}
